Cascade-Italic.ufo
<glyph name="exclam" format="2">
  <advance width="290"/>
  <unicode hex="0021"/>
  <outline>
    <contour>
      <point x="183" y="700" type="line" name="n00"/>
      <point x="111" y="180" type="line"/>
      <point x="191" y="180" type="line"/>
      <point x="303" y="700" type="line"/>
    </contour>
    <contour>
      <point x="68" y="50" type="curve" smooth="yes" name="n04"/>
      <point x="61" y="15"/>
      <point x="83" y="-10"/>
      <point x="118" y="-10" type="curve" smooth="yes"/>
      <point x="153" y="-10"/>
      <point x="181" y="15" name="n09"/>
      <point x="188" y="50" type="curve" smooth="yes" name="n10"/>
      <point x="195" y="85"/>
      <point x="174" y="110"/>
      <point x="139" y="110" type="curve" smooth="yes"/>
      <point x="104" y="110"/>
      <point x="75" y="85"/>
    </contour>
  </outline>
</glyph>
<glyph name="quotedbl" format="2">
  <advance width="340"/>
  <unicode hex="0022"/>
  <outline>
    <contour>
      <point x="138" y="700" type="line" name="n00"/>
      <point x="116" y="460" type="line" name="n01"/>
      <point x="181" y="460" type="line"/>
      <point x="243" y="700" type="line"/>
    </contour>
    <contour>
      <point x="293" y="700" type="line"/>
      <point x="271" y="460" type="line"/>
      <point x="336" y="460" type="line"/>
      <point x="398" y="700" type="line" name="n07"/>
    </contour>
  </outline>
</glyph>
<glyph name="numbersign" format="2">
  <advance width="660"/>
  <unicode hex="0023"/>
  <outline>
    <contour>
      <point x="365" y="520" type="line"/>
      <point x="438" y="700" type="line" name="n01"/>
      <point x="338" y="700" type="line"/>
      <point x="265" y="520" type="line"/>
      <point x="146" y="520" type="line" name="n04"/>
      <point x="134" y="450" type="line" name="n05"/>
      <point x="237" y="450" type="line"/>
      <point x="156" y="250" type="line"/>
      <point x="39" y="250" type="line" name="n08"/>
      <point x="26" y="180" type="line" name="n09"/>
      <point x="127" y="180" type="line"/>
      <point x="55" y="0" type="line" name="n11"/>
      <point x="155" y="0" type="line"/>
      <point x="227" y="180" type="line"/>
      <point x="367" y="180" type="line"/>
      <point x="295" y="0" type="line"/>
      <point x="395" y="0" type="line"/>
      <point x="467" y="180" type="line"/>
      <point x="586" y="180" type="line"/>
      <point x="599" y="250" type="line"/>
      <point x="496" y="250" type="line"/>
      <point x="577" y="450" type="line"/>
      <point x="694" y="450" type="line"/>
      <point x="706" y="520" type="line" name="n23"/>
      <point x="605" y="520" type="line"/>
      <point x="678" y="700" type="line"/>
      <point x="578" y="700" type="line"/>
      <point x="505" y="520" type="line"/>
    </contour>
    <contour>
      <point x="256" y="250" type="line"/>
      <point x="337" y="450" type="line"/>
      <point x="477" y="450" type="line"/>
      <point x="396" y="250" type="line"/>
    </contour>
  </outline>
</glyph>
<glyph name="dollar" format="2">
  <advance width="495"/>
  <unicode hex="0024"/>
  <outline>
    <contour>
      <point x="152" y="-70" type="line" name="hr04"/>
      <point x="257" y="-70" type="line" name="n01"/>
      <point x="269" y="-5" type="line"/>
      <point x="384" y="14"/>
      <point x="454" y="86"/>
      <point x="473" y="190" type="curve" smooth="yes"/>
      <point x="513" y="410"/>
      <point x="180" y="370"/>
      <point x="208" y="530" type="curve" smooth="yes"/>
      <point x="219" y="589"/>
      <point x="277" y="640"/>
      <point x="352" y="640" type="curve" smooth="yes" name="n11"/>
      <point x="397" y="640"/>
      <point x="429" y="628"/>
      <point x="452" y="617" type="curve"/>
      <point x="465" y="610"/>
      <point x="475" y="603"/>
      <point x="484" y="595" type="curve"/>
      <point x="494" y="595" type="line"/>
      <point x="540" y="655" type="line"/>
      <point x="531" y="663"/>
      <point x="519" y="671"/>
      <point x="505" y="678" type="curve" smooth="yes"/>
      <point x="481" y="690"/>
      <point x="445" y="703"/>
      <point x="394" y="708" type="curve" name="n25"/>
      <point x="405" y="770" type="line" name="hr02"/>
      <point x="300" y="770" type="line" name="n27"/>
      <point x="288" y="703" type="line"/>
      <point x="189" y="680"/>
      <point x="122" y="612"/>
      <point x="106" y="520" type="curve" smooth="yes"/>
      <point x="66" y="300"/>
      <point x="399" y="340"/>
      <point x="371" y="180" type="curve" smooth="yes"/>
      <point x="359" y="109"/>
      <point x="301" y="60"/>
      <point x="210" y="60" type="curve" smooth="yes" name="n37"/>
      <point x="165" y="60"/>
      <point x="129" y="71"/>
      <point x="105" y="82" type="curve"/>
      <point x="91" y="89"/>
      <point x="79" y="96"/>
      <point x="68" y="105" type="curve"/>
      <point x="58" y="105" type="line"/>
      <point x="12" y="45" type="line"/>
      <point x="23" y="38"/>
      <point x="35" y="30"/>
      <point x="50" y="23" type="curve" smooth="yes"/>
      <point x="75" y="11"/>
      <point x="112" y="-2"/>
      <point x="163" y="-7" type="curve" name="n51"/>
    </contour>
  </outline>
</glyph>
<glyph name="percent" format="2">
  <advance width="800"/>
  <unicode hex="0025"/>
  <outline>
    <contour>
      <point x="226" y="350" type="curve" smooth="yes" name="n00"/>
      <point x="322" y="350"/>
      <point x="398" y="414"/>
      <point x="418" y="530" type="curve" smooth="yes"/>
      <point x="438" y="646"/>
      <point x="386" y="710"/>
      <point x="290" y="710" type="curve" smooth="yes" name="n06"/>
      <point x="194" y="710"/>
      <point x="118" y="646"/>
      <point x="98" y="530" type="curve" smooth="yes"/>
      <point x="78" y="414"/>
      <point x="130" y="350"/>
    </contour>
    <contour>
      <point x="85" y="0" type="line" name="n12"/>
      <point x="195" y="0" type="line"/>
      <point x="788" y="700" type="line" name="n14"/>
      <point x="678" y="700" type="line" name="hr01"/>
    </contour>
    <contour>
      <point x="237" y="410" type="curve" smooth="yes" name="n16"/>
      <point x="197" y="410"/>
      <point x="172" y="439"/>
      <point x="188" y="530" type="curve" smooth="yes"/>
      <point x="204" y="621"/>
      <point x="239" y="650"/>
      <point x="279" y="650" type="curve" smooth="yes" name="n22"/>
      <point x="319" y="650"/>
      <point x="344" y="619"/>
      <point x="328" y="530" type="curve" smooth="yes"/>
      <point x="312" y="439"/>
      <point x="277" y="410"/>
    </contour>
    <contour>
      <point x="583" y="-10" type="curve" smooth="yes" name="n28"/>
      <point x="679" y="-10"/>
      <point x="754" y="54"/>
      <point x="774" y="170" type="curve" smooth="yes"/>
      <point x="795" y="285"/>
      <point x="741" y="350"/>
      <point x="646" y="350" type="curve" smooth="yes" name="n34"/>
      <point x="550" y="350"/>
      <point x="475" y="286"/>
      <point x="454" y="170" type="curve" smooth="yes"/>
      <point x="434" y="54"/>
      <point x="487" y="-10"/>
    </contour>
    <contour>
      <point x="593" y="50" type="curve" smooth="yes" name="n40"/>
      <point x="554" y="50"/>
      <point x="528" y="79"/>
      <point x="544" y="170" type="curve" smooth="yes"/>
      <point x="560" y="261"/>
      <point x="596" y="290"/>
      <point x="636" y="290" type="curve" smooth="yes" name="n46"/>
      <point x="676" y="290"/>
      <point x="700" y="259" name="hr03"/>
      <point x="684" y="170" type="curve" smooth="yes"/>
      <point x="668" y="79"/>
      <point x="634" y="50"/>
    </contour>
  </outline>
</glyph>
<glyph name="ampersand" format="2">
  <advance width="615"/>
  <unicode hex="0026"/>
  <outline>
    <contour>
      <point x="214.697" y="-10" type="curve" smooth="yes" name="n00"/>
      <point x="289" y="-10"/>
      <point x="361" y="15"/>
      <point x="425" y="60" type="curve"/>
      <point x="465" y="0" type="line" name="n04"/>
      <point x="585" y="0" type="line" name="n05"/>
      <point x="502" y="125" type="line" name="n06"/>
      <point x="546" y="181"/>
      <point x="578" y="244"/>
      <point x="591" y="320" type="curve" name="n09"/>
      <point x="501" y="320" type="line"/>
      <point x="492" y="269"/>
      <point x="479" y="225"/>
      <point x="458" y="190" type="curve"/>
      <point x="340" y="370" type="line"/>
      <point x="415.86" y="413.349"/>
      <point x="510.737" y="492.801"/>
      <point x="510.737" y="588.395" type="curve" smooth="yes"/>
      <point x="510.737" y="659.058"/>
      <point x="457.07" y="710"/>
      <point x="365" y="710" type="curve" smooth="yes" name="n20"/>
      <point x="255.684" y="710"/>
      <point x="158.68" y="637.985"/>
      <point x="158.68" y="526.855" type="curve" smooth="yes"/>
      <point x="158.68" y="469.988"/>
      <point x="184.081" y="420.515"/>
      <point x="217" y="380" type="curve"/>
      <point x="126.994" y="326.425"/>
      <point x="32.7503" y="258.534"/>
      <point x="32.7503" y="145.805" type="curve" smooth="yes"/>
      <point x="32.7503" y="52.7288"/>
      <point x="97" y="-10" name="hr04"/>
    </contour>
    <contour>
      <point x="301" y="435" type="curve"/>
      <point x="280.785" y="461.953"/>
      <point x="259.759" y="501.853"/>
      <point x="259.759" y="539.583" type="curve" smooth="yes"/>
      <point x="259.759" y="588.968"/>
      <point x="295.784" y="645"/>
      <point x="353" y="645" type="curve" smooth="yes" name="n38"/>
      <point x="386.751" y="645"/>
      <point x="410.534" y="624.354"/>
      <point x="410.534" y="582.944" type="curve" smooth="yes"/>
      <point x="410.534" y="518.514"/>
      <point x="352.957" y="466.752"/>
    </contour>
    <contour>
      <point x="252.222" y="60" type="curve" smooth="yes" name="n44"/>
      <point x="174.196" y="60"/>
      <point x="133.941" y="98.3821"/>
      <point x="133.941" y="156.428" type="curve" smooth="yes"/>
      <point x="133.941" y="231.037"/>
      <point x="197.68" y="278.606"/>
      <point x="255" y="315" type="curve"/>
      <point x="389" y="110" type="line"/>
      <point x="348" y="75"/>
      <point x="301" y="60"/>
    </contour>
  </outline>
</glyph>
<glyph name="quotesingle" format="2">
  <advance width="185"/>
  <unicode hex="0027"/>
  <outline>
    <contour>
      <point x="138" y="700" type="line" name="n00"/>
      <point x="116" y="460" type="line" name="n01"/>
      <point x="181" y="460" type="line"/>
      <point x="243" y="700" type="line" name="n03"/>
    </contour>
  </outline>
</glyph>
<glyph name="parenleft" format="2">
  <advance width="285"/>
  <unicode hex="0028"/>
  <outline>
    <contour>
      <point x="79" y="280" type="curve" smooth="yes"/>
      <point x="50" y="109"/>
      <point x="84" y="-60"/>
      <point x="189" y="-175" type="curve"/>
      <point x="236" y="-135" type="line" name="n04"/>
      <point x="175" y="-21"/>
      <point x="150" y="111"/>
      <point x="179" y="280" type="curve"/>
      <point x="210" y="451"/>
      <point x="282" y="579"/>
      <point x="382" y="695" type="curve" name="n10"/>
      <point x="349" y="735" type="line"/>
      <point x="205" y="620"/>
      <point x="108" y="451"/>
    </contour>
  </outline>
</glyph>
<glyph name="parenright" format="2">
  <advance width="285"/>
  <unicode hex="0029"/>
  <outline>
    <contour>
      <point x="254" y="280" type="curve" smooth="yes"/>
      <point x="283" y="451"/>
      <point x="249" y="620"/>
      <point x="144" y="735" type="curve"/>
      <point x="97" y="695" type="line" name="n04"/>
      <point x="157" y="580"/>
      <point x="183" y="449"/>
      <point x="154" y="280" type="curve"/>
      <point x="123" y="109"/>
      <point x="52" y="-19"/>
      <point x="-48" y="-135" type="curve" name="n10"/>
      <point x="-16" y="-175" type="line"/>
      <point x="128" y="-60"/>
      <point x="225" y="109"/>
    </contour>
  </outline>
</glyph>
<glyph name="asterisk" format="2">
  <advance width="410"/>
  <unicode hex="002A"/>
  <outline>
    <contour>
      <point x="152" y="640" type="line" name="n00"/>
      <point x="107" y="580" type="line"/>
      <point x="201" y="520" type="line"/>
      <point x="86" y="460" type="line"/>
      <point x="110" y="400" type="line"/>
      <point x="226" y="460" type="line"/>
      <point x="204" y="340" type="line" name="n06"/>
      <point x="274" y="340" type="line"/>
      <point x="296" y="460" type="line"/>
      <point x="390" y="400" type="line"/>
      <point x="436" y="460" type="line"/>
      <point x="341" y="520" type="line"/>
      <point x="457" y="580" type="line"/>
      <point x="432" y="640" type="line"/>
      <point x="317" y="580" type="line"/>
      <point x="338" y="700" type="line" name="n15"/>
      <point x="268" y="700" type="line"/>
      <point x="247" y="580" type="line"/>
    </contour>
  </outline>
</glyph>
<glyph name="plus" format="2">
  <advance width="470"/>
  <unicode hex="002B"/>
  <outline>
    <contour>
      <point x="192" y="125" type="line"/>
      <point x="272" y="125" type="line"/>
      <point x="301" y="290" type="line" name="n02"/>
      <point x="466" y="290" type="line"/>
      <point x="480" y="370" type="line" name="n04"/>
      <point x="315" y="370" type="line" name="n05"/>
      <point x="344" y="535" type="line"/>
      <point x="264" y="535" type="line"/>
      <point x="235" y="370" type="line"/>
      <point x="70" y="370" type="line"/>
      <point x="56" y="290" type="line" name="n10"/>
      <point x="221" y="290" type="line"/>
    </contour>
  </outline>
</glyph>
<glyph name="period" format="2">
  <advance width="200"/>
  <unicode hex="002E"/>
  <outline>
    <contour>
      <point x="23" y="50" type="curve" smooth="yes" name="n00"/>
      <point x="16" y="15"/>
      <point x="38" y="-10"/>
      <point x="73" y="-10" type="curve" smooth="yes"/>
      <point x="108" y="-10"/>
      <point x="136" y="15"/>
      <point x="143" y="50" type="curve" smooth="yes" name="n06"/>
      <point x="150" y="85"/>
      <point x="129" y="110"/>
      <point x="94" y="110" type="curve" smooth="yes"/>
      <point x="59" y="110"/>
      <point x="30" y="85"/>
    </contour>
  </outline>
</glyph>
<glyph name="slash" format="2">
  <advance width="410"/>
  <unicode hex="002F"/>
  <outline>
    <contour>
      <point x="408" y="700" type="line" name="n00"/>
      <point x="-25" y="0" type="line" name="n01"/>
      <point x="75" y="0" type="line"/>
      <point x="508" y="700" type="line" name="n03"/>
    </contour>
  </outline>
</glyph>
<glyph name="zero" format="2">
  <advance width="580"/>
  <unicode hex="0030"/>
  <outline>
    <contour>
      <point x="263" y="-10" type="curve" smooth="yes" name="n00"/>
      <point x="397" y="-10"/>
      <point x="516" y="90"/>
      <point x="561" y="350" type="curve" smooth="yes"/>
      <point x="606" y="610"/>
      <point x="526" y="710"/>
      <point x="390" y="710" type="curve" smooth="yes" name="n06"/>
      <point x="255" y="710"/>
      <point x="136" y="610"/>
      <point x="91" y="350" type="curve" smooth="yes"/>
      <point x="46" y="90"/>
      <point x="127" y="-10"/>
    </contour>
    <contour>
      <point x="275" y="60" type="curve" smooth="yes" name="n12"/>
      <point x="199" y="60"/>
      <point x="151" y="121"/>
      <point x="191" y="350" type="curve" smooth="yes"/>
      <point x="231" y="579"/>
      <point x="302" y="640"/>
      <point x="377" y="640" type="curve" smooth="yes" name="n18"/>
      <point x="453" y="640"/>
      <point x="501" y="579"/>
      <point x="461" y="350" type="curve" smooth="yes"/>
      <point x="421" y="121"/>
      <point x="350" y="60"/>
    </contour>
  </outline>
</glyph>
<glyph name="one" format="2">
  <advance width="390"/>
  <unicode hex="0031"/>
  <outline>
    <contour>
      <point x="25" y="0" type="line" name="n00"/>
      <point x="345" y="0" type="line"/>
      <point x="357" y="70" type="line"/>
      <point x="247" y="70" type="line"/>
      <point x="358" y="700" type="line" name="n04"/>
      <point x="268" y="700" type="line"/>
      <point x="97" y="580" type="line"/>
      <point x="127" y="525" type="line"/>
      <point x="239" y="590" type="line"/>
      <point x="147" y="70" type="line"/>
      <point x="37" y="70" type="line" name="n10"/>
    </contour>
  </outline>
</glyph>
<glyph name="two" format="2">
  <advance width="500"/>
  <unicode hex="0032"/>
  <outline>
    <contour>
      <point x="5" y="0" type="line"/>
      <point x="430" y="0" type="line" name="n01"/>
      <point x="442" y="70" type="line" name="n02"/>
      <point x="117" y="70" type="line"/>
      <point x="141" y="210"/>
      <point x="485" y="320"/>
      <point x="521" y="520" type="curve" smooth="yes"/>
      <point x="540" y="630"/>
      <point x="475" y="710"/>
      <point x="330" y="710" type="curve" smooth="yes" name="n09"/>
      <point x="265" y="710"/>
      <point x="214" y="697"/>
      <point x="179" y="682" type="curve"/>
      <point x="158" y="674"/>
      <point x="140" y="665"/>
      <point x="125" y="655" type="curve"/>
      <point x="149" y="595" type="line"/>
      <point x="159" y="595" type="line"/>
      <point x="170" y="603"/>
      <point x="184" y="610"/>
      <point x="199" y="617" type="curve"/>
      <point x="226" y="628"/>
      <point x="262" y="640"/>
      <point x="307" y="640" type="curve" smooth="yes" name="n23"/>
      <point x="392" y="640"/>
      <point x="434" y="590"/>
      <point x="423" y="530" type="curve" smooth="yes"/>
      <point x="391" y="360"/>
      <point x="53" y="270"/>
      <point x="17" y="70" type="curve" smooth="yes"/>
    </contour>
  </outline>
</glyph>
<glyph name="three" format="2">
  <advance width="500"/>
  <unicode hex="0033"/>
  <outline>
    <contour>
      <point x="183" y="-10" type="curve" smooth="yes" name="n00"/>
      <point x="354" y="-10"/>
      <point x="447" y="69"/>
      <point x="470" y="200" type="curve" smooth="yes"/>
      <point x="493" y="329"/>
      <point x="427" y="410"/>
      <point x="262" y="410" type="curve"/>
      <point x="526" y="630" type="line" name="n07"/>
      <point x="538" y="700" type="line" name="n08"/>
      <point x="128" y="700" type="line"/>
      <point x="116" y="630" type="line"/>
      <point x="406" y="630" type="line"/>
      <point x="142" y="410" type="line" name="n12"/>
      <point x="129" y="340" type="line" name="n13"/>
      <point x="234" y="340" type="line" smooth="yes"/>
      <point x="345" y="340"/>
      <point x="386" y="291"/>
      <point x="370" y="200" type="curve" smooth="yes"/>
      <point x="354" y="109"/>
      <point x="296" y="60"/>
      <point x="185" y="60" type="curve" smooth="yes" name="n20"/>
      <point x="140" y="60"/>
      <point x="108" y="71"/>
      <point x="85" y="82" type="curve"/>
      <point x="72" y="89"/>
      <point x="62" y="96"/>
      <point x="53" y="105" type="curve"/>
      <point x="43" y="105" type="line"/>
      <point x="-3" y="45" type="line"/>
      <point x="9" y="34"/>
      <point x="24" y="25"/>
      <point x="41" y="17" type="curve" smooth="yes"/>
      <point x="72" y="2"/>
      <point x="118" y="-10"/>
    </contour>
  </outline>
</glyph>
<glyph name="four" format="2">
  <advance width="540"/>
  <unicode hex="0034"/>
  <outline>
    <contour>
      <point x="315" y="0" type="line" name="n00"/>
      <point x="415" y="0" type="line"/>
      <point x="444" y="170" type="line" name="n02"/>
      <point x="524" y="170" type="line"/>
      <point x="537" y="240" type="line"/>
      <point x="457" y="240" type="line" name="n05"/>
      <point x="538" y="700" type="line" name="n06"/>
      <point x="438" y="700" type="line"/>
      <point x="27" y="240" type="line"/>
      <point x="14" y="170" type="line" name="n09"/>
      <point x="344" y="170" type="line"/>
    </contour>
    <contour>
      <point x="137" y="240" type="line"/>
      <point x="368" y="500" type="line" smooth="yes"/>
      <point x="379" y="512"/>
      <point x="390" y="529"/>
      <point x="401" y="544" type="curve"/>
      <point x="419" y="570" type="line"/>
      <point x="423" y="570" type="line"/>
      <point x="414" y="544" type="line" smooth="yes"/>
      <point x="409" y="529"/>
      <point x="406" y="512"/>
      <point x="403" y="500" type="curve"/>
      <point x="357" y="240" type="line"/>
    </contour>
  </outline>
</glyph>
<glyph name="five" format="2">
  <advance width="505"/>
  <unicode hex="0035"/>
  <outline>
    <contour>
      <point x="193" y="-10" type="curve" smooth="yes" name="n00"/>
      <point x="360" y="-10"/>
      <point x="452" y="69"/>
      <point x="477" y="210" type="curve" smooth="yes"/>
      <point x="501" y="351"/>
      <point x="436" y="430"/>
      <point x="275" y="430" type="curve" smooth="yes"/>
      <point x="210" y="430" type="line" name="n07"/>
      <point x="246" y="630" type="line"/>
      <point x="525" y="630" type="line" name="n09"/>
      <point x="537" y="700" type="line" name="n10"/>
      <point x="158" y="700" type="line"/>
      <point x="103" y="390" type="line"/>
      <point x="128" y="360" type="line"/>
      <point x="248" y="360" type="line" smooth="yes" name="n14"/>
      <point x="353" y="360"/>
      <point x="394" y="310"/>
      <point x="377" y="210" type="curve" smooth="yes"/>
      <point x="359" y="110"/>
      <point x="298" y="60"/>
      <point x="195" y="60" type="curve" smooth="yes" name="n20"/>
      <point x="150" y="60"/>
      <point x="118" y="71"/>
      <point x="95" y="82" type="curve"/>
      <point x="82" y="89"/>
      <point x="72" y="96"/>
      <point x="63" y="105" type="curve"/>
      <point x="53" y="105" type="line"/>
      <point x="7" y="45" type="line"/>
      <point x="19" y="34"/>
      <point x="34" y="25"/>
      <point x="51" y="17" type="curve" smooth="yes"/>
      <point x="82" y="2"/>
      <point x="128" y="-10"/>
    </contour>
  </outline>
</glyph>
<glyph name="six" format="2">
  <advance width="535"/>
  <unicode hex="0036"/>
  <outline>
    <contour>
      <point x="254" y="-10" type="curve" smooth="yes" name="n00"/>
      <point x="389" y="-10"/>
      <point x="482" y="69"/>
      <point x="510" y="230" type="curve" smooth="yes"/>
      <point x="535" y="371"/>
      <point x="470" y="450"/>
      <point x="339" y="450" type="curve" smooth="yes" name="n06"/>
      <point x="299" y="450"/>
      <point x="264" y="441"/>
      <point x="240" y="430" type="curve" smooth="yes"/>
      <point x="226" y="424"/>
      <point x="213" y="417"/>
      <point x="202" y="410" type="curve"/>
      <point x="231" y="581"/>
      <point x="303" y="640"/>
      <point x="387" y="640" type="curve" smooth="yes" name="n15"/>
      <point x="424" y="640"/>
      <point x="454" y="628"/>
      <point x="474" y="617" type="curve" smooth="yes"/>
      <point x="486" y="610"/>
      <point x="496" y="603"/>
      <point x="504" y="595" type="curve"/>
      <point x="514" y="595" type="line"/>
      <point x="560" y="655" type="line"/>
      <point x="549" y="665"/>
      <point x="535" y="674"/>
      <point x="518" y="682" type="curve"/>
      <point x="490" y="697"/>
      <point x="447" y="710"/>
      <point x="390" y="710" type="curve" smooth="yes" name="n29"/>
      <point x="245" y="710"/>
      <point x="139" y="619"/>
      <point x="102" y="410" type="curve" smooth="yes"/>
      <point x="70" y="230" type="line" smooth="yes"/>
      <point x="42" y="69"/>
      <point x="107" y="-10"/>
    </contour>
    <contour>
      <point x="265" y="60" type="curve" smooth="yes" name="n36"/>
      <point x="190" y="60"/>
      <point x="149" y="110"/>
      <point x="170" y="230" type="curve" smooth="yes"/>
      <point x="189" y="340" type="line"/>
      <point x="199" y="347"/>
      <point x="210" y="354"/>
      <point x="222" y="360" type="curve" smooth="yes"/>
      <point x="243" y="371"/>
      <point x="272" y="380"/>
      <point x="307" y="380" type="curve" smooth="yes" name="n46"/>
      <point x="387" y="380"/>
      <point x="429" y="330"/>
      <point x="410" y="230" type="curve"/>
      <point x="389" y="110"/>
      <point x="330" y="60"/>
    </contour>
  </outline>
</glyph>
<glyph name="seven" format="2">
  <advance width="440"/>
  <unicode hex="0037"/>
  <outline>
    <contour>
      <point x="115" y="0" type="line" name="n00"/>
      <point x="215" y="0" type="line"/>
      <point x="230" y="90" type="line" smooth="yes"/>
      <point x="270" y="319"/>
      <point x="407" y="521"/>
      <point x="516" y="630" type="curve" name="n05"/>
      <point x="528" y="700" type="line" name="n06"/>
      <point x="98" y="700" type="line"/>
      <point x="86" y="630" type="line" name="n08"/>
      <point x="406" y="630" type="line"/>
      <point x="297" y="521"/>
      <point x="170" y="319"/>
      <point x="130" y="90" type="curve" smooth="yes"/>
    </contour>
  </outline>
</glyph>
<glyph name="eight" format="2">
  <advance width="560"/>
  <unicode hex="0038"/>
  <outline>
    <contour>
      <point x="253" y="-10" type="curve" smooth="yes" name="n00"/>
      <point x="402" y="-10"/>
      <point x="510" y="80"/>
      <point x="526" y="180" type="curve" smooth="yes"/>
      <point x="539" y="257"/>
      <point x="510" y="305"/>
      <point x="476" y="333" type="curve" smooth="yes"/>
      <point x="456" y="350"/>
      <point x="432" y="362"/>
      <point x="405" y="370" type="curve"/>
      <point x="429" y="378"/>
      <point x="452" y="389"/>
      <point x="473" y="404" type="curve" smooth="yes"/>
      <point x="509" y="429"/>
      <point x="547" y="470"/>
      <point x="559" y="535" type="curve"/>
      <point x="575" y="630"/>
      <point x="512" y="710"/>
      <point x="380" y="710" type="curve" smooth="yes" name="n18"/>
      <point x="251" y="710"/>
      <point x="155" y="630"/>
      <point x="139" y="535" type="curve"/>
      <point x="127" y="470"/>
      <point x="151" y="429"/>
      <point x="178" y="404" type="curve" smooth="yes"/>
      <point x="194" y="389"/>
      <point x="213" y="378"/>
      <point x="235" y="370" type="curve"/>
      <point x="205" y="362"/>
      <point x="177" y="350"/>
      <point x="151" y="333" type="curve" smooth="yes"/>
      <point x="107" y="305"/>
      <point x="61" y="257"/>
      <point x="46" y="180" type="curve"/>
      <point x="30" y="80"/>
      <point x="102" y="-10"/>
    </contour>
    <contour>
      <point x="327" y="410" type="curve"/>
      <point x="270" y="429"/>
      <point x="226" y="466"/>
      <point x="239" y="535" type="curve" smooth="yes"/>
      <point x="250" y="591"/>
      <point x="307" y="640"/>
      <point x="367" y="640" type="curve" smooth="yes" name="n42"/>
      <point x="427" y="640"/>
      <point x="470" y="591"/>
      <point x="459" y="535" type="curve" smooth="yes"/>
      <point x="446" y="467"/>
      <point x="390" y="428"/>
    </contour>
    <contour>
      <point x="265" y="60" type="curve" smooth="yes" name="n48"/>
      <point x="174" y="60"/>
      <point x="134" y="109"/>
      <point x="146" y="180" type="curve" smooth="yes"/>
      <point x="159" y="260"/>
      <point x="233" y="301"/>
      <point x="313" y="330" type="curve"/>
      <point x="383" y="300"/>
      <point x="439" y="260"/>
      <point x="426" y="180" type="curve" smooth="yes"/>
      <point x="414" y="109"/>
      <point x="356" y="60"/>
    </contour>
  </outline>
</glyph>
<glyph name="nine" format="2">
  <advance width="535"/>
  <unicode hex="0039"/>
  <outline>
    <contour>
      <point x="218" y="-10" type="curve" smooth="yes" name="n00"/>
      <point x="363" y="-10"/>
      <point x="469" y="80"/>
      <point x="506" y="290" type="curve" smooth="yes"/>
      <point x="537" y="470" type="line"/>
      <point x="566" y="631"/>
      <point x="501" y="710"/>
      <point x="354" y="710" type="curve" smooth="yes" name="n07"/>
      <point x="219" y="710"/>
      <point x="126" y="631"/>
      <point x="97" y="470" type="curve"/>
      <point x="73" y="329"/>
      <point x="138" y="250"/>
      <point x="269" y="250" type="curve" smooth="yes" name="n13"/>
      <point x="309" y="250"/>
      <point x="343" y="259"/>
      <point x="367" y="270" type="curve" smooth="yes"/>
      <point x="381" y="276"/>
      <point x="394" y="283"/>
      <point x="406" y="290" type="curve"/>
      <point x="377" y="119"/>
      <point x="305" y="60"/>
      <point x="220" y="60" type="curve" smooth="yes" name="n22"/>
      <point x="181" y="60"/>
      <point x="153" y="71"/>
      <point x="133" y="82" type="curve" smooth="yes"/>
      <point x="121" y="89"/>
      <point x="111" y="96"/>
      <point x="103" y="105" type="curve"/>
      <point x="93" y="105" type="line"/>
      <point x="47" y="45" type="line"/>
      <point x="58" y="34"/>
      <point x="72" y="25"/>
      <point x="89" y="17" type="curve"/>
      <point x="117" y="2"/>
      <point x="159" y="-10"/>
    </contour>
    <contour>
      <point x="301" y="320" type="curve" smooth="yes" name="n36"/>
      <point x="221" y="320"/>
      <point x="180" y="370"/>
      <point x="197" y="470" type="curve" smooth="yes"/>
      <point x="218" y="590"/>
      <point x="277" y="640"/>
      <point x="342" y="640" type="curve" smooth="yes" name="n42"/>
      <point x="418" y="640"/>
      <point x="458" y="590"/>
      <point x="437" y="470" type="curve" smooth="yes"/>
      <point x="418" y="360" type="line"/>
      <point x="409" y="353"/>
      <point x="398" y="346"/>
      <point x="386" y="340" type="curve" smooth="yes"/>
      <point x="365" y="329"/>
      <point x="336" y="320"/>
    </contour>
  </outline>
</glyph>
<glyph name="colon" format="2">
  <advance width="200"/>
  <unicode hex="003A"/>
  <outline>
    <contour>
      <point x="94" y="450" type="curve" smooth="yes" name="n00"/>
      <point x="87" y="415"/>
      <point x="108" y="390"/>
      <point x="143" y="390" type="curve" smooth="yes"/>
      <point x="178" y="390"/>
      <point x="207" y="415"/>
      <point x="214" y="450" type="curve" smooth="yes" name="n06"/>
      <point x="221" y="485"/>
      <point x="199" y="510"/>
      <point x="164" y="510" type="curve" smooth="yes"/>
      <point x="129" y="510"/>
      <point x="101" y="485"/>
    </contour>
    <contour>
      <point x="23" y="50" type="curve" smooth="yes" name="n12"/>
      <point x="16" y="15"/>
      <point x="38" y="-10"/>
      <point x="73" y="-10" type="curve" smooth="yes"/>
      <point x="108" y="-10"/>
      <point x="136" y="15" name="n17"/>
      <point x="143" y="50" type="curve" smooth="yes" name="n18"/>
      <point x="150" y="85"/>
      <point x="129" y="110"/>
      <point x="94" y="110" type="curve" smooth="yes"/>
      <point x="59" y="110"/>
      <point x="30" y="85"/>
    </contour>
  </outline>
</glyph>
<glyph name="semicolon" format="2">
  <advance width="200"/>
  <unicode hex="003B"/>
  <outline>
    <contour>
      <point x="94" y="450" type="curve" smooth="yes" name="n00"/>
      <point x="87" y="415"/>
      <point x="108" y="390"/>
      <point x="143" y="390" type="curve" smooth="yes"/>
      <point x="178" y="390"/>
      <point x="207" y="415"/>
      <point x="214" y="450" type="curve" smooth="yes" name="n06"/>
      <point x="221" y="485"/>
      <point x="199" y="510"/>
      <point x="164" y="510" type="curve" smooth="yes"/>
      <point x="129" y="510"/>
      <point x="101" y="485"/>
    </contour>
    <contour>
      <point x="23" y="50" type="curve" smooth="yes"/>
      <point x="16" y="15"/>
      <point x="37" y="-10" name="n14"/>
      <point x="68" y="-10" type="curve"/>
      <point x="64" y="-33"/>
      <point x="46" y="-53"/>
      <point x="30" y="-69" type="curve"/>
      <point x="20" y="-78"/>
      <point x="9" y="-87"/>
      <point x="-2" y="-95" type="curve"/>
      <point x="22" y="-130" type="line"/>
      <point x="41" y="-119"/>
      <point x="58" y="-105"/>
      <point x="74" y="-88" type="curve" smooth="yes"/>
      <point x="101" y="-60"/>
      <point x="131" y="-19"/>
      <point x="142" y="40" type="curve"/>
      <point x="149" y="85"/>
      <point x="129" y="110"/>
      <point x="89" y="110" type="curve" smooth="yes"/>
      <point x="58" y="110"/>
      <point x="30" y="85"/>
    </contour>
  </outline>
</glyph>
<glyph name="less" format="2">
  <advance width="470"/>
  <unicode hex="003C"/>
  <outline>
    <contour>
      <point x="405" y="0" type="line" name="n00"/>
      <point x="421" y="95" type="line"/>
      <point x="169" y="250" type="line"/>
      <point x="476" y="405" type="line"/>
      <point x="493" y="500" type="line" name="n04"/>
      <point x="65" y="285" type="line"/>
      <point x="52" y="215" type="line" name="n06"/>
    </contour>
  </outline>
</glyph>
<glyph name="equal" format="2">
  <advance width="470"/>
  <unicode hex="003D"/>
  <outline>
    <contour>
      <point x="77" y="380" type="line" name="n00"/>
      <point x="477" y="380" type="line"/>
      <point x="491" y="460" type="line" name="n02"/>
      <point x="91" y="460" type="line" name="n03"/>
    </contour>
    <contour>
      <point x="45" y="200" type="line" name="n04"/>
      <point x="445" y="200" type="line"/>
      <point x="459" y="280" type="line"/>
      <point x="59" y="280" type="line" name="n07"/>
    </contour>
  </outline>
</glyph>
<glyph name="greater" format="2">
  <advance width="445"/>
  <unicode hex="003E"/>
  <outline>
    <contour>
      <point x="10" y="0" type="line" name="n00"/>
      <point x="437" y="215" type="line"/>
      <point x="450" y="285" type="line" name="n02"/>
      <point x="98" y="500" type="line" name="n03"/>
      <point x="81" y="405" type="line"/>
      <point x="334" y="250" type="line"/>
      <point x="26" y="95" type="line"/>
    </contour>
  </outline>
</glyph>
<glyph name="question" format="2">
  <advance width="460"/>
  <unicode hex="003F"/>
  <outline>
    <contour>
      <point x="142" y="180" type="line"/>
      <point x="232" y="180" type="line"/>
      <point x="239" y="220" type="line" smooth="yes"/>
      <point x="250.132" y="280.296"/>
      <point x="298.05" y="312.411"/>
      <point x="349.029" y="346.577" type="curve" smooth="yes"/>
      <point x="429.613" y="400.584"/>
      <point x="489.229" y="452.282"/>
      <point x="489.229" y="547.343" type="curve" smooth="yes" name="n08"/>
      <point x="489.229" y="647.115"/>
      <point x="423.557" y="710"/>
      <point x="292.597" y="710" type="curve" smooth="yes" name="n11"/>
      <point x="226.294" y="710"/>
      <point x="148.321" y="693.881"/>
      <point x="90" y="655" type="curve" name="n14"/>
      <point x="114" y="595" type="line"/>
      <point x="124" y="595" type="line"/>
      <point x="163.284" y="623.57"/>
      <point x="224.752" y="640"/>
      <point x="272" y="640" type="curve" smooth="yes" name="n19"/>
      <point x="348.091" y="640"/>
      <point x="389.724" y="599.932"/>
      <point x="389.724" y="543.121" type="curve" smooth="yes"/>
      <point x="389.724" y="476.056"/>
      <point x="331.703" y="430.326"/>
      <point x="278.606" y="391.458" type="curve" smooth="yes"/>
      <point x="223.66" y="351.236"/>
      <point x="165.719" y="308.822"/>
      <point x="149" y="220" type="curve" smooth="yes"/>
    </contour>
    <contour>
      <point x="102.703" y="38.8976" type="curve" smooth="yes"/>
      <point x="102.703" y="9.14063"/>
      <point x="123.375" y="-10" name="n31"/>
      <point x="154" y="-10" type="curve" smooth="yes" name="n32"/>
      <point x="193.719" y="-10"/>
      <point x="225.341" y="23.9714"/>
      <point x="225.341" y="61.3878" type="curve" smooth="yes"/>
      <point x="225.341" y="91.0414"/>
      <point x="205.479" y="110" name="hr01"/>
      <point x="175" y="110" type="curve" smooth="yes" name="n38"/>
      <point x="135.693" y="110"/>
      <point x="102.703" y="76.4889"/>
    </contour>
  </outline>
</glyph>
<glyph name="at" format="2">
  <advance width="930"/>
  <unicode hex="0040"/>
  <outline>
    <contour>
      <point x="408" y="-120" type="curve" smooth="yes" name="n00"/>
      <point x="479" y="-120"/>
      <point x="534" y="-108"/>
      <point x="573" y="-93" type="curve"/>
      <point x="596" y="-85"/>
      <point x="616" y="-76"/>
      <point x="633" y="-65" type="curve"/>
      <point x="609" y="-5" type="line"/>
      <point x="599" y="-5" type="line"/>
      <point x="585" y="-14"/>
      <point x="569" y="-21"/>
      <point x="552" y="-28" type="curve"/>
      <point x="521" y="-39"/>
      <point x="482" y="-50"/>
      <point x="431" y="-50" type="curve" smooth="yes" name="n14"/>
      <point x="241" y="-50"/>
      <point x="125" y="89"/>
      <point x="162" y="300" type="curve" smooth="yes"/>
      <point x="199" y="511"/>
      <point x="364" y="650"/>
      <point x="554" y="650" type="curve" smooth="yes" name="n20"/>
      <point x="743" y="650"/>
      <point x="859" y="511"/>
      <point x="822" y="300" type="curve" smooth="yes"/>
      <point x="798" y="164"/>
      <point x="737" y="120"/>
      <point x="691" y="120" type="curve" smooth="yes" name="n26"/>
      <point x="678" y="120"/>
      <point x="668" y="125"/>
      <point x="661" y="130" type="curve" smooth="yes" name="hr01"/>
      <point x="657" y="133"/>
      <point x="653" y="136"/>
      <point x="649" y="140" type="curve"/>
      <point x="717" y="525" type="line"/>
      <point x="647" y="525" type="line"/>
      <point x="627" y="470" type="line"/>
      <point x="622" y="470" type="line"/>
      <point x="615" y="482"/>
      <point x="606" y="493"/>
      <point x="595" y="502" type="curve" smooth="yes"/>
      <point x="576" y="518"/>
      <point x="547" y="535"/>
      <point x="504" y="535" type="curve" smooth="yes" name="n42"/>
      <point x="403" y="535"/>
      <point x="316" y="459"/>
      <point x="287" y="295" type="curve" smooth="yes"/>
      <point x="258" y="131"/>
      <point x="318" y="55"/>
      <point x="419" y="55" type="curve" smooth="yes" name="n48"/>
      <point x="459" y="55"/>
      <point x="494" y="67"/>
      <point x="519" y="82" type="curve"/>
      <point x="534" y="90"/>
      <point x="547" y="99"/>
      <point x="559" y="110" type="curve"/>
      <point x="564" y="110" type="line"/>
      <point x="569" y="99"/>
      <point x="578" y="90"/>
      <point x="589" y="82" type="curve"/>
      <point x="608" y="67"/>
      <point x="638" y="55"/>
      <point x="689" y="55" type="curve" smooth="yes" name="n61"/>
      <point x="789" y="55"/>
      <point x="883" y="135"/>
      <point x="912" y="300" type="curve" smooth="yes"/>
      <point x="955" y="540"/>
      <point x="807" y="720"/>
      <point x="566" y="720" type="curve" smooth="yes" name="n67"/>
      <point x="326" y="720"/>
      <point x="115" y="540"/>
      <point x="72" y="300" type="curve" smooth="yes"/>
      <point x="29" y="60"/>
      <point x="178" y="-120"/>
    </contour>
    <contour>
      <point x="457" y="130" type="curve" smooth="yes" name="n73"/>
      <point x="401" y="130"/>
      <point x="366" y="175"/>
      <point x="387" y="295" type="curve" smooth="yes"/>
      <point x="408" y="415"/>
      <point x="461" y="460"/>
      <point x="516" y="460" type="curve" smooth="yes" name="n79"/>
      <point x="541" y="460"/>
      <point x="560" y="447"/>
      <point x="575" y="432" type="curve" smooth="yes"/>
      <point x="583" y="424"/>
      <point x="590" y="415"/>
      <point x="596" y="405" type="curve"/>
      <point x="555" y="175" type="line"/>
      <point x="546" y="166"/>
      <point x="536" y="159"/>
      <point x="525" y="152" type="curve"/>
      <point x="506" y="141"/>
      <point x="482" y="130"/>
    </contour>
  </outline>
</glyph>
<glyph name="B" format="2">
  <advance width="575"/>
  <unicode hex="0042"/>
  <outline>
    <contour>
      <point x="65" y="0" type="line"/>
      <point x="255" y="0" type="line" smooth="yes" name="n01"/>
      <point x="424" y="0"/>
      <point x="513" y="75"/>
      <point x="533" y="190" type="curve" smooth="yes"/>
      <point x="546" y="267"/>
      <point x="518" y="311"/>
      <point x="489" y="338" type="curve"/>
      <point x="472" y="353"/>
      <point x="450" y="364"/>
      <point x="425" y="370" type="curve"/>
      <point x="447" y="376"/>
      <point x="468" y="386"/>
      <point x="487" y="399" type="curve" smooth="yes"/>
      <point x="520" y="422"/>
      <point x="555" y="460"/>
      <point x="567" y="525" type="curve" smooth="yes"/>
      <point x="586" y="625"/>
      <point x="522" y="700"/>
      <point x="378" y="700" type="curve" smooth="yes" name="n19"/>
      <point x="188" y="700" type="line"/>
    </contour>
    <contour>
      <point x="235" y="400" type="line" name="n21"/>
      <point x="276" y="630" type="line"/>
      <point x="366" y="630" type="line" smooth="yes" name="n23"/>
      <point x="442" y="630"/>
      <point x="478" y="586"/>
      <point x="465" y="515" type="curve" smooth="yes"/>
      <point x="453" y="444"/>
      <point x="401" y="400"/>
      <point x="325" y="400" type="curve" smooth="yes"/>
    </contour>
    <contour>
      <point x="177" y="70" type="line"/>
      <point x="223" y="330" type="line" name="n31"/>
      <point x="313" y="330" type="line" smooth="yes"/>
      <point x="413" y="330"/>
      <point x="450" y="285"/>
      <point x="435" y="200" type="curve" smooth="yes"/>
      <point x="420" y="115"/>
      <point x="367" y="70"/>
      <point x="267" y="70" type="curve" smooth="yes" name="n38"/>
    </contour>
  </outline>
</glyph>
<glyph name="D" format="2">
  <advance width="585"/>
  <unicode hex="0044"/>
  <outline>
    <contour>
      <point x="65" y="0" type="line"/>
      <point x="215" y="0" type="line" smooth="yes" name="n01"/>
      <point x="405" y="0"/>
      <point x="521" y="99"/>
      <point x="566" y="350" type="curve"/>
      <point x="609" y="601"/>
      <point x="529" y="700"/>
      <point x="338" y="700" type="curve" smooth="yes" name="n07"/>
      <point x="188" y="700" type="line"/>
    </contour>
    <contour>
      <point x="177" y="70" type="line" name="n09"/>
      <point x="276" y="630" type="line"/>
      <point x="326" y="630" type="line" smooth="yes" name="n11"/>
      <point x="445" y="630"/>
      <point x="503" y="561"/>
      <point x="466" y="350" type="curve" smooth="yes"/>
      <point x="429" y="139"/>
      <point x="348" y="70"/>
      <point x="227" y="70" type="curve" smooth="yes"/>
    </contour>
  </outline>
</glyph>
<glyph name="F" format="2">
  <advance width="500"/>
  <unicode hex="0046"/>
  <outline>
    <contour>
      <point x="65" y="0" type="line" name="n00"/>
      <point x="165" y="0" type="line"/>
      <point x="221" y="320" type="line" name="n02"/>
      <point x="451" y="320" type="line"/>
      <point x="463" y="390" type="line"/>
      <point x="233" y="390" type="line" name="n05"/>
      <point x="276" y="630" type="line"/>
      <point x="566" y="630" type="line" name="n07"/>
      <point x="578" y="700" type="line" name="n08"/>
      <point x="188" y="700" type="line"/>
    </contour>
  </outline>
</glyph>
<glyph name="G" format="2">
  <advance width="565"/>
  <unicode hex="0047"/>
  <outline>
    <contour>
      <point x="291.678" y="-10" type="curve" smooth="yes" name="n00"/>
      <point x="352.872" y="-10"/>
      <point x="427.551" y="7.56611"/>
      <point x="482" y="45" type="curve"/>
      <point x="536" y="350" type="line"/>
      <point x="512" y="380" type="line"/>
      <point x="327" y="380" type="line" name="n06"/>
      <point x="314" y="310" type="line" name="n07"/>
      <point x="429" y="310" type="line"/>
      <point x="389" y="80" type="line"/>
      <point x="390" y="80"/>
      <point x="349.013" y="60"/>
      <point x="301.414" y="60" type="curve" smooth="yes" name="n12"/>
      <point x="231.567" y="60"/>
      <point x="178.352" y="103.065"/>
      <point x="178.352" y="234.668" type="curve" smooth="yes" name="n15"/>
      <point x="178.352" y="367.087"/>
      <point x="232.229" y="640"/>
      <point x="402" y="640" type="curve" smooth="yes" name="n18"/>
      <point x="443.812" y="640"/>
      <point x="483.126" y="622.444"/>
      <point x="514" y="595" type="curve"/>
      <point x="524" y="595" type="line"/>
      <point x="570" y="655" type="line"/>
      <point x="527.058" y="694.038"/>
      <point x="461.231" y="710"/>
      <point x="405" y="710" type="curve" smooth="yes" name="n26"/>
      <point x="173.516" y="710"/>
      <point x="79.6835" y="428.882"/>
      <point x="79.6835" y="242.735" type="curve" smooth="yes" name="n29"/>
      <point x="79.6835" y="64.9474"/>
      <point x="165.277" y="-10"/>
    </contour>
  </outline>
</glyph>
<glyph name="I" format="2">
  <advance width="280"/>
  <unicode hex="0049"/>
  <anchor x="165" y="0" name="b.uni0328_1"/>
  <anchor x="237" y="700" name="m.gravecomb_2"/>
  <anchor x="114" y="0" name="m.uni0326"/>
  <outline>
    <contour>
      <point x="65" y="0" type="line" name="n00"/>
      <point x="165" y="0" type="line"/>
      <point x="288" y="700" type="line" name="n02"/>
      <point x="188" y="700" type="line"/>
    </contour>
  </outline>
</glyph>
<glyph name="L" format="2">
  <advance width="490"/>
  <unicode hex="004C"/>
  <outline>
    <contour>
      <point x="65" y="0" type="line" name="n00"/>
      <point x="455" y="0" type="line" name="n01"/>
      <point x="467" y="70" type="line" name="n02"/>
      <point x="177" y="70" type="line"/>
      <point x="288" y="700" type="line" name="n04"/>
      <point x="188" y="700" type="line"/>
    </contour>
  </outline>
</glyph>
<glyph name="N" format="2">
  <advance width="630"/>
  <unicode hex="004E"/>
  <outline>
    <contour>
      <point x="65" y="0" type="line" name="n00"/>
      <point x="165" y="0" type="line"/>
      <point x="243" y="445" type="line" smooth="yes"/>
      <point x="246" y="460"/>
      <point x="247" y="480"/>
      <point x="250" y="499" type="curve"/>
      <point x="250.672" y="504.207"/>
      <point x="253.335" y="524.845"/>
      <point x="254" y="530" type="curve"/>
      <point x="258" y="530" type="line"/>
      <point x="259" y="519"/>
      <point x="260" y="509"/>
      <point x="262" y="499" type="curve"/>
      <point x="265" y="480"/>
      <point x="268" y="460"/>
      <point x="273" y="445" type="curve"/>
      <point x="405" y="0" type="line"/>
      <point x="515" y="0" type="line"/>
      <point x="638" y="700" type="line" name="n18"/>
      <point x="538" y="700" type="line"/>
      <point x="459" y="255" type="line" smooth="yes"/>
      <point x="456" y="240"/>
      <point x="455" y="218"/>
      <point x="452" y="201" type="curve"/>
      <point x="451.328" y="195.793"/>
      <point x="448.665" y="175.155"/>
      <point x="448" y="170" type="curve"/>
      <point x="444" y="170" type="line"/>
      <point x="443" y="180"/>
      <point x="442" y="190"/>
      <point x="440" y="201" type="curve" smooth="yes"/>
      <point x="437" y="218"/>
      <point x="433" y="240"/>
      <point x="429" y="255" type="curve" smooth="yes"/>
      <point x="298" y="700" type="line"/>
      <point x="188" y="700" type="line"/>
    </contour>
  </outline>
</glyph>
<glyph name="O" format="2">
  <advance width="600"/>
  <unicode hex="004F"/>
  <outline>
    <contour>
      <point x="270.735" y="-10" type="curve" smooth="yes" name="n00"/>
      <point x="513.12" y="-10"/>
      <point x="593.432" y="280.472"/>
      <point x="593.432" y="479.584" type="curve" smooth="yes" name="n03"/>
      <point x="593.432" y="643.934"/>
      <point x="517.857" y="710"/>
      <point x="401.892" y="710" type="curve" smooth="yes" name="n06"/>
      <point x="159.334" y="710"/>
      <point x="78.6592" y="420.966"/>
      <point x="78.6592" y="221.219" type="curve" smooth="yes" name="n09"/>
      <point x="78.6592" y="56.2807"/>
      <point x="154.951" y="-10"/>
    </contour>
    <contour>
      <point x="285" y="60" type="curve" smooth="yes" name="n12"/>
      <point x="226.713" y="60"/>
      <point x="178.089" y="102.279"/>
      <point x="178.089" y="224.388" type="curve" smooth="yes" name="n15"/>
      <point x="178.089" y="352.792"/>
      <point x="232.848" y="640"/>
      <point x="385.252" y="640" type="curve" smooth="yes" name="n18"/>
      <point x="443.999" y="640"/>
      <point x="493.683" y="597.323"/>
      <point x="493.683" y="475.107" type="curve" smooth="yes" name="n21"/>
      <point x="493.683" y="346.031"/>
      <point x="438.265" y="60"/>
    </contour>
  </outline>
</glyph>
<glyph name="P" format="2">
  <advance width="565"/>
  <unicode hex="0050"/>
  <outline>
    <contour>
      <point x="65" y="0" type="line" name="n00"/>
      <point x="165" y="0" type="line"/>
      <point x="207" y="240" type="line" name="n02"/>
      <point x="287" y="240" type="line" smooth="yes"/>
      <point x="458" y="240"/>
      <point x="550" y="319"/>
      <point x="577" y="470" type="curve" smooth="yes"/>
      <point x="604" y="621"/>
      <point x="539" y="700"/>
      <point x="368" y="700" type="curve" smooth="yes" name="n09"/>
      <point x="188" y="700" type="line"/>
    </contour>
    <contour>
      <point x="219" y="310" type="line" name="n11"/>
      <point x="276" y="630" type="line"/>
      <point x="356" y="630" type="line" smooth="yes" name="n13"/>
      <point x="456" y="630"/>
      <point x="497" y="581"/>
      <point x="477" y="470" type="curve" smooth="yes"/>
      <point x="458" y="359"/>
      <point x="399" y="310"/>
      <point x="299" y="310" type="curve" smooth="yes"/>
    </contour>
  </outline>
</glyph>
<glyph name="Q" format="2">
  <advance width="600"/>
  <unicode hex="0051"/>
  <outline>
    <contour>
      <point x="352" y="-155" type="curve" smooth="yes" name="n00"/>
      <point x="372" y="-155"/>
      <point x="391" y="-152"/>
      <point x="406" y="-148" type="curve"/>
      <point x="410.531" y="-146.49"/>
      <point x="426.149" y="-141.284"/>
      <point x="430" y="-140" type="curve"/>
      <point x="421" y="-75" type="line"/>
      <point x="411" y="-75" type="line"/>
      <point x="409.081" y="-75.8722"/>
      <point x="401.683" y="-79.235"/>
      <point x="400" y="-80" type="curve"/>
      <point x="392" y="-83"/>
      <point x="384" y="-85"/>
      <point x="375" y="-85" type="curve" smooth="yes" name="n14"/>
      <point x="335" y="-85"/>
      <point x="313" y="-61"/>
      <point x="324" y="-5" type="curve" name="n17"/>
      <point x="441" y="14"/>
      <point x="541" y="122"/>
      <point x="581" y="350" type="curve" smooth="yes"/>
      <point x="626" y="610"/>
      <point x="545" y="710"/>
      <point x="400" y="710" type="curve" smooth="yes" name="n23"/>
      <point x="255" y="710"/>
      <point x="136" y="610"/>
      <point x="91" y="350" type="curve" smooth="yes"/>
      <point x="51" y="121"/>
      <point x="112" y="14"/>
      <point x="224" y="-5" type="curve"/>
      <point x="208" y="-96"/>
      <point x="256" y="-155"/>
    </contour>
    <contour>
      <point x="285" y="60" type="curve" smooth="yes"/>
      <point x="210" y="60"/>
      <point x="151" y="130"/>
      <point x="191" y="350" type="curve" smooth="yes"/>
      <point x="231" y="570"/>
      <point x="311" y="640"/>
      <point x="387" y="640" type="curve" smooth="yes" name="n38"/>
      <point x="460" y="640"/>
      <point x="521" y="570"/>
      <point x="481" y="350" type="curve" smooth="yes"/>
      <point x="441" y="130"/>
      <point x="360" y="60"/>
    </contour>
  </outline>
</glyph>
<glyph name="R" format="2">
  <advance width="575"/>
  <unicode hex="0052"/>
  <outline>
    <contour>
      <point x="65" y="0" type="line" name="n00"/>
      <point x="165" y="0" type="line"/>
      <point x="210" y="260" type="line"/>
      <point x="290" y="260" type="line" name="n03"/>
      <point x="400" y="0" type="line"/>
      <point x="515" y="0" type="line"/>
      <point x="396" y="275" type="line"/>
      <point x="515.759" y="312.039"/>
      <point x="574.166" y="414.258"/>
      <point x="574.166" y="534.496" type="curve" smooth="yes" name="n09"/>
      <point x="574.166" y="641.193"/>
      <point x="505.536" y="700"/>
      <point x="358" y="700" type="curve" smooth="yes" name="n12"/>
      <point x="188" y="700" type="line"/>
    </contour>
    <contour>
      <point x="223" y="330" type="line"/>
      <point x="276" y="630" type="line"/>
      <point x="346" y="630" type="line" smooth="yes" name="n16"/>
      <point x="430.746" y="630"/>
      <point x="473.119" y="594.091"/>
      <point x="473.119" y="522.272" type="curve" smooth="yes" name="n19"/>
      <point x="473.119" y="409.536"/>
      <point x="412.689" y="330"/>
      <point x="293" y="330" type="curve" smooth="yes" name="n22"/>
    </contour>
  </outline>
</glyph>
<glyph name="U" format="2">
  <advance width="620"/>
  <unicode hex="0055"/>
  <outline>
    <contour>
      <point x="283" y="-10" type="curve" smooth="yes" name="n00"/>
      <point x="428" y="-10"/>
      <point x="521" y="69"/>
      <point x="548" y="220" type="curve" smooth="yes"/>
      <point x="633" y="700" type="line" name="n04"/>
      <point x="533" y="700" type="line"/>
      <point x="448" y="220" type="line" smooth="yes"/>
      <point x="429" y="109"/>
      <point x="371" y="60"/>
      <point x="295" y="60" type="curve" smooth="yes" name="n09"/>
      <point x="219" y="60"/>
      <point x="179" y="109"/>
      <point x="198" y="220" type="curve" smooth="yes"/>
      <point x="283" y="700" type="line"/>
      <point x="183" y="700" type="line"/>
      <point x="98" y="220" type="line" smooth="yes"/>
      <point x="71" y="69"/>
      <point x="138" y="-10"/>
    </contour>
  </outline>
</glyph>
<glyph name="V" format="2">
  <advance width="550"/>
  <unicode hex="0056"/>
  <outline>
    <contour>
      <point x="185" y="0" type="line" name="n00"/>
      <point x="315" y="0" type="line" name="n01"/>
      <point x="633" y="700" type="line" name="n02"/>
      <point x="533" y="700" type="line"/>
      <point x="295" y="175" type="line" smooth="yes"/>
      <point x="288" y="160"/>
      <point x="283" y="144"/>
      <point x="278" y="129" type="curve" smooth="yes"/>
      <point x="270" y="105" type="line" name="n08"/>
      <point x="266" y="105" type="line"/>
      <point x="267" y="113"/>
      <point x="267" y="121"/>
      <point x="267" y="129" type="curve" smooth="yes"/>
      <point x="267" y="144"/>
      <point x="266" y="160"/>
      <point x="265" y="175" type="curve"/>
      <point x="213" y="700" type="line"/>
      <point x="113" y="700" type="line" name="n17"/>
    </contour>
  </outline>
</glyph>
<glyph name="W" format="2">
  <advance width="860"/>
  <unicode hex="0057"/>
  <outline>
    <contour>
      <point x="155" y="0" type="line" name="n00"/>
      <point x="275" y="0" type="line" name="n01"/>
      <point x="476" y="490" type="line"/>
      <point x="483" y="505"/>
      <point x="489" y="525"/>
      <point x="494" y="541" type="curve" smooth="yes"/>
      <point x="495.437" y="545.631"/>
      <point x="501.479" y="565.098"/>
      <point x="503" y="570" type="curve" name="n08"/>
      <point x="507" y="570" type="line"/>
      <point x="506" y="560"/>
      <point x="506" y="550"/>
      <point x="506" y="541" type="curve"/>
      <point x="505" y="524"/>
      <point x="505" y="507"/>
      <point x="506" y="490" type="curve" smooth="yes"/>
      <point x="535" y="0" type="line"/>
      <point x="655" y="0" type="line"/>
      <point x="943" y="700" type="line" name="n18"/>
      <point x="843" y="700" type="line"/>
      <point x="642" y="210" type="line"/>
      <point x="635" y="195"/>
      <point x="630" y="175"/>
      <point x="625" y="159" type="curve"/>
      <point x="623.652" y="154.115"/>
      <point x="618.309" y="134.745"/>
      <point x="617" y="130" type="curve" name="hr01"/>
      <point x="613" y="130" type="line"/>
      <point x="615" y="159" type="line" smooth="yes"/>
      <point x="616" y="175"/>
      <point x="617" y="195"/>
      <point x="617" y="210" type="curve"/>
      <point x="588" y="700" type="line"/>
      <point x="468" y="700" type="line" name="n33"/>
      <point x="267" y="210" type="line"/>
      <point x="260" y="195"/>
      <point x="254" y="175"/>
      <point x="249" y="159" type="curve"/>
      <point x="247.652" y="154.115"/>
      <point x="242.309" y="134.745"/>
      <point x="241" y="130" type="curve" name="n40"/>
      <point x="237" y="130" type="line"/>
      <point x="240" y="159" type="line"/>
      <point x="241" y="175"/>
      <point x="242" y="195"/>
      <point x="242" y="210" type="curve"/>
      <point x="213" y="700" type="line"/>
      <point x="113" y="700" type="line"/>
    </contour>
  </outline>
</glyph>
<glyph name="Y" format="2">
  <advance width="530"/>
  <unicode hex="0059"/>
  <outline>
    <contour>
      <point x="190" y="0" type="line" name="n00"/>
      <point x="290" y="0" type="line"/>
      <point x="330" y="230" type="line"/>
      <point x="628" y="700" type="line" name="n03"/>
      <point x="523" y="700" type="line"/>
      <point x="329" y="395" type="line" smooth="yes"/>
      <point x="321" y="382"/>
      <point x="314" y="369"/>
      <point x="309" y="356" type="curve" smooth="yes"/>
      <point x="307.563" y="352.229"/>
      <point x="302.256" y="338.298"/>
      <point x="301" y="335" type="curve"/>
      <point x="297" y="335" type="line"/>
      <point x="297" y="342"/>
      <point x="297" y="349"/>
      <point x="296" y="356" type="curve"/>
      <point x="295" y="368"/>
      <point x="292" y="382"/>
      <point x="289" y="395" type="curve"/>
      <point x="203" y="700" type="line"/>
      <point x="98" y="700" type="line" name="n20"/>
      <point x="230" y="230" type="line"/>
    </contour>
  </outline>
</glyph>
<glyph name="Z" format="2">
  <advance width="485"/>
  <unicode hex="005A"/>
  <outline>
    <contour>
      <point x="0" y="0" type="line" name="n00"/>
      <point x="435" y="0" type="line" name="n01"/>
      <point x="447" y="70" type="line" name="n02"/>
      <point x="132" y="70" type="line"/>
      <point x="540" y="625" type="line"/>
      <point x="553" y="700" type="line" name="n05"/>
      <point x="123" y="700" type="line" name="n06"/>
      <point x="111" y="630" type="line" name="n07"/>
      <point x="421" y="630" type="line"/>
      <point x="13" y="75" type="line"/>
    </contour>
  </outline>
</glyph>
<glyph name="bracketleft" format="2">
  <advance width="310"/>
  <unicode hex="005B"/>
  <outline>
    <contour>
      <point x="235" y="-170" type="line" name="n00"/>
      <point x="247" y="-100" type="line" name="n01"/>
      <point x="147" y="-100" type="line"/>
      <point x="281" y="660" type="line"/>
      <point x="381" y="660" type="line" name="n04"/>
      <point x="393" y="730" type="line" name="n05"/>
      <point x="193" y="730" type="line"/>
      <point x="35" y="-170" type="line" name="n07"/>
    </contour>
  </outline>
</glyph>
<glyph name="bracketright" format="2">
  <advance width="310"/>
  <unicode hex="005D"/>
  <outline>
    <contour>
      <point x="-23" y="-100" type="line" name="n00"/>
      <point x="-34" y="-170" type="line" name="n01"/>
      <point x="165" y="-170" type="line"/>
      <point x="323" y="730" type="line" name="n03"/>
      <point x="123" y="730" type="line" name="n04"/>
      <point x="111" y="660" type="line" name="n05"/>
      <point x="211" y="660" type="line"/>
      <point x="77" y="-100" type="line"/>
    </contour>
  </outline>
</glyph>
<glyph name="asciicircum" format="2">
  <advance width="430"/>
  <unicode hex="005E"/>
  <outline>
    <contour>
      <point x="52" y="440" type="line" name="n00"/>
      <point x="152" y="440" type="line"/>
      <point x="299" y="620" type="line"/>
      <point x="382" y="440" type="line" name="n03"/>
      <point x="482" y="440" type="line" name="n04"/>
      <point x="351" y="720" type="line" name="n05"/>
      <point x="281" y="720" type="line"/>
    </contour>
  </outline>
</glyph>
<glyph name="underscore" format="2">
  <advance width="380"/>
  <unicode hex="005F"/>
  <outline>
    <contour>
      <point x="-47" y="-130" type="line" name="n00"/>
      <point x="332" y="-130" type="line"/>
      <point x="346" y="-50" type="line" name="n02"/>
      <point x="-33" y="-50" type="line" name="n03"/>
    </contour>
  </outline>
</glyph>
<glyph name="grave" format="2">
  <advance width="175"/>
  <unicode hex="0060"/>
  <outline>
    <contour>
      <point x="171" y="550" type="line"/>
      <point x="236" y="550" type="line" name="n01"/>
      <point x="218" y="700" type="line" name="n02"/>
      <point x="108" y="700" type="line" name="n03"/>
    </contour>
  </outline>
</glyph>
<glyph name="a" format="2">
  <advance width="510"/>
  <unicode hex="0061"/>
  <outline>
    <contour>
      <point x="177.14" y="-10" type="curve" smooth="yes" name="n00"/>
      <point x="241.176" y="-10"/>
      <point x="301.964" y="15.0488"/>
      <point x="340" y="60" type="curve"/>
      <point x="345" y="60" type="line"/>
      <point x="345" y="0" type="line" name="n05"/>
      <point x="415" y="0" type="line"/>
      <point x="471" y="320" type="line" smooth="yes"/>
      <point x="473.176" y="332.6"/>
      <point x="474.237" y="344.806"/>
      <point x="474.237" y="356.543" type="curve" smooth="yes" name="n10"/>
      <point x="474.237" y="447.277"/>
      <point x="410.828" y="510"/>
      <point x="306.404" y="510" type="curve" smooth="yes" name="n13"/>
      <point x="246.566" y="510"/>
      <point x="186.606" y="489.404"/>
      <point x="135" y="455" type="curve"/>
      <point x="159" y="395" type="line"/>
      <point x="169" y="395" type="line"/>
      <point x="200.884" y="418.188"/>
      <point x="247.73" y="440"/>
      <point x="291.651" y="440" type="curve" smooth="yes" name="n21"/>
      <point x="341.754" y="440"/>
      <point x="374.511" y="411.616"/>
      <point x="374.511" y="354.848" type="curve" smooth="yes" name="n24"/>
      <point x="374.511" y="344.226"/>
      <point x="373.364" y="332.61"/>
      <point x="371" y="320" type="curve"/>
      <point x="367" y="295" type="line"/>
      <point x="287" y="295" type="line" smooth="yes" name="n29"/>
      <point x="162.364" y="295"/>
      <point x="41.74" y="251.802"/>
      <point x="41.74" y="119.672" type="curve" smooth="yes"/>
      <point x="41.74" y="34.8276"/>
      <point x="91.4758" y="-10" name="hr02"/>
    </contour>
    <contour>
      <point x="212.944" y="65" type="curve" smooth="yes" name="n35"/>
      <point x="168.926" y="65"/>
      <point x="143.216" y="86.8444"/>
      <point x="143.216" y="130.039" type="curve" smooth="yes"/>
      <point x="143.216" y="199.328"/>
      <point x="209.374" y="225"/>
      <point x="274" y="225" type="curve" smooth="yes" name="n41"/>
      <point x="354" y="225" type="line"/>
      <point x="337" y="125" type="line"/>
      <point x="305.589" y="96.2063"/>
      <point x="265.557" y="65"/>
    </contour>
  </outline>
</glyph>
<glyph name="b" format="2">
  <advance width="535"/>
  <unicode hex="0062"/>
  <outline>
    <contour>
      <point x="278" y="-10" type="curve" smooth="yes" name="n00"/>
      <point x="374" y="-10"/>
      <point x="472" y="75"/>
      <point x="504" y="250" type="curve"/>
      <point x="533" y="425"/>
      <point x="465" y="510"/>
      <point x="349" y="510" type="curve" smooth="yes" name="n06"/>
      <point x="318" y="510"/>
      <point x="290" y="502"/>
      <point x="269" y="495" type="curve"/>
      <point x="234" y="480" type="line"/>
      <point x="273" y="700" type="line" name="n11"/>
      <point x="203" y="700" type="line"/>
      <point x="168" y="670" type="line"/>
      <point x="50" y="0" type="line" name="n14"/>
      <point x="120" y="0" type="line"/>
      <point x="140" y="60" type="line"/>
      <point x="145" y="60" type="line"/>
      <point x="152" y="47"/>
      <point x="162" y="35"/>
      <point x="174" y="25" type="curve"/>
      <point x="195" y="6"/>
      <point x="227" y="-10" name="hr02"/>
    </contour>
    <contour>
      <point x="266" y="65" type="curve" smooth="yes" name="n23"/>
      <point x="235" y="65"/>
      <point x="212" y="80"/>
      <point x="196" y="95" type="curve"/>
      <point x="187" y="104"/>
      <point x="179" y="114"/>
      <point x="172" y="125" type="curve"/>
      <point x="224" y="420" type="line"/>
      <point x="232" y="424"/>
      <point x="241" y="427"/>
      <point x="252" y="430" type="curve" smooth="yes"/>
      <point x="271" y="435"/>
      <point x="294" y="440"/>
      <point x="322" y="440" type="curve" smooth="yes" name="n36"/>
      <point x="387" y="440"/>
      <point x="428" y="390"/>
      <point x="404" y="250" type="curve" smooth="yes"/>
      <point x="380" y="115"/>
      <point x="321" y="65"/>
    </contour>
  </outline>
</glyph>
<glyph name="c" format="2">
  <advance width="455"/>
  <unicode hex="0063"/>
  <outline>
    <contour>
      <point x="243" y="-10" type="curve" smooth="yes" name="n00"/>
      <point x="294" y="-10"/>
      <point x="336" y="2"/>
      <point x="367" y="17" type="curve"/>
      <point x="385" y="25"/>
      <point x="402" y="34"/>
      <point x="417" y="45" type="curve"/>
      <point x="393" y="105" type="line"/>
      <point x="383" y="105" type="line"/>
      <point x="371" y="96"/>
      <point x="359" y="89"/>
      <point x="346" y="82" type="curve"/>
      <point x="323" y="71"/>
      <point x="296" y="60"/>
      <point x="265" y="60" type="curve" smooth="yes" name="n14"/>
      <point x="184" y="60"/>
      <point x="145" y="110"/>
      <point x="169" y="250" type="curve" smooth="yes"/>
      <point x="193" y="390"/>
      <point x="252" y="440"/>
      <point x="322" y="440" type="curve" smooth="yes" name="n20"/>
      <point x="353" y="440"/>
      <point x="376" y="428"/>
      <point x="395" y="417" type="curve"/>
      <point x="406" y="410"/>
      <point x="415" y="403"/>
      <point x="424" y="395" type="curve"/>
      <point x="434" y="395" type="line"/>
      <point x="480" y="455" type="line"/>
      <point x="468" y="465"/>
      <point x="454" y="474"/>
      <point x="439" y="482" type="curve" smooth="yes"/>
      <point x="412" y="497"/>
      <point x="375" y="510"/>
      <point x="324" y="510" type="curve" smooth="yes" name="n34"/>
      <point x="199" y="510"/>
      <point x="100" y="426"/>
      <point x="69" y="250" type="curve" smooth="yes"/>
      <point x="38" y="74"/>
      <point x="107" y="-10"/>
    </contour>
  </outline>
</glyph>
<glyph name="d" format="2">
  <advance width="535"/>
  <unicode hex="0064"/>
  <outline>
    <contour>
      <point x="203" y="-10" type="curve" smooth="yes" name="n00"/>
      <point x="254" y="-10"/>
      <point x="292" y="6"/>
      <point x="319" y="25" type="curve"/>
      <point x="335" y="35"/>
      <point x="349" y="47"/>
      <point x="360" y="60" type="curve"/>
      <point x="365" y="60" type="line"/>
      <point x="365" y="0" type="line" name="n08"/>
      <point x="435" y="0" type="line"/>
      <point x="558" y="700" type="line" name="n10"/>
      <point x="488" y="700" type="line"/>
      <point x="453" y="670" type="line"/>
      <point x="419" y="480" type="line"/>
      <point x="414.577" y="482.211"/>
      <point x="394.294" y="492.353"/>
      <point x="389" y="495" type="curve"/>
      <point x="370" y="502"/>
      <point x="345" y="510"/>
      <point x="314" y="510" type="curve" smooth="yes" name="n19"/>
      <point x="199" y="510"/>
      <point x="98" y="425"/>
      <point x="69" y="250" type="curve"/>
      <point x="37" y="75"/>
      <point x="109" y="-10" name="hr02"/>
    </contour>
    <contour>
      <point x="241" y="65" type="curve" smooth="yes" name="n25"/>
      <point x="186" y="65"/>
      <point x="145" y="115"/>
      <point x="169" y="250" type="curve" smooth="yes"/>
      <point x="193" y="390"/>
      <point x="252" y="440"/>
      <point x="317" y="440" type="curve" smooth="yes" name="n31"/>
      <point x="344" y="440"/>
      <point x="368" y="435"/>
      <point x="384" y="430" type="curve" smooth="yes"/>
      <point x="393" y="427"/>
      <point x="402" y="424"/>
      <point x="409" y="420" type="curve"/>
      <point x="357" y="125" type="line"/>
      <point x="345" y="114"/>
      <point x="333" y="104"/>
      <point x="321" y="95" type="curve"/>
      <point x="298" y="80"/>
      <point x="272" y="65"/>
    </contour>
  </outline>
</glyph>
<glyph name="e" format="2">
  <advance width="505"/>
  <unicode hex="0065"/>
  <outline>
    <contour>
      <point x="243" y="-10" type="curve" smooth="yes" name="n00"/>
      <point x="294" y="-10"/>
      <point x="336" y="2"/>
      <point x="367" y="17" type="curve"/>
      <point x="385" y="25"/>
      <point x="402" y="34"/>
      <point x="417" y="45" type="curve"/>
      <point x="393" y="105" type="line"/>
      <point x="383" y="105" type="line"/>
      <point x="371" y="96"/>
      <point x="359" y="89"/>
      <point x="346" y="82" type="curve"/>
      <point x="323" y="71"/>
      <point x="296" y="60"/>
      <point x="265" y="60" type="curve" smooth="yes" name="n14"/>
      <point x="185" y="60"/>
      <point x="143" y="110"/>
      <point x="162" y="215" type="curve" name="n17"/>
      <point x="452" y="215" type="line"/>
      <point x="476" y="235" type="line"/>
      <point x="479" y="250" type="line"/>
      <point x="508" y="425"/>
      <point x="440" y="510"/>
      <point x="319" y="510" type="curve" smooth="yes" name="n23"/>
      <point x="199" y="510"/>
      <point x="98" y="425"/>
      <point x="69" y="250" type="curve"/>
      <point x="38" y="74"/>
      <point x="107" y="-10"/>
    </contour>
    <contour>
      <point x="175" y="285" type="line" name="n29"/>
      <point x="194" y="394"/>
      <point x="247" y="440"/>
      <point x="307" y="440" type="curve" smooth="yes" name="n32"/>
      <point x="367" y="440"/>
      <point x="404" y="396"/>
      <point x="385" y="285" type="curve"/>
    </contour>
  </outline>
</glyph>
<glyph name="f" format="2">
  <advance width="340"/>
  <unicode hex="0066"/>
  <outline>
    <contour>
      <point x="60" y="0" type="line" name="n00"/>
      <point x="160" y="0" type="line"/>
      <point x="235" y="430" type="line" name="n02"/>
      <point x="370" y="430" type="line"/>
      <point x="383" y="500" type="line"/>
      <point x="248" y="500" type="line" name="n05"/>
      <point x="256" y="550" type="line"/>
      <point x="267" y="610"/>
      <point x="302" y="640"/>
      <point x="347" y="640" type="curve" smooth="yes" name="n09"/>
      <point x="370" y="640"/>
      <point x="390" y="628"/>
      <point x="405" y="617" type="curve"/>
      <point x="414" y="610"/>
      <point x="422" y="603"/>
      <point x="429" y="595" type="curve"/>
      <point x="439" y="595" type="line"/>
      <point x="485" y="655" type="line" name="n17"/>
      <point x="474" y="665"/>
      <point x="462" y="674"/>
      <point x="449" y="682" type="curve"/>
      <point x="426" y="697"/>
      <point x="393" y="710"/>
      <point x="350" y="710" type="curve" smooth="yes" name="n23"/>
      <point x="250" y="710"/>
      <point x="172" y="646"/>
      <point x="156" y="550" type="curve" smooth="yes"/>
      <point x="148" y="500" type="line"/>
      <point x="83" y="500" type="line"/>
      <point x="70" y="430" type="line"/>
      <point x="135" y="430" type="line"/>
    </contour>
  </outline>
</glyph>
<glyph name="h" format="2">
  <advance width="545"/>
  <unicode hex="0068"/>
  <outline>
    <contour>
      <point x="50" y="0" type="line" name="n00"/>
      <point x="150" y="0" type="line"/>
      <point x="216" y="375" type="line"/>
      <point x="227" y="386"/>
      <point x="239" y="396"/>
      <point x="251" y="405" type="curve" smooth="yes"/>
      <point x="272" y="420"/>
      <point x="300" y="435"/>
      <point x="331" y="435" type="curve" smooth="yes" name="n08"/>
      <point x="387" y="435"/>
      <point x="420" y="396"/>
      <point x="409" y="340" type="curve"/>
      <point x="350" y="0" type="line"/>
      <point x="450" y="0" type="line"/>
      <point x="509" y="340" type="line"/>
      <point x="528" y="440"/>
      <point x="469" y="510"/>
      <point x="369" y="510" type="curve" smooth="yes" name="n17"/>
      <point x="326" y="510"/>
      <point x="292" y="497"/>
      <point x="268" y="485" type="curve" smooth="yes"/>
      <point x="254" y="478"/>
      <point x="242" y="469"/>
      <point x="231" y="460" type="curve"/>
      <point x="273" y="700" type="line" name="n24"/>
      <point x="203" y="700" type="line"/>
      <point x="168" y="670" type="line"/>
    </contour>
  </outline>
</glyph>
<glyph name="j" format="2">
  <advance width="250"/>
  <unicode hex="006A"/>
  <outline>
    <contour>
      <point x="202" y="580" type="curve" smooth="yes" name="n00"/>
      <point x="237" y="580"/>
      <point x="265" y="605"/>
      <point x="272" y="640" type="curve" smooth="yes"/>
      <point x="279" y="675"/>
      <point x="258" y="700"/>
      <point x="223" y="700" type="curve" smooth="yes" name="n06"/>
      <point x="188" y="700"/>
      <point x="159" y="675"/>
      <point x="152" y="640" type="curve" smooth="yes"/>
      <point x="145" y="605"/>
      <point x="167" y="580"/>
    </contour>
    <contour>
      <point x="-50" y="-200" type="curve" smooth="yes" name="n12"/>
      <point x="49" y="-200"/>
      <point x="126" y="-136"/>
      <point x="142" y="-40" type="curve"/>
      <point x="238" y="500" type="line" name="n16"/>
      <point x="138" y="500" type="line"/>
      <point x="42" y="-40" type="line" smooth="yes"/>
      <point x="31" y="-100"/>
      <point x="-3" y="-130"/>
      <point x="-47" y="-130" type="curve" smooth="yes" name="n21"/>
      <point x="-62" y="-130"/>
      <point x="-75" y="-125"/>
      <point x="-84" y="-118" type="curve"/>
      <point x="-89" y="-115"/>
      <point x="-94" y="-110"/>
      <point x="-98" y="-105" type="curve"/>
      <point x="-108" y="-105" type="line"/>
      <point x="-144" y="-170" type="line"/>
      <point x="-137" y="-176"/>
      <point x="-129" y="-181"/>
      <point x="-120" y="-185" type="curve"/>
      <point x="-104" y="-193"/>
      <point x="-81" y="-200"/>
    </contour>
  </outline>
</glyph>
<glyph name="l" format="2">
  <advance width="250"/>
  <unicode hex="006C"/>
  <outline>
    <contour>
      <point x="50" y="0" type="line" name="n00"/>
      <point x="150" y="0" type="line"/>
      <point x="273" y="700" type="line" name="n02"/>
      <point x="203" y="700" type="line"/>
      <point x="168" y="670" type="line"/>
    </contour>
  </outline>
</glyph>
<glyph name="m" format="2">
  <advance width="805"/>
  <unicode hex="006D"/>
  <outline>
    <contour>
      <point x="50" y="0" type="line" name="n00"/>
      <point x="150" y="0" type="line"/>
      <point x="216" y="375" type="line"/>
      <point x="227" y="386"/>
      <point x="238" y="396"/>
      <point x="250" y="405" type="curve" smooth="yes"/>
      <point x="270" y="420"/>
      <point x="296" y="435"/>
      <point x="321" y="435" type="curve" smooth="yes" name="n08"/>
      <point x="366" y="435"/>
      <point x="398" y="395"/>
      <point x="389" y="340" type="curve" smooth="yes"/>
      <point x="330" y="0" type="line"/>
      <point x="430" y="0" type="line"/>
      <point x="497" y="385" type="line"/>
      <point x="507" y="394"/>
      <point x="518" y="403"/>
      <point x="530" y="410" type="curve" smooth="yes"/>
      <point x="550" y="422"/>
      <point x="576" y="435"/>
      <point x="601" y="435" type="curve" smooth="yes"/>
      <point x="646" y="435"/>
      <point x="678" y="395"/>
      <point x="669" y="340" type="curve" smooth="yes"/>
      <point x="610" y="0" type="line"/>
      <point x="710" y="0" type="line"/>
      <point x="769" y="340" type="line"/>
      <point x="788" y="440" name="hr01"/>
      <point x="729" y="510" name="hr02"/>
      <point x="639" y="510" type="curve" smooth="yes"/>
      <point x="594" y="510"/>
      <point x="553" y="492"/>
      <point x="524" y="475" type="curve"/>
      <point x="507" y="464"/>
      <point x="491" y="453"/>
      <point x="477" y="440" type="curve" name="hr03"/>
      <point x="472" y="453"/>
      <point x="465" y="464"/>
      <point x="454" y="475" type="curve"/>
      <point x="435" y="492"/>
      <point x="406" y="510" name="hr04"/>
      <point x="359" y="510" type="curve" smooth="yes" name="n41"/>
      <point x="316" y="510"/>
      <point x="281" y="492"/>
      <point x="254" y="475" type="curve"/>
      <point x="239" y="464"/>
      <point x="225" y="453"/>
      <point x="212" y="440" type="curve" name="hr05"/>
      <point x="207" y="440" type="line" name="n48"/>
      <point x="208" y="500" type="line" name="n49"/>
      <point x="138" y="500" type="line"/>
    </contour>
  </outline>
</glyph>
<glyph name="n" format="2">
  <advance width="545"/>
  <unicode hex="006E"/>
  <outline>
    <contour>
      <point x="50" y="0" type="line" name="n00"/>
      <point x="150" y="0" type="line"/>
      <point x="216" y="375" type="line"/>
      <point x="245.86" y="404.86"/>
      <point x="287.279" y="435"/>
      <point x="333.824" y="435" type="curve" smooth="yes" name="n05"/>
      <point x="380.25" y="435"/>
      <point x="410.749" y="405.013"/>
      <point x="410.749" y="359.536" type="curve" smooth="yes" name="n08"/>
      <point x="410.749" y="353.302"/>
      <point x="410.176" y="346.778"/>
      <point x="409" y="340" type="curve" smooth="yes"/>
      <point x="350" y="0" type="line"/>
      <point x="450" y="0" type="line"/>
      <point x="509" y="340" type="line" smooth="yes"/>
      <point x="511.385" y="352.553"/>
      <point x="512.541" y="364.634"/>
      <point x="512.541" y="376.162" type="curve" smooth="yes" name="n17"/>
      <point x="512.541" y="456.471"/>
      <point x="456.447" y="510"/>
      <point x="372.027" y="510" type="curve" smooth="yes" name="n20"/>
      <point x="312.834" y="510"/>
      <point x="248.963" y="483.683"/>
      <point x="212" y="440" type="curve" name="hr01"/>
      <point x="207" y="440" type="line" name="n24"/>
      <point x="208" y="500" type="line" name="n25"/>
      <point x="138" y="500" type="line"/>
    </contour>
  </outline>
</glyph>
<glyph name="q" format="2">
  <advance width="535"/>
  <unicode hex="0071"/>
  <outline>
    <contour>
      <point x="329" y="-200" type="line"/>
      <point x="399" y="-200" type="line"/>
      <point x="523" y="500" type="line" name="n02"/>
      <point x="453" y="500" type="line"/>
      <point x="432" y="440" type="line"/>
      <point x="427" y="440" type="line"/>
      <point x="420" y="453"/>
      <point x="410" y="464"/>
      <point x="398" y="475" type="curve"/>
      <point x="377" y="492"/>
      <point x="345" y="510" name="hr01"/>
      <point x="294" y="510" type="curve" smooth="yes" name="n11"/>
      <point x="200" y="510"/>
      <point x="98" y="425"/>
      <point x="69" y="250" type="curve"/>
      <point x="37" y="75"/>
      <point x="108" y="-10"/>
      <point x="223" y="-10" type="curve" smooth="yes" name="n17"/>
      <point x="254" y="-10"/>
      <point x="282" y="-3"/>
      <point x="303" y="5" type="curve"/>
      <point x="315" y="9"/>
      <point x="327" y="14"/>
      <point x="338" y="20" type="curve"/>
      <point x="305" y="-170" type="line"/>
    </contour>
    <contour>
      <point x="250" y="60" type="curve" smooth="yes" name="n25"/>
      <point x="184" y="60"/>
      <point x="145" y="110"/>
      <point x="169" y="250" type="curve" smooth="yes"/>
      <point x="193" y="385"/>
      <point x="250" y="435"/>
      <point x="306" y="435" type="curve" smooth="yes" name="n31"/>
      <point x="337" y="435"/>
      <point x="360" y="420"/>
      <point x="376" y="405" type="curve"/>
      <point x="385" y="396"/>
      <point x="394" y="386"/>
      <point x="401" y="375" type="curve"/>
      <point x="349" y="80" type="line"/>
      <point x="340" y="76"/>
      <point x="331" y="73"/>
      <point x="320" y="70" type="curve" smooth="yes"/>
      <point x="301" y="65"/>
      <point x="277" y="60"/>
    </contour>
  </outline>
</glyph>
<glyph name="r" format="2">
  <advance width="365"/>
  <unicode hex="0072"/>
  <outline>
    <contour>
      <point x="50" y="0" type="line" name="n00"/>
      <point x="150" y="0" type="line"/>
      <point x="215" y="370" type="line"/>
      <point x="226" y="381"/>
      <point x="237" y="391"/>
      <point x="249" y="400" type="curve" smooth="yes"/>
      <point x="270" y="415"/>
      <point x="297" y="430"/>
      <point x="325" y="430" type="curve" smooth="yes" name="n08"/>
      <point x="340" y="430"/>
      <point x="356" y="428"/>
      <point x="368" y="425" type="curve"/>
      <point x="375" y="423"/>
      <point x="382" y="421"/>
      <point x="389" y="420" type="curve"/>
      <point x="399" y="420" type="line"/>
      <point x="428" y="500" type="line" name="n16"/>
      <point x="424.878" y="500.822"/>
      <point x="412.193" y="504.16"/>
      <point x="409" y="505" type="curve" smooth="yes"/>
      <point x="397" y="508"/>
      <point x="381" y="510" name="hr02"/>
      <point x="364" y="510" type="curve" smooth="yes" name="n22"/>
      <point x="316" y="510"/>
      <point x="279" y="492"/>
      <point x="252" y="475" type="curve"/>
      <point x="237" y="464"/>
      <point x="223" y="453"/>
      <point x="212" y="440" type="curve" name="hr03"/>
      <point x="207" y="440" type="line" name="n29"/>
      <point x="208" y="500" type="line" name="n30"/>
      <point x="138" y="500" type="line"/>
    </contour>
  </outline>
</glyph>
<glyph name="s" format="2">
  <advance width="460"/>
  <unicode hex="0073"/>
  <outline>
    <contour>
      <point x="193" y="-10" type="curve" smooth="yes" name="n00"/>
      <point x="338" y="-10"/>
      <point x="408" y="49"/>
      <point x="424" y="140" type="curve"/>
      <point x="452" y="309"/>
      <point x="166" y="266"/>
      <point x="186" y="375" type="curve" smooth="yes"/>
      <point x="193" y="410"/>
      <point x="226" y="440"/>
      <point x="297" y="440" type="curve" smooth="yes" name="n09"/>
      <point x="332" y="440"/>
      <point x="360" y="428"/>
      <point x="379" y="417" type="curve"/>
      <point x="390" y="410"/>
      <point x="400" y="403"/>
      <point x="409" y="395" type="curve"/>
      <point x="419" y="395" type="line"/>
      <point x="465" y="455" type="line" name="n17"/>
      <point x="454" y="465"/>
      <point x="440" y="474"/>
      <point x="423" y="482" type="curve"/>
      <point x="395" y="497"/>
      <point x="355" y="510"/>
      <point x="299" y="510" type="curve" smooth="yes" name="n23"/>
      <point x="168" y="510"/>
      <point x="99" y="450"/>
      <point x="84" y="365" type="curve" smooth="yes"/>
      <point x="54" y="195"/>
      <point x="342" y="240"/>
      <point x="322" y="130" type="curve" smooth="yes"/>
      <point x="315" y="90"/>
      <point x="280" y="60"/>
      <point x="195" y="60" type="curve" smooth="yes" name="n32"/>
      <point x="155" y="60"/>
      <point x="124" y="71"/>
      <point x="104" y="82" type="curve" smooth="yes"/>
      <point x="92" y="89"/>
      <point x="82" y="96"/>
      <point x="73" y="105" type="curve"/>
      <point x="63" y="105" type="line"/>
      <point x="17" y="45" type="line" name="n40"/>
      <point x="28" y="34"/>
      <point x="43" y="25"/>
      <point x="60" y="17" type="curve"/>
      <point x="89" y="2"/>
      <point x="133" y="-10"/>
    </contour>
  </outline>
</glyph>
<glyph name="t" format="2">
  <advance width="400"/>
  <unicode hex="0074"/>
  <outline>
    <contour>
      <point x="233" y="-10" type="curve" smooth="yes" name="n00"/>
      <point x="273" y="-10"/>
      <point x="310" y="2"/>
      <point x="337" y="15" type="curve"/>
      <point x="353" y="22"/>
      <point x="368" y="31"/>
      <point x="382" y="40" type="curve"/>
      <point x="357" y="100" type="line"/>
      <point x="347" y="100" type="line"/>
      <point x="338" y="93"/>
      <point x="328" y="86"/>
      <point x="318" y="80" type="curve"/>
      <point x="301" y="69"/>
      <point x="278" y="60"/>
      <point x="255" y="60" type="curve" smooth="yes" name="n14"/>
      <point x="210" y="60"/>
      <point x="185" y="90"/>
      <point x="196" y="150" type="curve" smooth="yes"/>
      <point x="245" y="430" type="line" name="n18"/>
      <point x="370" y="430" type="line"/>
      <point x="383" y="500" type="line"/>
      <point x="258" y="500" type="line" name="n21"/>
      <point x="279" y="620" type="line"/>
      <point x="234" y="620" type="line"/>
      <point x="81" y="490" type="line"/>
      <point x="70" y="430" type="line"/>
      <point x="145" y="430" type="line"/>
      <point x="96" y="150" type="line"/>
      <point x="80" y="54"/>
      <point x="133" y="-10"/>
    </contour>
  </outline>
</glyph>
<glyph name="u" format="2">
  <advance width="550"/>
  <unicode hex="0075"/>
  <outline>
    <contour>
      <point x="218" y="-10" type="curve" smooth="yes" name="n00"/>
      <point x="269" y="-10"/>
      <point x="307" y="6"/>
      <point x="334" y="25" type="curve"/>
      <point x="350" y="35"/>
      <point x="364" y="47"/>
      <point x="375" y="60" type="curve"/>
      <point x="380" y="60" type="line"/>
      <point x="380" y="0" type="line" name="n08"/>
      <point x="450" y="0" type="line"/>
      <point x="538" y="500" type="line" name="n10"/>
      <point x="438" y="500" type="line"/>
      <point x="372" y="125" type="line"/>
      <point x="360" y="114"/>
      <point x="348" y="104"/>
      <point x="336" y="95" type="curve"/>
      <point x="313" y="80"/>
      <point x="287" y="65" name="hr02"/>
      <point x="256" y="65" type="curve" smooth="yes" name="n18"/>
      <point x="200" y="65"/>
      <point x="167" y="104"/>
      <point x="178" y="160" type="curve"/>
      <point x="238" y="500" type="line"/>
      <point x="138" y="500" type="line"/>
      <point x="78" y="160" type="line" smooth="yes"/>
      <point x="60" y="60"/>
      <point x="117" y="-10"/>
    </contour>
  </outline>
</glyph>
<glyph name="v" format="2">
  <advance width="470"/>
  <unicode hex="0076"/>
  <outline>
    <contour>
      <point x="150" y="0" type="line" name="n00"/>
      <point x="270" y="0" type="line" name="n01"/>
      <point x="518" y="500" type="line" name="n02"/>
      <point x="418" y="500" type="line"/>
      <point x="254" y="170" type="line"/>
      <point x="246" y="155"/>
      <point x="240" y="139"/>
      <point x="236" y="124" type="curve"/>
      <point x="233" y="116"/>
      <point x="231" y="108"/>
      <point x="229" y="100" type="curve" name="n10"/>
      <point x="225" y="100" type="line"/>
      <point x="226" y="108"/>
      <point x="226" y="116"/>
      <point x="226" y="124" type="curve" smooth="yes"/>
      <point x="226" y="139"/>
      <point x="227" y="155"/>
      <point x="224" y="170" type="curve"/>
      <point x="178" y="500" type="line"/>
      <point x="78" y="500" type="line" name="n19"/>
    </contour>
  </outline>
</glyph>
<glyph name="w" format="2">
  <advance width="710"/>
  <unicode hex="0077"/>
  <outline>
    <contour>
      <point x="120" y="0" type="line"/>
      <point x="230" y="0" type="line" name="n01"/>
      <point x="370" y="315" type="line" smooth="yes"/>
      <point x="375" y="327"/>
      <point x="382" y="344"/>
      <point x="387" y="359" type="curve"/>
      <point x="390" y="367"/>
      <point x="392" y="376"/>
      <point x="395" y="385" type="curve" name="n08"/>
      <point x="399" y="385" type="line"/>
      <point x="398" y="376"/>
      <point x="398" y="367"/>
      <point x="398" y="359" type="curve" smooth="yes"/>
      <point x="398" y="344"/>
      <point x="397" y="327"/>
      <point x="400" y="315" type="curve"/>
      <point x="430" y="0" type="line"/>
      <point x="540" y="0" type="line"/>
      <point x="758" y="500" type="line" name="n18"/>
      <point x="663" y="500" type="line"/>
      <point x="529" y="195" type="line" smooth="yes"/>
      <point x="522" y="180"/>
      <point x="517" y="163"/>
      <point x="513" y="151" type="curve"/>
      <point x="510" y="144"/>
      <point x="508" y="137"/>
      <point x="507" y="130" type="curve"/>
      <point x="503" y="130" type="line"/>
      <point x="505" y="151" type="line" smooth="yes"/>
      <point x="506" y="163"/>
      <point x="505" y="180"/>
      <point x="504" y="195" type="curve" smooth="yes"/>
      <point x="478" y="500" type="line"/>
      <point x="358" y="500" type="line" name="n33"/>
      <point x="224" y="195" type="line" smooth="yes"/>
      <point x="217" y="180"/>
      <point x="212" y="163"/>
      <point x="208" y="151" type="curve"/>
      <point x="205" y="144"/>
      <point x="203" y="137"/>
      <point x="201" y="130" type="curve" name="n40"/>
      <point x="197" y="130" type="line"/>
      <point x="199" y="151" type="line" smooth="yes"/>
      <point x="200" y="164"/>
      <point x="200" y="179"/>
      <point x="199" y="195" type="curve" smooth="yes"/>
      <point x="173" y="500" type="line"/>
      <point x="78" y="500" type="line"/>
    </contour>
  </outline>
</glyph>
<glyph name="z" format="2">
  <advance width="440"/>
  <unicode hex="007A"/>
  <outline>
    <contour>
      <point x="10" y="0" type="line" name="n00"/>
      <point x="380" y="0" type="line" name="n01"/>
      <point x="392" y="70" type="line" name="n02"/>
      <point x="142" y="70" type="line"/>
      <point x="449" y="425" type="line"/>
      <point x="463" y="500" type="line" name="n05"/>
      <point x="98" y="500" type="line" name="n06"/>
      <point x="85" y="430" type="line" name="n07"/>
      <point x="330" y="430" type="line"/>
      <point x="23" y="75" type="line"/>
    </contour>
  </outline>
</glyph>
<glyph name="braceleft" format="2">
  <advance width="325"/>
  <unicode hex="007B"/>
  <outline>
    <contour>
      <point x="70" y="315" type="curve" name="n00"/>
      <point x="58" y="245" type="line" name="n01"/>
      <point x="99.1597" y="245"/>
      <point x="119.477" y="229.368"/>
      <point x="119.477" y="186.014" type="curve" smooth="yes" name="n04"/>
      <point x="119.477" y="175.649"/>
      <point x="118.315" y="163.699"/>
      <point x="116" y="150" type="curve" smooth="yes"/>
      <point x="84" y="-30" type="line" smooth="yes"/>
      <point x="82.6301" y="-38.4301" name="hr01"/>
      <point x="81.9487" y="-46.6381"/>
      <point x="81.9487" y="-54.5772" type="curve" smooth="yes" name="n11"/>
      <point x="81.9487" y="-121.979"/>
      <point x="131.064" y="-170"/>
      <point x="225" y="-170" type="curve" smooth="yes" name="n14"/>
      <point x="260" y="-170" type="line"/>
      <point x="272" y="-100" type="line"/>
      <point x="237" y="-100" type="line" smooth="yes" name="n17"/>
      <point x="202.655" y="-100"/>
      <point x="182.318" y="-81.5692"/>
      <point x="182.318" y="-47.8725" type="curve" smooth="yes"/>
      <point x="182.318" y="-42.3242"/>
      <point x="182.869" y="-36.362"/>
      <point x="184" y="-30" type="curve" smooth="yes" name="n23"/>
      <point x="216" y="150" type="line" smooth="yes"/>
      <point x="218.614" y="164.256"/>
      <point x="219.759" y="176.874" name="hr02"/>
      <point x="219.759" y="188.083" type="curve" smooth="yes" name="n27"/>
      <point x="219.759" y="228.745"/>
      <point x="202.025" y="270.78"/>
      <point x="159" y="280" type="curve"/>
      <point x="220.825" y="291.592"/>
      <point x="251.868" y="353.01"/>
      <point x="262" y="410" type="curve" smooth="yes"/>
      <point x="294" y="590" type="line" smooth="yes"/>
      <point x="301.971" y="634.838"/>
      <point x="331" y="660"/>
      <point x="371" y="660" type="curve" smooth="yes" name="n37"/>
      <point x="406" y="660" type="line"/>
      <point x="418" y="730" type="line"/>
      <point x="383" y="730" type="line" smooth="yes" name="n40"/>
      <point x="278" y="730"/>
      <point x="209" y="670"/>
      <point x="194" y="590" type="curve" smooth="yes"/>
      <point x="162" y="410" type="line" smooth="yes"/>
      <point x="149" y="339"/>
      <point x="121" y="315"/>
    </contour>
  </outline>
</glyph>
<glyph name="bar" format="2">
  <advance width="280"/>
  <unicode hex="007C"/>
  <outline>
    <contour>
      <point x="29" y="-200" type="line" name="n00"/>
      <point x="129" y="-200" type="line"/>
      <point x="288" y="700" type="line" name="n02"/>
      <point x="188" y="700" type="line"/>
    </contour>
  </outline>
</glyph>
<glyph name="braceright" format="2">
  <advance width="325"/>
  <unicode hex="007D"/>
  <outline>
    <contour>
      <point x="303" y="245" type="curve"/>
      <point x="304.943" y="256.336"/>
      <point x="312.971" y="303.162"/>
      <point x="315" y="315" type="curve"/>
      <point x="264" y="315"/>
      <point x="244" y="339"/>
      <point x="257" y="410" type="curve" smooth="yes"/>
      <point x="289" y="590" type="line"/>
      <point x="302" y="670"/>
      <point x="253" y="730"/>
      <point x="148" y="730" type="curve" smooth="yes"/>
      <point x="113" y="730" type="line" name="n11"/>
      <point x="101" y="660" type="line" name="n12"/>
      <point x="136" y="660" type="line" smooth="yes"/>
      <point x="176" y="660"/>
      <point x="196" y="635"/>
      <point x="189" y="590" type="curve"/>
      <point x="157" y="410" type="line" smooth="yes"/>
      <point x="146" y="350"/>
      <point x="161" y="317"/>
      <point x="178" y="300" type="curve" name="n20"/>
      <point x="188" y="289"/>
      <point x="200" y="283"/>
      <point x="214" y="280" type="curve" name="n23"/>
      <point x="198" y="277"/>
      <point x="183" y="270"/>
      <point x="170" y="260" type="curve"/>
      <point x="147" y="241"/>
      <point x="122" y="210"/>
      <point x="111" y="150" type="curve" smooth="yes"/>
      <point x="105.49" y="119.004"/>
      <point x="87.1983" y="16.1152"/>
      <point x="79" y="-30" type="curve" smooth="yes"/>
      <point x="71" y="-75"/>
      <point x="42" y="-100"/>
      <point x="2" y="-100" type="curve" smooth="yes" name="n35"/>
      <point x="-32" y="-100" type="line" name="n36"/>
      <point x="-44" y="-170" type="line"/>
      <point x="-37.9544" y="-170"/>
      <point x="-16.9608" y="-170"/>
      <point x="-10" y="-170" type="curve" smooth="yes"/>
      <point x="95" y="-170"/>
      <point x="164" y="-110"/>
      <point x="179" y="-30" type="curve" smooth="yes"/>
      <point x="187.232" y="16.3065"/>
      <point x="207.559" y="130.646"/>
      <point x="211" y="150" type="curve" smooth="yes"/>
      <point x="223" y="221"/>
      <point x="252" y="245"/>
    </contour>
  </outline>
</glyph>
<glyph name="asciitilde" format="2">
  <advance width="490"/>
  <unicode hex="007E"/>
  <outline>
    <contour>
      <point x="348" y="245" type="curve" smooth="yes" name="n00"/>
      <point x="418" y="245"/>
      <point x="478" y="295"/>
      <point x="499" y="340" type="curve" name="n03"/>
      <point x="453" y="390" type="line"/>
      <point x="444" y="390" type="line"/>
      <point x="444" y="390"/>
      <point x="409" y="335"/>
      <point x="364" y="335" type="curve" smooth="yes" name="n08"/>
      <point x="304" y="335"/>
      <point x="285" y="400" name="hr01"/>
      <point x="205" y="400" type="curve" smooth="yes" name="n11"/>
      <point x="135" y="400"/>
      <point x="77" y="350"/>
      <point x="53" y="305" type="curve" name="n14"/>
      <point x="99" y="255" type="line"/>
      <point x="108" y="255" type="line"/>
      <point x="107" y="255"/>
      <point x="143" y="310"/>
      <point x="189" y="310" type="curve" smooth="yes" name="n19"/>
      <point x="248" y="310"/>
      <point x="269" y="245" name="hr02"/>
    </contour>
  </outline>
</glyph>
<glyph name="exclamdown" format="2">
  <advance width="290"/>
  <unicode hex="00A1"/>
  <outline>
    <contour>
      <point x="139" y="450" type="curve" smooth="yes" name="n00"/>
      <point x="132" y="415"/>
      <point x="153" y="390"/>
      <point x="188" y="390" type="curve" smooth="yes"/>
      <point x="223" y="390"/>
      <point x="252" y="415"/>
      <point x="259" y="450" type="curve" smooth="yes" name="n06"/>
      <point x="266" y="485"/>
      <point x="244" y="510"/>
      <point x="209" y="510" type="curve" smooth="yes"/>
      <point x="174" y="510"/>
      <point x="146" y="485"/>
    </contour>
    <contour>
      <point x="136" y="320" type="line"/>
      <point x="24" y="-200" type="line"/>
      <point x="144" y="-200" type="line"/>
      <point x="216" y="320" type="line"/>
    </contour>
  </outline>
</glyph>
<glyph name="cent" format="2">
  <advance width="455"/>
  <unicode hex="00A2"/>
  <outline>
    <contour>
      <point x="172" y="-70" type="line" name="hr04"/>
      <point x="272" y="-70" type="line" name="n01"/>
      <point x="283" y="-7" type="line" name="n02"/>
      <point x="322" y="-2"/>
      <point x="355" y="11"/>
      <point x="379" y="23" type="curve" smooth="yes"/>
      <point x="393" y="30"/>
      <point x="406" y="38"/>
      <point x="417" y="45" type="curve"/>
      <point x="393" y="105" type="line"/>
      <point x="383" y="105" type="line"/>
      <point x="371" y="96"/>
      <point x="359" y="89"/>
      <point x="346" y="82" type="curve"/>
      <point x="323" y="71"/>
      <point x="296" y="60" name="hr02"/>
      <point x="265" y="60" type="curve" smooth="yes" name="n16"/>
      <point x="184" y="60"/>
      <point x="145" y="110"/>
      <point x="169" y="250" type="curve" smooth="yes"/>
      <point x="193" y="390"/>
      <point x="252" y="440"/>
      <point x="322" y="440" type="curve" smooth="yes" name="n22"/>
      <point x="353" y="440"/>
      <point x="376" y="428"/>
      <point x="395" y="417" type="curve"/>
      <point x="406" y="410"/>
      <point x="415" y="403"/>
      <point x="424" y="395" type="curve"/>
      <point x="434" y="395" type="line"/>
      <point x="480" y="455" type="line"/>
      <point x="472" y="462"/>
      <point x="463" y="468"/>
      <point x="452" y="475" type="curve"/>
      <point x="433" y="486"/>
      <point x="409" y="498"/>
      <point x="374" y="505" type="curve"/>
      <point x="383" y="560" type="line"/>
      <point x="283" y="560" type="line" name="n38"/>
      <point x="274" y="505" type="line"/>
      <point x="173" y="484"/>
      <point x="96" y="401"/>
      <point x="69" y="250" type="curve" smooth="yes"/>
      <point x="42" y="101"/>
      <point x="88" y="20"/>
      <point x="184" y="-3" type="curve" name="n45"/>
    </contour>
  </outline>
</glyph>
<glyph name="sterling" format="2">
  <advance width="475"/>
  <unicode hex="00A3"/>
  <outline>
    <contour>
      <point x="0" y="0" type="line" name="n00"/>
      <point x="440" y="0" type="line"/>
      <point x="452" y="70" type="line"/>
      <point x="117" y="70" type="line"/>
      <point x="132" y="77"/>
      <point x="145" y="89"/>
      <point x="158" y="104" type="curve" smooth="yes"/>
      <point x="181" y="131"/>
      <point x="204" y="174"/>
      <point x="219" y="250" type="curve"/>
      <point x="233" y="330" type="line" name="n10"/>
      <point x="368" y="330" type="line"/>
      <point x="380" y="400" type="line"/>
      <point x="245" y="400" type="line" name="n13"/>
      <point x="270" y="540" type="line" smooth="yes"/>
      <point x="281" y="600"/>
      <point x="327" y="640"/>
      <point x="372" y="640" type="curve" smooth="yes" name="n17"/>
      <point x="407" y="640"/>
      <point x="432" y="628"/>
      <point x="449" y="617" type="curve"/>
      <point x="459" y="610"/>
      <point x="467" y="603"/>
      <point x="474" y="595" type="curve"/>
      <point x="484" y="595" type="line"/>
      <point x="530" y="655" type="line" name="n25"/>
      <point x="521" y="665"/>
      <point x="509" y="674"/>
      <point x="494" y="682" type="curve"/>
      <point x="469" y="697"/>
      <point x="431" y="710"/>
      <point x="375" y="710" type="curve" smooth="yes" name="n31"/>
      <point x="275" y="710"/>
      <point x="186" y="636"/>
      <point x="170" y="540" type="curve"/>
      <point x="145" y="400" type="line"/>
      <point x="80" y="400" type="line"/>
      <point x="68" y="330" type="line"/>
      <point x="133" y="330" type="line"/>
      <point x="119" y="250" type="line" smooth="yes"/>
      <point x="104" y="170"/>
      <point x="78" y="125"/>
      <point x="55" y="100" type="curve"/>
      <point x="42" y="85"/>
      <point x="27" y="75"/>
      <point x="12" y="70" type="curve" name="n45"/>
    </contour>
  </outline>
</glyph>
<glyph name="currency" format="2">
  <advance width="575"/>
  <unicode hex="00A4"/>
  <outline>
    <contour>
      <point x="75" y="0" type="line" name="n00"/>
      <point x="175" y="0" type="line"/>
      <point x="204" y="170" type="line" name="n02"/>
      <point x="454" y="170" type="line"/>
      <point x="465" y="230" type="line"/>
      <point x="215" y="230" type="line" name="n05"/>
      <point x="222" y="270" type="line" name="n06"/>
      <point x="302" y="270" type="line" smooth="yes"/>
      <point x="473" y="270"/>
      <point x="566" y="349"/>
      <point x="589" y="480" type="curve" smooth="yes"/>
      <point x="614" y="621"/>
      <point x="549" y="700"/>
      <point x="378" y="700" type="curve" smooth="yes" name="n13"/>
      <point x="198" y="700" type="line"/>
      <point x="133" y="330" type="line"/>
      <point x="53" y="330" type="line"/>
      <point x="42" y="270" type="line"/>
      <point x="122" y="270" type="line"/>
      <point x="115" y="230" type="line"/>
      <point x="35" y="230" type="line"/>
      <point x="24" y="170" type="line"/>
      <point x="104" y="170" type="line"/>
    </contour>
    <contour>
      <point x="233" y="330" type="line" name="n23"/>
      <point x="286" y="630" type="line"/>
      <point x="366" y="630" type="line" smooth="yes" name="n25"/>
      <point x="466" y="630"/>
      <point x="507" y="580"/>
      <point x="489" y="480" type="curve" smooth="yes"/>
      <point x="472" y="380"/>
      <point x="413" y="330"/>
      <point x="313" y="330" type="curve" smooth="yes"/>
    </contour>
  </outline>
</glyph>
<glyph name="yen" format="2">
  <advance width="530"/>
  <unicode hex="00A5"/>
  <outline>
    <contour>
      <point x="190" y="0" type="line" name="n00"/>
      <point x="290" y="0" type="line"/>
      <point x="321" y="180" type="line"/>
      <point x="471" y="180" type="line"/>
      <point x="484" y="250" type="line"/>
      <point x="343" y="250" type="line"/>
      <point x="377" y="305" type="line"/>
      <point x="493" y="305" type="line" name="n07"/>
      <point x="506" y="375" type="line" name="n08"/>
      <point x="422" y="375" type="line"/>
      <point x="628" y="700" type="line" name="n10"/>
      <point x="523" y="700" type="line"/>
      <point x="329" y="395" type="line" smooth="yes"/>
      <point x="321" y="382"/>
      <point x="314" y="369"/>
      <point x="309" y="356" type="curve" smooth="yes"/>
      <point x="307.563" y="352.229"/>
      <point x="302.256" y="338.298"/>
      <point x="301" y="335" type="curve"/>
      <point x="297" y="335" type="line"/>
      <point x="297" y="342"/>
      <point x="297" y="349"/>
      <point x="296" y="356" type="curve"/>
      <point x="295" y="368"/>
      <point x="292" y="382"/>
      <point x="289" y="395" type="curve"/>
      <point x="203" y="700" type="line"/>
      <point x="98" y="700" type="line"/>
      <point x="190" y="375" type="line"/>
      <point x="106" y="375" type="line"/>
      <point x="93" y="305" type="line"/>
      <point x="209" y="305" type="line"/>
      <point x="225" y="250" type="line" name="n32"/>
      <point x="84" y="250" type="line"/>
      <point x="71" y="180" type="line" name="n34"/>
      <point x="221" y="180" type="line" name="n35"/>
    </contour>
  </outline>
</glyph>
<glyph name="brokenbar" format="2">
  <advance width="280"/>
  <unicode hex="00A6"/>
  <outline>
    <contour>
      <point x="121" y="320" type="line"/>
      <point x="221" y="320" type="line"/>
      <point x="288" y="700" type="line" name="n02"/>
      <point x="188" y="700" type="line"/>
    </contour>
    <contour>
      <point x="29" y="-200" type="line" name="n04"/>
      <point x="129" y="-200" type="line"/>
      <point x="196" y="180" type="line"/>
      <point x="96" y="180" type="line"/>
    </contour>
  </outline>
</glyph>
<glyph name="section" format="2">
  <advance width="510"/>
  <unicode hex="00A7"/>
  <outline>
    <contour>
      <point x="177" y="-210" type="curve" smooth="yes" name="n00"/>
      <point x="307.962" y="-210"/>
      <point x="427.043" y="-141.743"/>
      <point x="427.043" y="0.973495" type="curve" smooth="yes"/>
      <point x="427.043" y="42.2373"/>
      <point x="408.975" y="70.0837"/>
      <point x="383" y="92" type="curve"/>
      <point x="446.076" y="128.21"/>
      <point x="484.862" y="199.415"/>
      <point x="484.862" y="266.075" type="curve" smooth="yes"/>
      <point x="484.862" y="360.401"/>
      <point x="407.199" y="396.053"/>
      <point x="336.771" y="428.385" type="curve" smooth="yes"/>
      <point x="278.344" y="455.207"/>
      <point x="224.896" y="479.743"/>
      <point x="224.896" y="538.639" type="curve" smooth="yes" name="n15"/>
      <point x="224.896" y="604.074"/>
      <point x="290.872" y="640"/>
      <point x="357.128" y="640" type="curve" smooth="yes" name="n18"/>
      <point x="403.564" y="640"/>
      <point x="443.227" y="622.353"/>
      <point x="474" y="595" type="curve"/>
      <point x="484" y="595" type="line"/>
      <point x="530" y="655" type="line"/>
      <point x="487.025" y="694.068"/>
      <point x="421.268" y="710"/>
      <point x="361.93" y="710" type="curve" smooth="yes" name="n26"/>
      <point x="239.045" y="710"/>
      <point x="121.053" y="641.673"/>
      <point x="121.053" y="513.305" type="curve" smooth="yes" name="n29"/>
      <point x="121.053" y="461.845"/>
      <point x="140.014" y="433.079"/>
      <point x="167" y="411" type="curve"/>
      <point x="104.007" y="375.495"/>
      <point x="63.1383" y="305.388"/>
      <point x="63.1383" y="237.256" type="curve" smooth="yes"/>
      <point x="63.1383" y="144.089"/>
      <point x="139.561" y="108.692"/>
      <point x="209.314" y="76.3847" type="curve" smooth="yes"/>
      <point x="267.868" y="49.264"/>
      <point x="321.722" y="24.3204"/>
      <point x="321.722" y="-36.6595" type="curve" smooth="yes"/>
      <point x="321.722" y="-106.58"/>
      <point x="250.919" y="-140"/>
      <point x="180.787" y="-140" type="curve" smooth="yes" name="n44"/>
      <point x="136.325" y="-140"/>
      <point x="89.568" y="-126.568"/>
      <point x="58" y="-95" type="curve"/>
      <point x="48" y="-95" type="line"/>
      <point x="2" y="-155" type="line"/>
      <point x="44.0394" y="-197.039"/>
      <point x="121.014" y="-210"/>
    </contour>
    <contour>
      <point x="304" y="140" type="curve"/>
      <point x="234.827" y="162.135"/>
      <point x="166.505" y="195.329"/>
      <point x="166.505" y="259.935" type="curve" smooth="yes"/>
      <point x="166.505" y="307.715"/>
      <point x="203.874" y="349.259"/>
      <point x="249" y="365" type="curve"/>
      <point x="318.173" y="342.865"/>
      <point x="386.495" y="309.671"/>
      <point x="386.495" y="245.065" type="curve" smooth="yes"/>
      <point x="386.495" y="197.285"/>
      <point x="349.126" y="155.741"/>
    </contour>
  </outline>
</glyph>
<glyph name="dieresis" format="2">
  <advance width="305"/>
  <unicode hex="00A8"/>
  <outline>
    <contour>
      <point x="139" y="565" type="curve" smooth="yes" name="n00"/>
      <point x="171" y="565"/>
      <point x="197" y="588"/>
      <point x="204" y="620" type="curve"/>
      <point x="209" y="652"/>
      <point x="191" y="675"/>
      <point x="159" y="675" type="curve" smooth="yes" name="n06"/>
      <point x="127" y="675"/>
      <point x="99" y="652"/>
      <point x="94" y="620" type="curve"/>
      <point x="87" y="588"/>
      <point x="107" y="565"/>
    </contour>
    <contour>
      <point x="314" y="565" type="curve" smooth="yes"/>
      <point x="346" y="565"/>
      <point x="372" y="588"/>
      <point x="379" y="620" type="curve"/>
      <point x="384" y="652"/>
      <point x="366" y="675"/>
      <point x="334" y="675" type="curve" smooth="yes"/>
      <point x="302" y="675"/>
      <point x="274" y="652"/>
      <point x="269" y="620" type="curve"/>
      <point x="262" y="588"/>
      <point x="282" y="565"/>
    </contour>
  </outline>
</glyph>
<glyph name="copyright" format="2">
  <advance width="860"/>
  <unicode hex="00A9"/>
  <outline>
    <contour>
      <point x="399" y="-30" type="curve" smooth="yes" name="n00"/>
      <point x="630" y="-30"/>
      <point x="816" y="130"/>
      <point x="856" y="350" type="curve" smooth="yes"/>
      <point x="896" y="570"/>
      <point x="762" y="730"/>
      <point x="533" y="730" type="curve" smooth="yes" name="n06"/>
      <point x="302" y="730"/>
      <point x="116" y="570"/>
      <point x="76" y="350" type="curve" smooth="yes"/>
      <point x="36" y="130"/>
      <point x="169" y="-30"/>
    </contour>
    <contour>
      <point x="412" y="40" type="curve" smooth="yes" name="n12"/>
      <point x="241" y="40"/>
      <point x="134" y="170"/>
      <point x="166" y="350" type="curve" smooth="yes"/>
      <point x="198" y="530"/>
      <point x="350" y="660"/>
      <point x="521" y="660" type="curve" smooth="yes" name="n18"/>
      <point x="691" y="660"/>
      <point x="798" y="530"/>
      <point x="766" y="350" type="curve" smooth="yes"/>
      <point x="734" y="170"/>
      <point x="581" y="40"/>
    </contour>
    <contour>
      <point x="442" y="125" type="curve" smooth="yes" name="n24"/>
      <point x="485" y="125"/>
      <point x="524" y="137"/>
      <point x="551" y="150" type="curve"/>
      <point x="567" y="157"/>
      <point x="582" y="166"/>
      <point x="595" y="175" type="curve"/>
      <point x="574" y="225" type="line"/>
      <point x="565" y="225" type="line"/>
      <point x="555" y="218"/>
      <point x="544" y="212"/>
      <point x="533" y="207" type="curve" smooth="yes"/>
      <point x="514" y="198"/>
      <point x="488" y="190"/>
      <point x="463" y="190" type="curve" smooth="yes" name="n38"/>
      <point x="392" y="190"/>
      <point x="356" y="235"/>
      <point x="376" y="350" type="curve" smooth="yes"/>
      <point x="396" y="465"/>
      <point x="449" y="510"/>
      <point x="509" y="510" type="curve" smooth="yes" name="n44"/>
      <point x="534" y="510"/>
      <point x="557" y="501"/>
      <point x="573" y="492" type="curve" smooth="yes"/>
      <point x="582" y="487"/>
      <point x="591" y="481"/>
      <point x="599" y="475" type="curve"/>
      <point x="608" y="475" type="line"/>
      <point x="647" y="525" type="line"/>
      <point x="637" y="534"/>
      <point x="625" y="543"/>
      <point x="612" y="550" type="curve" smooth="yes"/>
      <point x="589" y="562"/>
      <point x="554" y="575"/>
      <point x="511" y="575" type="curve" smooth="yes" name="n58"/>
      <point x="402" y="575"/>
      <point x="313" y="500"/>
      <point x="286" y="350" type="curve" smooth="yes"/>
      <point x="259" y="199"/>
      <point x="322" y="125"/>
    </contour>
  </outline>
</glyph>
<glyph name="ordfeminine" format="2">
  <advance width="360"/>
  <unicode hex="00AA"/>
  <outline>
    <contour>
      <point x="192" y="350" type="curve" smooth="yes"/>
      <point x="221" y="350"/>
      <point x="246" y="362"/>
      <point x="263" y="375" type="curve"/>
      <point x="273" y="382"/>
      <point x="282" y="391"/>
      <point x="290" y="400" type="curve"/>
      <point x="295" y="400" type="line"/>
      <point x="294" y="360" type="line" name="n08"/>
      <point x="363" y="360" type="line"/>
      <point x="404" y="590" type="line" smooth="yes"/>
      <point x="416" y="661"/>
      <point x="376" y="710"/>
      <point x="285" y="710" type="curve" smooth="yes" name="n13"/>
      <point x="245" y="710"/>
      <point x="211" y="698"/>
      <point x="188" y="687" type="curve" smooth="yes"/>
      <point x="174" y="680"/>
      <point x="162" y="673"/>
      <point x="151" y="665" type="curve"/>
      <point x="169" y="620" type="line"/>
      <point x="179" y="620" type="line"/>
      <point x="185" y="625"/>
      <point x="192" y="630"/>
      <point x="200" y="635" type="curve"/>
      <point x="215" y="642"/>
      <point x="234" y="650"/>
      <point x="259" y="650" type="curve" smooth="yes" name="n27"/>
      <point x="299" y="650"/>
      <point x="321" y="625"/>
      <point x="314" y="590" type="curve" smooth="yes"/>
      <point x="309" y="565" type="line"/>
      <point x="264" y="565" type="line" smooth="yes" name="n32"/>
      <point x="153" y="565"/>
      <point x="101" y="520"/>
      <point x="90" y="455" type="curve" smooth="yes"/>
      <point x="79" y="395"/>
      <point x="116" y="350"/>
    </contour>
    <contour>
      <point x="222" y="410" type="curve" smooth="yes" name="n38"/>
      <point x="191" y="410"/>
      <point x="175" y="430"/>
      <point x="180" y="455" type="curve"/>
      <point x="185" y="486"/>
      <point x="209" y="505"/>
      <point x="254" y="505" type="curve" smooth="yes" name="n44"/>
      <point x="299" y="505" type="line"/>
      <point x="287" y="440" type="line"/>
      <point x="282" y="434"/>
      <point x="275" y="429"/>
      <point x="268" y="425" type="curve"/>
      <point x="256" y="417"/>
      <point x="239" y="410"/>
    </contour>
  </outline>
</glyph>
<glyph name="guillemotleft" format="2">
  <advance width="475"/>
  <unicode hex="00AB"/>
  <outline>
    <contour>
      <point x="275" y="60" type="line"/>
      <point x="149" y="250" type="line"/>
      <point x="342" y="440" type="line"/>
      <point x="288" y="500" type="line" name="n03"/>
      <point x="29" y="250" type="line" name="n04"/>
      <point x="200" y="0" type="line" name="n05"/>
    </contour>
    <contour>
      <point x="446" y="465" type="line"/>
      <point x="224" y="250" type="line"/>
      <point x="371" y="35" type="line"/>
      <point x="446" y="95" type="line"/>
      <point x="344" y="250" type="line"/>
      <point x="501" y="405" type="line" name="n11"/>
    </contour>
  </outline>
</glyph>
<glyph name="logicalnot" format="2">
  <advance width="460"/>
  <unicode hex="00AC"/>
  <outline>
    <contour>
      <point x="357" y="240" type="line"/>
      <point x="447" y="240" type="line"/>
      <point x="477" y="410" type="line" name="n02"/>
      <point x="77" y="410" type="line" name="n03"/>
      <point x="63" y="330" type="line" name="n04"/>
      <point x="373" y="330" type="line"/>
    </contour>
  </outline>
</glyph>
<glyph name="uni00AD" format="2">
  <advance width="440"/>
  <unicode hex="00AD"/>
  <outline>
    <contour>
      <point x="56" y="290" type="line" name="n00"/>
      <point x="436" y="290" type="line"/>
      <point x="450" y="370" type="line" name="n02"/>
      <point x="70" y="370" type="line" name="n03"/>
    </contour>
  </outline>
</glyph>
<glyph name="registered" format="2">
  <advance width="860"/>
  <unicode hex="00AE"/>
  <outline>
    <contour>
      <point x="399" y="-30" type="curve" smooth="yes" name="n00"/>
      <point x="630" y="-30"/>
      <point x="816" y="130"/>
      <point x="856" y="350" type="curve" smooth="yes"/>
      <point x="896" y="570"/>
      <point x="762" y="730"/>
      <point x="533" y="730" type="curve" smooth="yes" name="n06"/>
      <point x="302" y="730"/>
      <point x="116" y="570"/>
      <point x="76" y="350" type="curve" smooth="yes"/>
      <point x="36" y="130"/>
      <point x="169" y="-30"/>
    </contour>
    <contour>
      <point x="412" y="40" type="curve" smooth="yes" name="n12"/>
      <point x="241" y="40"/>
      <point x="134" y="170"/>
      <point x="166" y="350" type="curve" smooth="yes"/>
      <point x="198" y="530"/>
      <point x="350" y="660"/>
      <point x="521" y="660" type="curve" smooth="yes" name="n18"/>
      <point x="691" y="660"/>
      <point x="798" y="530"/>
      <point x="766" y="350" type="curve" smooth="yes"/>
      <point x="734" y="170"/>
      <point x="581" y="40"/>
    </contour>
    <contour>
      <point x="278" y="135" type="line"/>
      <point x="368" y="135" type="line"/>
      <point x="395" y="285" type="line" name="n26"/>
      <point x="456" y="285" type="line"/>
      <point x="519" y="135" type="line"/>
      <point x="614" y="135" type="line"/>
      <point x="543" y="300" type="line"/>
      <point x="596" y="315"/>
      <point x="644" y="360"/>
      <point x="655" y="425" type="curve" smooth="yes"/>
      <point x="670" y="510"/>
      <point x="625" y="565"/>
      <point x="500" y="565" type="curve" smooth="yes" name="n36"/>
      <point x="354" y="565" type="line"/>
    </contour>
    <contour>
      <point x="406" y="350" type="line" name="n38"/>
      <point x="433" y="500" type="line"/>
      <point x="489" y="500" type="line" smooth="yes" name="n40"/>
      <point x="554" y="500"/>
      <point x="574" y="476"/>
      <point x="565" y="425" type="curve" smooth="yes"/>
      <point x="557" y="374"/>
      <point x="527" y="350"/>
      <point x="462" y="350" type="curve" smooth="yes"/>
    </contour>
  </outline>
</glyph>
<glyph name="macron" format="2">
  <advance width="310"/>
  <unicode hex="00AF"/>
  <outline>
    <contour>
      <point x="99" y="590" type="line" name="n00"/>
      <point x="369" y="590" type="line"/>
      <point x="381" y="660" type="line" name="n02"/>
      <point x="111" y="660" type="line" name="n03"/>
    </contour>
  </outline>
</glyph>
<glyph name="degree" format="2">
  <advance width="380"/>
  <unicode hex="00B0"/>
  <outline>
    <contour>
      <point x="230" y="370" type="curve" smooth="yes" name="n00"/>
      <point x="329" y="370"/>
      <point x="412" y="440"/>
      <point x="430" y="540" type="curve"/>
      <point x="446" y="640"/>
      <point x="390" y="710"/>
      <point x="290" y="710" type="curve" smooth="yes" name="n06"/>
      <point x="190" y="710"/>
      <point x="106" y="640"/>
      <point x="90" y="540" type="curve"/>
      <point x="72" y="440"/>
      <point x="129" y="370"/>
    </contour>
    <contour>
      <point x="241" y="435" type="curve" smooth="yes" name="n12"/>
      <point x="196" y="435"/>
      <point x="167" y="469"/>
      <point x="180" y="540" type="curve" smooth="yes"/>
      <point x="192" y="611"/>
      <point x="233" y="645"/>
      <point x="278" y="645" type="curve" smooth="yes" name="n18"/>
      <point x="323" y="645"/>
      <point x="352" y="611"/>
      <point x="340" y="540" type="curve" smooth="yes"/>
      <point x="327" y="469"/>
      <point x="286" y="435"/>
    </contour>
  </outline>
</glyph>
<glyph name="plusminus" format="2">
  <advance width="490"/>
  <unicode hex="00B1"/>
  <outline>
    <contour>
      <point x="31" y="95" type="line" name="n00"/>
      <point x="441" y="95" type="line"/>
      <point x="455" y="175" type="line"/>
      <point x="290" y="175" type="line"/>
      <point x="314" y="310" type="line" name="n04"/>
      <point x="479" y="310" type="line"/>
      <point x="493" y="390" type="line" name="n06"/>
      <point x="328" y="390" type="line" name="n07"/>
      <point x="357" y="555" type="line"/>
      <point x="277" y="555" type="line"/>
      <point x="248" y="390" type="line"/>
      <point x="83" y="390" type="line"/>
      <point x="69" y="310" type="line"/>
      <point x="234" y="310" type="line"/>
      <point x="210" y="175" type="line"/>
      <point x="45" y="175" type="line" name="n15"/>
    </contour>
  </outline>
</glyph>
<glyph name="uni00B2" format="2">
  <advance width="330"/>
  <unicode hex="00B2"/>
  <outline>
    <contour>
      <point x="73" y="360" type="line"/>
      <point x="333" y="360" type="line" name="n01"/>
      <point x="344" y="420" type="line" name="n02"/>
      <point x="174" y="420" type="line"/>
      <point x="182" y="481"/>
      <point x="354" y="479"/>
      <point x="374" y="595" type="curve" smooth="yes"/>
      <point x="386" y="660"/>
      <point x="345" y="710"/>
      <point x="265" y="710" type="curve" smooth="yes" name="n09"/>
      <point x="225" y="710"/>
      <point x="191" y="698"/>
      <point x="168" y="687" type="curve" smooth="yes"/>
      <point x="154" y="680"/>
      <point x="142" y="673"/>
      <point x="131" y="665" type="curve"/>
      <point x="149" y="620" type="line"/>
      <point x="159" y="620" type="line"/>
      <point x="165" y="625"/>
      <point x="172" y="630"/>
      <point x="180" y="635" type="curve"/>
      <point x="193" y="642"/>
      <point x="213" y="650"/>
      <point x="237" y="650" type="curve" smooth="yes" name="n23"/>
      <point x="276" y="650"/>
      <point x="291" y="632"/>
      <point x="284" y="595" type="curve" smooth="yes"/>
      <point x="272" y="524"/>
      <point x="104" y="530"/>
      <point x="80" y="400" type="curve" smooth="yes"/>
    </contour>
  </outline>
</glyph>
<glyph name="uni00B3" format="2">
  <advance width="321"/>
  <unicode hex="00B3"/>
  <outline>
    <contour>
      <point x="182" y="350" type="curve" smooth="yes" name="n00"/>
      <point x="272" y="350"/>
      <point x="331" y="399"/>
      <point x="342" y="460" type="curve" smooth="yes" name="n03"/>
      <point x="353" y="525"/>
      <point x="315" y="570"/>
      <point x="235" y="570" type="curve" name="n06"/>
      <point x="356" y="635" type="line"/>
      <point x="368" y="700" type="line" name="n08"/>
      <point x="134" y="700" type="line" name="n09"/>
      <point x="123" y="640" type="line" name="n10"/>
      <point x="267" y="640" type="line"/>
      <point x="133" y="560" type="line"/>
      <point x="124" y="510" type="line"/>
      <point x="190" y="510" type="line" smooth="yes" name="n14"/>
      <point x="241" y="510"/>
      <point x="257" y="491"/>
      <point x="252" y="460" type="curve" name="n17"/>
      <point x="245" y="429"/>
      <point x="223" y="410"/>
      <point x="178" y="410" type="curve" smooth="yes" name="n20"/>
      <point x="153" y="410"/>
      <point x="135" y="417"/>
      <point x="124" y="425" type="curve"/>
      <point x="117" y="429"/>
      <point x="112" y="434"/>
      <point x="108" y="440" type="curve"/>
      <point x="98" y="440" type="line"/>
      <point x="64" y="395" type="line" name="n28"/>
      <point x="71" y="386"/>
      <point x="81" y="379"/>
      <point x="93" y="372" type="curve" smooth="yes"/>
      <point x="112" y="361"/>
      <point x="142" y="350"/>
    </contour>
  </outline>
</glyph>
<glyph name="mu" format="2">
  <advance width="550"/>
  <unicode hex="00B5"/>
  <outline>
    <contour>
      <point x="14" y="-200" type="line" name="n00"/>
      <point x="84" y="-200" type="line"/>
      <point x="120" y="-170" type="line"/>
      <point x="153" y="20" type="line"/>
      <point x="159" y="14"/>
      <point x="166" y="9"/>
      <point x="174" y="5" type="curve"/>
      <point x="189" y="-3"/>
      <point x="208" y="-10"/>
      <point x="233" y="-10" type="curve" smooth="yes" name="n09"/>
      <point x="270" y="-10"/>
      <point x="304" y="5"/>
      <point x="331" y="20" type="curve"/>
      <point x="346" y="29"/>
      <point x="360" y="39"/>
      <point x="373" y="50" type="curve"/>
      <point x="378" y="50" type="line"/>
      <point x="380" y="0" type="line" name="n17"/>
      <point x="450" y="0" type="line"/>
      <point x="538" y="500" type="line" name="n19"/>
      <point x="438" y="500" type="line"/>
      <point x="370" y="115" type="line"/>
      <point x="359" y="106"/>
      <point x="347" y="97"/>
      <point x="335" y="90" type="curve"/>
      <point x="314" y="77"/>
      <point x="287" y="65" name="hr02"/>
      <point x="256" y="65" type="curve" smooth="yes" name="n27"/>
      <point x="200" y="65"/>
      <point x="167" y="104"/>
      <point x="178" y="160" type="curve"/>
      <point x="238" y="500" type="line"/>
      <point x="138" y="500" type="line"/>
    </contour>
  </outline>
</glyph>
<glyph name="paragraph" format="2">
  <advance width="565"/>
  <unicode hex="00B6"/>
  <outline>
    <contour>
      <point x="164" y="-200" type="line"/>
      <point x="254" y="-200" type="line"/>
      <point x="401" y="630" type="line"/>
      <point x="471" y="630" type="line"/>
      <point x="324" y="-200" type="line"/>
      <point x="414" y="-200" type="line"/>
      <point x="561" y="630" type="line"/>
      <point x="641" y="630" type="line" name="n07"/>
      <point x="653" y="700" type="line" name="n08"/>
      <point x="323" y="700" type="line" smooth="yes"/>
      <point x="214" y="700"/>
      <point x="106" y="610"/>
      <point x="87" y="495" type="curve"/>
      <point x="66" y="380"/>
      <point x="143" y="290"/>
      <point x="251" y="290" type="curve"/>
    </contour>
  </outline>
</glyph>
<glyph name="periodcentered" format="2">
  <advance width="290"/>
  <unicode hex="00B7"/>
  <outline>
    <contour>
      <point x="121" y="350" type="curve" smooth="yes" name="n00"/>
      <point x="114" y="315"/>
      <point x="136" y="290"/>
      <point x="171" y="290" type="curve" smooth="yes"/>
      <point x="206" y="290"/>
      <point x="234" y="315"/>
      <point x="241" y="350" type="curve" smooth="yes" name="n06"/>
      <point x="248" y="385"/>
      <point x="227" y="410"/>
      <point x="192" y="410" type="curve" smooth="yes"/>
      <point x="157" y="410"/>
      <point x="128" y="385"/>
    </contour>
  </outline>
</glyph>
<glyph name="cedilla" format="2">
  <advance width="195"/>
  <unicode hex="00B8"/>
  <outline>
    <contour>
      <point x="31" y="-190" type="curve" smooth="yes" name="n00"/>
      <point x="91" y="-190"/>
      <point x="132" y="-155"/>
      <point x="140" y="-110" type="curve" smooth="yes" name="n03"/>
      <point x="148" y="-65"/>
      <point x="120" y="-30"/>
      <point x="64" y="-30" type="curve"/>
      <point x="73" y="20" type="line"/>
      <point x="13" y="20" type="line" name="n08"/>
      <point x="-4" y="-75" type="line" name="n09"/>
      <point x="36" y="-75" type="line" smooth="yes"/>
      <point x="67" y="-75"/>
      <point x="79" y="-90"/>
      <point x="75" y="-110" type="curve" name="n13"/>
      <point x="72" y="-130"/>
      <point x="54" y="-145"/>
      <point x="29" y="-145" type="curve" smooth="yes" name="n16"/>
      <point x="4" y="-145"/>
      <point x="-14" y="-130"/>
      <point x="-13" y="-130" type="curve"/>
      <point x="-22" y="-130" type="line"/>
      <point x="-44" y="-170" type="line"/>
      <point x="-39" y="-174"/>
      <point x="-32" y="-177"/>
      <point x="-25" y="-180" type="curve" smooth="yes"/>
      <point x="-13" y="-185"/>
      <point x="6" y="-190"/>
    </contour>
  </outline>
</glyph>
<glyph name="uni00B9" format="2">
  <advance width="325"/>
  <unicode hex="00B9"/>
  <outline>
    <contour>
      <point x="88" y="360" type="line" name="n00"/>
      <point x="328" y="360" type="line"/>
      <point x="339" y="420" type="line" name="n02"/>
      <point x="264" y="420" type="line"/>
      <point x="313" y="700" type="line" name="n04"/>
      <point x="228" y="700" type="line"/>
      <point x="119" y="620" type="line"/>
      <point x="141" y="575" type="line"/>
      <point x="207" y="610" type="line"/>
      <point x="174" y="420" type="line"/>
      <point x="99" y="420" type="line" name="n10"/>
    </contour>
  </outline>
</glyph>
<glyph name="ordmasculine" format="2">
  <advance width="390"/>
  <unicode hex="00BA"/>
  <outline>
    <contour>
      <point x="231" y="350" type="curve" smooth="yes" name="n00"/>
      <point x="327" y="350"/>
      <point x="403" y="414"/>
      <point x="423" y="530" type="curve" smooth="yes"/>
      <point x="443" y="646"/>
      <point x="391" y="710"/>
      <point x="295" y="710" type="curve" smooth="yes" name="n06"/>
      <point x="199" y="710"/>
      <point x="123" y="646"/>
      <point x="103" y="530" type="curve" smooth="yes"/>
      <point x="83" y="414"/>
      <point x="135" y="350"/>
    </contour>
    <contour>
      <point x="242" y="410" type="curve" smooth="yes" name="n12"/>
      <point x="202" y="410"/>
      <point x="177" y="439"/>
      <point x="193" y="530" type="curve" smooth="yes"/>
      <point x="209" y="621"/>
      <point x="244" y="650"/>
      <point x="284" y="650" type="curve" smooth="yes" name="n18"/>
      <point x="324" y="650"/>
      <point x="349" y="619"/>
      <point x="333" y="530" type="curve" smooth="yes"/>
      <point x="317" y="439"/>
      <point x="282" y="410"/>
    </contour>
  </outline>
</glyph>
<glyph name="guillemotright" format="2">
  <advance width="475"/>
  <unicode hex="00BB"/>
  <outline>
    <contour>
      <point x="364" y="250" type="line"/>
      <point x="170" y="60" type="line"/>
      <point x="225" y="0" type="line" name="n02"/>
      <point x="484" y="250" type="line" name="n03"/>
      <point x="313" y="500" type="line" name="n04"/>
      <point x="237" y="440" type="line"/>
    </contour>
    <contour>
      <point x="289" y="250" type="line"/>
      <point x="141" y="465" type="line"/>
      <point x="66" y="405" type="line"/>
      <point x="169" y="250" type="line"/>
      <point x="11" y="95" type="line" name="n10"/>
      <point x="66" y="35" type="line"/>
    </contour>
  </outline>
</glyph>
<glyph name="onequarter" format="2">
  <advance width="760"/>
  <unicode hex="00BC"/>
  <outline>
    <contour>
      <point x="80" y="0" type="line"/>
      <point x="190" y="0" type="line"/>
      <point x="783" y="700" type="line" name="n02"/>
      <point x="673" y="700" type="line"/>
    </contour>
    <contour>
      <point x="88" y="360" type="line" name="n04"/>
      <point x="328" y="360" type="line"/>
      <point x="339" y="420" type="line"/>
      <point x="264" y="420" type="line"/>
      <point x="313" y="700" type="line"/>
      <point x="228" y="700" type="line"/>
      <point x="119" y="620" type="line"/>
      <point x="141" y="575" type="line"/>
      <point x="207" y="610" type="line"/>
      <point x="174" y="420" type="line"/>
      <point x="99" y="420" type="line" name="n14"/>
    </contour>
    <contour>
      <point x="560" y="0" type="line" name="n15"/>
      <point x="650" y="0" type="line"/>
      <point x="662" y="70" type="line" name="n17"/>
      <point x="712" y="70" type="line"/>
      <point x="722" y="130" type="line"/>
      <point x="672" y="130" type="line" name="n20"/>
      <point x="709" y="340" type="line"/>
      <point x="619" y="340" type="line" name="n22"/>
      <point x="412" y="130" type="line"/>
      <point x="402" y="70" type="line"/>
      <point x="572" y="70" type="line"/>
    </contour>
    <contour>
      <point x="492" y="130" type="line"/>
      <point x="581" y="220" type="line" smooth="yes"/>
      <point x="591.618" y="230.618"/>
      <point x="600.995" y="249"/>
      <point x="608" y="263" type="curve"/>
      <point x="612" y="263" type="line" name="n31"/>
      <point x="607" y="252.203"/>
      <point x="600.088" y="231.743"/>
      <point x="598" y="220" type="curve" smooth="yes"/>
      <point x="582" y="130" type="line" name="n35"/>
    </contour>
  </outline>
</glyph>
<glyph name="onehalf" format="2">
  <advance width="750"/>
  <unicode hex="00BD"/>
  <outline>
    <contour>
      <point x="80" y="0" type="line"/>
      <point x="190" y="0" type="line"/>
      <point x="783" y="700" type="line" name="n02"/>
      <point x="673" y="700" type="line"/>
    </contour>
    <contour>
      <point x="88" y="360" type="line" name="n04"/>
      <point x="328" y="360" type="line"/>
      <point x="339" y="420" type="line"/>
      <point x="264" y="420" type="line"/>
      <point x="313" y="700" type="line"/>
      <point x="228" y="700" type="line"/>
      <point x="119" y="620" type="line"/>
      <point x="141" y="575" type="line"/>
      <point x="207" y="610" type="line"/>
      <point x="174" y="420" type="line"/>
      <point x="99" y="420" type="line" name="n14"/>
    </contour>
    <contour>
      <point x="430" y="0" type="line"/>
      <point x="690" y="0" type="line" name="n16"/>
      <point x="700" y="60" type="line" name="n17"/>
      <point x="530" y="60" type="line"/>
      <point x="535" y="85.0019"/>
      <point x="567.261" y="99.4119"/>
      <point x="604.644" y="116.109" type="curve" smooth="yes"/>
      <point x="667.289" y="144.091"/>
      <point x="732.761" y="176.81"/>
      <point x="732.761" y="251.511" type="curve" smooth="yes"/>
      <point x="732.761" y="310.146"/>
      <point x="692.423" y="350"/>
      <point x="621" y="350" type="curve" smooth="yes" name="n27"/>
      <point x="573.308" y="350"/>
      <point x="525.488" y="332.991"/>
      <point x="487" y="305" type="curve"/>
      <point x="505" y="260" type="line"/>
      <point x="515" y="260" type="line"/>
      <point x="537.218" y="278.515"/>
      <point x="564.683" y="290"/>
      <point x="594" y="290" type="curve" smooth="yes" name="n35"/>
      <point x="625.939" y="290"/>
      <point x="642.23" y="276.588"/>
      <point x="642.23" y="249.12" type="curve" smooth="yes"/>
      <point x="642.23" y="204.818"/>
      <point x="598.647" y="184"/>
      <point x="566.422" y="171.375" type="curve" smooth="yes"/>
      <point x="509.802" y="149.194"/>
      <point x="450.754" y="114.502"/>
      <point x="437" y="40" type="curve" smooth="yes"/>
    </contour>
  </outline>
</glyph>
<glyph name="threequarters" format="2">
  <advance width="750"/>
  <unicode hex="00BE"/>
  <outline>
    <contour>
      <point x="70" y="0" type="line" name="n00"/>
      <point x="180" y="0" type="line"/>
      <point x="773" y="700" type="line" name="n02"/>
      <point x="663" y="700" type="line"/>
    </contour>
    <contour>
      <point x="197" y="350" type="curve" smooth="yes" name="n04"/>
      <point x="287" y="350"/>
      <point x="346" y="399"/>
      <point x="357" y="460" type="curve" smooth="yes" name="n07"/>
      <point x="368" y="525"/>
      <point x="330" y="570"/>
      <point x="250" y="570" type="curve" name="n10"/>
      <point x="371" y="635" type="line"/>
      <point x="383" y="700" type="line"/>
      <point x="149" y="700" type="line" name="n13"/>
      <point x="138" y="640" type="line" name="n14"/>
      <point x="282" y="640" type="line"/>
      <point x="148" y="560" type="line"/>
      <point x="139" y="510" type="line"/>
      <point x="205" y="510" type="line" smooth="yes" name="n18"/>
      <point x="256" y="510"/>
      <point x="272" y="491"/>
      <point x="267" y="460" type="curve" name="n21"/>
      <point x="260" y="429"/>
      <point x="238" y="410"/>
      <point x="193" y="410" type="curve" smooth="yes" name="n24"/>
      <point x="168" y="410"/>
      <point x="150" y="417"/>
      <point x="139" y="425" type="curve"/>
      <point x="132" y="429"/>
      <point x="127" y="434"/>
      <point x="123" y="440" type="curve"/>
      <point x="113" y="440" type="line"/>
      <point x="79" y="395" type="line"/>
      <point x="86" y="386"/>
      <point x="96" y="379"/>
      <point x="108" y="372" type="curve" smooth="yes"/>
      <point x="127" y="361"/>
      <point x="157" y="350"/>
    </contour>
    <contour>
      <point x="550" y="0" type="line" name="n38"/>
      <point x="640" y="0" type="line" name="hr03"/>
      <point x="652" y="70" type="line" name="n40"/>
      <point x="702" y="70" type="line" name="hr02"/>
      <point x="712" y="130" type="line"/>
      <point x="662" y="130" type="line" name="n43"/>
      <point x="699" y="340" type="line"/>
      <point x="609" y="340" type="line" name="n45"/>
      <point x="402" y="130" type="line"/>
      <point x="392" y="70" type="line"/>
      <point x="562" y="70" type="line"/>
    </contour>
    <contour>
      <point x="482" y="130" type="line"/>
      <point x="571" y="220" type="line" smooth="yes"/>
      <point x="576" y="225"/>
      <point x="584" y="237"/>
      <point x="589" y="246" type="curve" smooth="yes"/>
      <point x="590.456" y="248.75"/>
      <point x="596.465" y="260.101"/>
      <point x="598" y="263" type="curve"/>
      <point x="602" y="263" type="line" name="n57"/>
      <point x="596" y="247" type="line"/>
      <point x="593" y="238"/>
      <point x="589" y="227"/>
      <point x="588" y="220" type="curve"/>
      <point x="572" y="130" type="line" name="n62"/>
    </contour>
  </outline>
</glyph>
<glyph name="questiondown" format="2">
  <advance width="460"/>
  <unicode hex="00BF"/>
  <outline>
    <contour>
      <point x="322" y="390" type="curve" smooth="yes" name="n00"/>
      <point x="361.307" y="390"/>
      <point x="394.297" y="423.511"/>
      <point x="394.297" y="461.102" type="curve" smooth="yes"/>
      <point x="394.297" y="490.859"/>
      <point x="373.625" y="510"/>
      <point x="343" y="510" type="curve" smooth="yes" name="n06"/>
      <point x="303.281" y="510"/>
      <point x="271.659" y="476.029"/>
      <point x="271.659" y="438.612" type="curve" smooth="yes"/>
      <point x="271.659" y="408.959"/>
      <point x="291.521" y="390"/>
    </contour>
    <contour>
      <point x="7.77098" y="-47.3145" type="curve" smooth="yes" name="n12"/>
      <point x="7.77098" y="-147.115"/>
      <point x="73.4432" y="-210"/>
      <point x="204.288" y="-210" type="curve" smooth="yes" name="n15"/>
      <point x="267.655" y="-210"/>
      <point x="352.113" y="-195.251"/>
      <point x="407" y="-155" type="curve" name="n18"/>
      <point x="383" y="-95" type="line"/>
      <point x="373" y="-95" type="line"/>
      <point x="336.136" y="-125.162"/>
      <point x="270.615" y="-140"/>
      <point x="225" y="-140" type="curve" smooth="yes" name="n23"/>
      <point x="148.909" y="-140"/>
      <point x="107.276" y="-99.9317"/>
      <point x="107.276" y="-43.2462" type="curve" smooth="yes"/>
      <point x="107.276" y="23.9695"/>
      <point x="165.813" y="69.4101"/>
      <point x="219.04" y="107.974" type="curve" smooth="yes"/>
      <point x="274.789" y="148.366"/>
      <point x="333.302" y="190.76"/>
      <point x="348" y="280" type="curve" smooth="yes"/>
      <point x="355" y="320" type="line"/>
      <point x="265" y="320" type="line"/>
      <point x="258" y="280" type="line" smooth="yes"/>
      <point x="246.842" y="219.097"/>
      <point x="198.724" y="186.94"/>
      <point x="147.61" y="152.782" type="curve" smooth="yes"/>
      <point x="67.0814" y="98.966"/>
      <point x="7.77098" y="47.5294"/>
    </contour>
  </outline>
</glyph>
<glyph name="Agrave" format="2">
  <advance width="570"/>
  <unicode hex="00C0"/>
  <outline>
    <contour>
      <point x="363" y="750" type="line"/>
      <point x="428" y="750" type="line" name="n01"/>
      <point x="410" y="900" type="line" name="n02"/>
      <point x="300" y="900" type="line"/>
    </contour>
    <contour>
      <point x="-10" y="0" type="line" name="n04"/>
      <point x="90" y="0" type="line"/>
      <point x="176" y="180" type="line"/>
      <point x="406" y="180" type="line" name="n07"/>
      <point x="430" y="0" type="line"/>
      <point x="530" y="0" type="line" name="n09"/>
      <point x="448" y="700" type="line" name="n10"/>
      <point x="318" y="700" type="line" name="n11"/>
    </contour>
    <contour>
      <point x="209" y="250" type="line"/>
      <point x="337" y="525" type="line" smooth="yes"/>
      <point x="344" y="540"/>
      <point x="350" y="556"/>
      <point x="355" y="571" type="curve"/>
      <point x="358" y="579"/>
      <point x="360" y="587"/>
      <point x="362" y="595" type="curve" name="n19"/>
      <point x="366" y="595" type="line"/>
      <point x="365" y="588"/>
      <point x="365" y="580"/>
      <point x="365" y="572" type="curve" smooth="yes"/>
      <point x="365" y="557"/>
      <point x="364" y="540"/>
      <point x="367" y="525" type="curve"/>
      <point x="399" y="250" type="line" name="n27"/>
    </contour>
  </outline>
</glyph>
<glyph name="Acircumflex" format="2">
  <advance width="570"/>
  <unicode hex="00C2"/>
  <outline>
    <contour>
      <point x="251" y="750" type="line"/>
      <point x="316" y="750" type="line"/>
      <point x="403" y="815" type="line"/>
      <point x="466" y="750" type="line" name="n03"/>
      <point x="531" y="750" type="line" name="n04"/>
      <point x="449" y="880" type="line" name="n05"/>
      <point x="379" y="880" type="line"/>
    </contour>
    <contour>
      <point x="-10" y="0" type="line" name="n07"/>
      <point x="90" y="0" type="line"/>
      <point x="176" y="180" type="line"/>
      <point x="406" y="180" type="line" name="n10"/>
      <point x="430" y="0" type="line"/>
      <point x="530" y="0" type="line"/>
      <point x="448" y="700" type="line" name="n13"/>
      <point x="318" y="700" type="line" name="n14"/>
    </contour>
    <contour>
      <point x="209" y="250" type="line"/>
      <point x="337" y="525" type="line" smooth="yes"/>
      <point x="344" y="540"/>
      <point x="350" y="556"/>
      <point x="355" y="571" type="curve"/>
      <point x="358" y="579"/>
      <point x="360" y="587"/>
      <point x="362" y="595" type="curve" name="n22"/>
      <point x="366" y="595" type="line"/>
      <point x="365" y="588"/>
      <point x="365" y="580"/>
      <point x="365" y="572" type="curve" smooth="yes"/>
      <point x="365" y="557"/>
      <point x="364" y="540"/>
      <point x="367" y="525" type="curve"/>
      <point x="399" y="250" type="line" name="n30"/>
    </contour>
  </outline>
</glyph>
<glyph name="Atilde" format="2">
  <advance width="570"/>
  <unicode hex="00C3"/>
  <outline>
    <contour>
      <point x="432" y="750" type="curve" smooth="yes"/>
      <point x="483" y="750"/>
      <point x="514" y="790"/>
      <point x="537" y="835" type="curve" name="n03"/>
      <point x="531.936" y="838.517"/>
      <point x="509.103" y="854.373"/>
      <point x="501" y="860" type="curve" name="n06"/>
      <point x="499.63" y="860"/>
      <point x="493.472" y="860"/>
      <point x="492" y="860" type="curve" name="n09"/>
      <point x="492" y="859"/>
      <point x="469" y="819"/>
      <point x="439" y="820" type="curve"/>
      <point x="408" y="820"/>
      <point x="408" y="865"/>
      <point x="357" y="865" type="curve" smooth="yes"/>
      <point x="306" y="865"/>
      <point x="275" y="825"/>
      <point x="252" y="780" type="curve" name="n18"/>
      <point x="257.055" y="776.489"/>
      <point x="280.056" y="760.517"/>
      <point x="288" y="755" type="curve" name="n21"/>
      <point x="289.424" y="755"/>
      <point x="295.531" y="755"/>
      <point x="297" y="755" type="curve"/>
      <point x="297" y="754"/>
      <point x="320" y="794"/>
      <point x="350" y="795" type="curve"/>
      <point x="381" y="795"/>
      <point x="381" y="750"/>
    </contour>
    <contour>
      <point x="-10" y="0" type="line" name="n30"/>
      <point x="90" y="0" type="line" name="n31"/>
      <point x="176" y="180" type="line"/>
      <point x="406" y="180" type="line"/>
      <point x="430" y="0" type="line" name="n34"/>
      <point x="530" y="0" type="line"/>
      <point x="448" y="700" type="line"/>
      <point x="318" y="700" type="line"/>
    </contour>
    <contour>
      <point x="209" y="250" type="line"/>
      <point x="337" y="525" type="line" smooth="yes" name="hr03"/>
      <point x="344" y="540"/>
      <point x="350" y="556"/>
      <point x="355" y="571" type="curve"/>
      <point x="358" y="579"/>
      <point x="360" y="587"/>
      <point x="362" y="595" type="curve" name="n45"/>
      <point x="366" y="595" type="line" name="hr04"/>
      <point x="365" y="588"/>
      <point x="365" y="580"/>
      <point x="365" y="572" type="curve" smooth="yes"/>
      <point x="365" y="557"/>
      <point x="364" y="540"/>
      <point x="367" y="525" type="curve"/>
      <point x="399" y="250" type="line" name="n53"/>
    </contour>
  </outline>
</glyph>
<glyph name="Adieresis" format="2">
  <advance width="570"/>
  <unicode hex="00C4"/>
  <outline>
    <contour>
      <point x="302" y="755" type="curve" smooth="yes" name="n00"/>
      <point x="334" y="755"/>
      <point x="360" y="778"/>
      <point x="367" y="810" type="curve"/>
      <point x="372" y="842"/>
      <point x="354" y="865"/>
      <point x="322" y="865" type="curve" smooth="yes" name="n06"/>
      <point x="290" y="865"/>
      <point x="262" y="842"/>
      <point x="257" y="810" type="curve"/>
      <point x="250" y="778"/>
      <point x="270" y="755"/>
    </contour>
    <contour>
      <point x="477" y="755" type="curve" smooth="yes"/>
      <point x="509" y="755"/>
      <point x="535" y="778"/>
      <point x="542" y="810" type="curve"/>
      <point x="547" y="842"/>
      <point x="529" y="865"/>
      <point x="497" y="865" type="curve" smooth="yes"/>
      <point x="465" y="865"/>
      <point x="437" y="842"/>
      <point x="432" y="810" type="curve"/>
      <point x="425" y="778"/>
      <point x="445" y="755"/>
    </contour>
    <contour>
      <point x="-10" y="0" type="line" name="n24"/>
      <point x="90" y="0" type="line"/>
      <point x="176" y="180" type="line"/>
      <point x="406" y="180" type="line" name="n27"/>
      <point x="430" y="0" type="line"/>
      <point x="530" y="0" type="line"/>
      <point x="448" y="700" type="line" name="n30"/>
      <point x="318" y="700" type="line" name="n31"/>
    </contour>
    <contour>
      <point x="209" y="250" type="line"/>
      <point x="337" y="525" type="line" smooth="yes"/>
      <point x="344" y="540"/>
      <point x="350" y="556"/>
      <point x="355" y="571" type="curve"/>
      <point x="358" y="579"/>
      <point x="360" y="587"/>
      <point x="362" y="595" type="curve" name="n39"/>
      <point x="366" y="595" type="line"/>
      <point x="365" y="588"/>
      <point x="365" y="580"/>
      <point x="365" y="572" type="curve" smooth="yes"/>
      <point x="365" y="557"/>
      <point x="364" y="540"/>
      <point x="367" y="525" type="curve"/>
      <point x="399" y="250" type="line" name="n47"/>
    </contour>
  </outline>
</glyph>
<glyph name="Aring" format="2">
  <advance width="570"/>
  <unicode hex="00C5"/>
  <outline>
    <contour>
      <point x="390" y="740" type="curve" smooth="yes" name="n00"/>
      <point x="450" y="740"/>
      <point x="497" y="779"/>
      <point x="506" y="835" type="curve"/>
      <point x="517" y="891"/>
      <point x="483" y="930"/>
      <point x="423" y="930" type="curve" smooth="yes" name="n06"/>
      <point x="363" y="930"/>
      <point x="317" y="891"/>
      <point x="306" y="835" type="curve"/>
      <point x="297" y="779"/>
      <point x="330" y="740"/>
    </contour>
    <contour>
      <point x="399" y="790" type="curve" smooth="yes" name="n12"/>
      <point x="379" y="790"/>
      <point x="361" y="804"/>
      <point x="366" y="835" type="curve"/>
      <point x="373" y="866"/>
      <point x="394" y="880"/>
      <point x="414" y="880" type="curve" smooth="yes" name="n18"/>
      <point x="434" y="880"/>
      <point x="453" y="866"/>
      <point x="446" y="835" type="curve"/>
      <point x="441" y="804"/>
      <point x="419" y="790"/>
    </contour>
    <contour>
      <point x="-10" y="0" type="line" name="n24"/>
      <point x="90" y="0" type="line"/>
      <point x="176" y="180" type="line"/>
      <point x="406" y="180" type="line" name="n27"/>
      <point x="430" y="0" type="line"/>
      <point x="530" y="0" type="line" name="n29"/>
      <point x="448" y="700" type="line" name="n30"/>
      <point x="318" y="700" type="line" name="n31"/>
    </contour>
    <contour>
      <point x="209" y="250" type="line"/>
      <point x="337" y="525" type="line" smooth="yes"/>
      <point x="344" y="540"/>
      <point x="350" y="556"/>
      <point x="355" y="571" type="curve"/>
      <point x="358" y="579"/>
      <point x="360" y="587"/>
      <point x="362" y="595" type="curve" name="n39"/>
      <point x="366" y="595" type="line"/>
      <point x="365" y="588"/>
      <point x="365" y="580"/>
      <point x="365" y="572" type="curve" smooth="yes"/>
      <point x="365" y="557"/>
      <point x="364" y="540"/>
      <point x="367" y="525" type="curve"/>
      <point x="399" y="250" type="line" name="n47"/>
    </contour>
  </outline>
</glyph>
<glyph name="Ccedilla" format="2">
  <advance width="515"/>
  <unicode hex="00C7"/>
  <outline>
    <contour>
      <point x="529" y="682" type="curve"/>
      <point x="501" y="697"/>
      <point x="461" y="710"/>
      <point x="405" y="710" type="curve" smooth="yes" name="n03"/>
      <point x="255" y="710"/>
      <point x="136" y="609"/>
      <point x="91" y="350" type="curve" smooth="yes"/>
      <point x="52" y="124"/>
      <point x="108" y="19"/>
      <point x="229" y="-5" type="curve" name="n09"/>
      <point x="216" y="-75" type="line"/>
      <point x="256" y="-75" type="line" smooth="yes" name="n11"/>
      <point x="287" y="-75"/>
      <point x="299" y="-90"/>
      <point x="295" y="-110" type="curve" name="n14"/>
      <point x="292" y="-130"/>
      <point x="274" y="-145"/>
      <point x="249" y="-145" type="curve" smooth="yes" name="n17"/>
      <point x="224" y="-145"/>
      <point x="206" y="-130"/>
      <point x="207" y="-130" type="curve"/>
      <point x="198" y="-130" type="line"/>
      <point x="176" y="-170" type="line"/>
      <point x="181" y="-174"/>
      <point x="188" y="-177"/>
      <point x="195" y="-180" type="curve" smooth="yes"/>
      <point x="207" y="-185"/>
      <point x="226" y="-190"/>
      <point x="251" y="-190" type="curve" smooth="yes" name="n28"/>
      <point x="311" y="-190"/>
      <point x="352" y="-155"/>
      <point x="360" y="-110" type="curve" smooth="yes" name="n31"/>
      <point x="368" y="-65"/>
      <point x="340" y="-30"/>
      <point x="284" y="-30" type="curve" name="n34"/>
      <point x="288" y="-10" type="line" name="n35"/>
      <point x="344" y="-10"/>
      <point x="389" y="2"/>
      <point x="421" y="17" type="curve"/>
      <point x="440" y="25"/>
      <point x="457" y="34"/>
      <point x="472" y="45" type="curve"/>
      <point x="448" y="105" type="line"/>
      <point x="438" y="105" type="line"/>
      <point x="426" y="96"/>
      <point x="413" y="89"/>
      <point x="400" y="82" type="curve"/>
      <point x="377" y="71"/>
      <point x="345" y="60"/>
      <point x="310" y="60" type="curve" smooth="yes" name="n49"/>
      <point x="210" y="60"/>
      <point x="151" y="130"/>
      <point x="191" y="350" type="curve" smooth="yes"/>
      <point x="231" y="570"/>
      <point x="311" y="640"/>
      <point x="402" y="640" type="curve" smooth="yes" name="n55"/>
      <point x="437" y="640"/>
      <point x="465" y="628"/>
      <point x="484" y="617" type="curve"/>
      <point x="495" y="610"/>
      <point x="505" y="603"/>
      <point x="514" y="595" type="curve"/>
      <point x="524" y="595" type="line"/>
      <point x="570" y="655" type="line"/>
      <point x="559" y="665"/>
      <point x="545" y="674"/>
    </contour>
  </outline>
</glyph>
<glyph name="Egrave" format="2">
  <advance width="510"/>
  <unicode hex="00C8"/>
  <outline>
    <contour>
      <point x="376" y="750" type="line"/>
      <point x="441" y="750" type="line" name="n01"/>
      <point x="423" y="900" type="line" name="n02"/>
      <point x="313" y="900" type="line"/>
    </contour>
    <contour>
      <point x="65" y="0" type="line" name="n04"/>
      <point x="455" y="0" type="line" name="n05"/>
      <point x="467" y="70" type="line" name="n06"/>
      <point x="177" y="70" type="line"/>
      <point x="223" y="330" type="line" name="n08"/>
      <point x="453" y="330" type="line"/>
      <point x="465" y="400" type="line"/>
      <point x="235" y="400" type="line" name="n11"/>
      <point x="276" y="630" type="line"/>
      <point x="566" y="630" type="line" name="n13"/>
      <point x="578" y="700" type="line" name="n14"/>
      <point x="188" y="700" type="line"/>
    </contour>
  </outline>
</glyph>
<glyph name="Eacute" format="2">
  <advance width="510"/>
  <unicode hex="00C9"/>
  <outline>
    <contour>
      <point x="336" y="750" type="line"/>
      <point x="401" y="750" type="line" name="n01"/>
      <point x="518" y="900" type="line"/>
      <point x="408" y="900" type="line" name="n03"/>
    </contour>
    <contour>
      <point x="65" y="0" type="line" name="n04"/>
      <point x="455" y="0" type="line" name="n05"/>
      <point x="467" y="70" type="line" name="n06"/>
      <point x="177" y="70" type="line"/>
      <point x="223" y="330" type="line" name="n08"/>
      <point x="453" y="330" type="line"/>
      <point x="465" y="400" type="line"/>
      <point x="235" y="400" type="line" name="n11"/>
      <point x="276" y="630" type="line"/>
      <point x="566" y="630" type="line" name="n13"/>
      <point x="578" y="700" type="line" name="n14"/>
      <point x="188" y="700" type="line"/>
    </contour>
  </outline>
</glyph>
<glyph name="Ecircumflex" format="2">
  <advance width="510"/>
  <unicode hex="00CA"/>
  <outline>
    <contour>
      <point x="255" y="760" type="line"/>
      <point x="320" y="760" type="line"/>
      <point x="407" y="825" type="line"/>
      <point x="470" y="760" type="line" name="n03"/>
      <point x="535" y="760" type="line"/>
      <point x="453" y="890" type="line" name="n05"/>
      <point x="383" y="890" type="line"/>
    </contour>
    <contour>
      <point x="65" y="0" type="line" name="n07"/>
      <point x="455" y="0" type="line" name="n08"/>
      <point x="467" y="70" type="line" name="n09"/>
      <point x="177" y="70" type="line"/>
      <point x="223" y="330" type="line" name="n11"/>
      <point x="453" y="330" type="line"/>
      <point x="465" y="400" type="line"/>
      <point x="235" y="400" type="line" name="n14"/>
      <point x="276" y="630" type="line"/>
      <point x="566" y="630" type="line" name="n16"/>
      <point x="578" y="700" type="line" name="n17"/>
      <point x="188" y="700" type="line"/>
    </contour>
  </outline>
</glyph>
<glyph name="Edieresis" format="2">
  <advance width="510"/>
  <unicode hex="00CB"/>
  <outline>
    <contour>
      <point x="306" y="765" type="curve" smooth="yes" name="n00"/>
      <point x="338" y="765"/>
      <point x="364" y="788"/>
      <point x="371" y="820" type="curve"/>
      <point x="376" y="852"/>
      <point x="358" y="875"/>
      <point x="326" y="875" type="curve" smooth="yes" name="n06"/>
      <point x="294" y="875"/>
      <point x="266" y="852"/>
      <point x="261" y="820" type="curve"/>
      <point x="254" y="788"/>
      <point x="274" y="765"/>
    </contour>
    <contour>
      <point x="481" y="765" type="curve" smooth="yes"/>
      <point x="513" y="765"/>
      <point x="539" y="788"/>
      <point x="546" y="820" type="curve"/>
      <point x="551" y="852"/>
      <point x="533" y="875"/>
      <point x="501" y="875" type="curve" smooth="yes"/>
      <point x="469" y="875"/>
      <point x="441" y="852"/>
      <point x="436" y="820" type="curve"/>
      <point x="429" y="788"/>
      <point x="449" y="765"/>
    </contour>
    <contour>
      <point x="65" y="0" type="line" name="n24"/>
      <point x="455" y="0" type="line" name="n25"/>
      <point x="467" y="70" type="line" name="n26"/>
      <point x="177" y="70" type="line"/>
      <point x="223" y="330" type="line" name="n28"/>
      <point x="453" y="330" type="line"/>
      <point x="465" y="400" type="line"/>
      <point x="235" y="400" type="line" name="n31"/>
      <point x="276" y="630" type="line"/>
      <point x="566" y="630" type="line" name="n33"/>
      <point x="578" y="700" type="line" name="n34"/>
      <point x="188" y="700" type="line"/>
    </contour>
  </outline>
</glyph>
<glyph name="Igrave" format="2">
  <advance width="278"/>
  <unicode hex="00CC"/>
  <anchor x="165" y="0" name="b.uni0328_1"/>
  <anchor x="237" y="700" name="m.gravecomb_2"/>
  <anchor x="114" y="0" name="m.uni0326"/>
  <outline>
    <contour>
      <point x="216" y="750" type="line"/>
      <point x="281" y="750" type="line" name="n01"/>
      <point x="263" y="900" type="line" name="n02"/>
      <point x="153" y="900" type="line"/>
    </contour>
    <contour>
      <point x="65" y="0" type="line" name="n04"/>
      <point x="165" y="0" type="line"/>
      <point x="288" y="700" type="line" name="n06"/>
      <point x="188" y="700" type="line"/>
    </contour>
  </outline>
</glyph>
<glyph name="Iacute" format="2">
  <advance width="277"/>
  <unicode hex="00CD"/>
  <anchor x="165" y="0" name="b.uni0328_1"/>
  <anchor x="237" y="700" name="m.gravecomb_2"/>
  <anchor x="114" y="0" name="m.uni0326"/>
  <outline>
    <contour>
      <point x="208" y="750" type="line"/>
      <point x="273" y="750" type="line" name="n01"/>
      <point x="390" y="900" type="line" name="n02"/>
      <point x="280" y="900" type="line" name="n03"/>
    </contour>
    <contour>
      <point x="65" y="0" type="line" name="n04"/>
      <point x="165" y="0" type="line"/>
      <point x="288" y="700" type="line" name="n06"/>
      <point x="188" y="700" type="line"/>
    </contour>
  </outline>
</glyph>
<glyph name="Icircumflex" format="2">
  <advance width="270"/>
  <unicode hex="00CE"/>
  <anchor x="165" y="0" name="b.uni0328_1"/>
  <anchor x="237" y="700" name="m.gravecomb_2"/>
  <anchor x="114" y="0" name="m.uni0326"/>
  <outline>
    <contour>
      <point x="103" y="760" type="line"/>
      <point x="168" y="760" type="line"/>
      <point x="255" y="825" type="line"/>
      <point x="318" y="760" type="line" name="n03"/>
      <point x="383" y="760" type="line" name="n04"/>
      <point x="301" y="890" type="line" name="n05"/>
      <point x="231" y="890" type="line"/>
    </contour>
    <contour>
      <point x="65" y="0" type="line" name="n07"/>
      <point x="165" y="0" type="line"/>
      <point x="288" y="700" type="line" name="n09"/>
      <point x="188" y="700" type="line"/>
    </contour>
  </outline>
</glyph>
<glyph name="Idieresis" format="2">
  <advance width="260"/>
  <unicode hex="00CF"/>
  <anchor x="165" y="0" name="b.uni0328_1"/>
  <anchor x="237" y="700" name="m.gravecomb_2"/>
  <anchor x="114" y="0" name="m.uni0326"/>
  <outline>
    <contour>
      <point x="149" y="765" type="curve" smooth="yes" name="n00"/>
      <point x="181" y="765"/>
      <point x="207" y="788"/>
      <point x="214" y="820" type="curve"/>
      <point x="219" y="852"/>
      <point x="201" y="875"/>
      <point x="169" y="875" type="curve" smooth="yes" name="n06"/>
      <point x="137" y="875"/>
      <point x="109" y="852"/>
      <point x="104" y="820" type="curve"/>
      <point x="97" y="788"/>
      <point x="117" y="765"/>
    </contour>
    <contour>
      <point x="324" y="765" type="curve" smooth="yes"/>
      <point x="356" y="765"/>
      <point x="382" y="788"/>
      <point x="389" y="820" type="curve"/>
      <point x="394" y="852"/>
      <point x="376" y="875"/>
      <point x="344" y="875" type="curve" smooth="yes"/>
      <point x="312" y="875"/>
      <point x="284" y="852"/>
      <point x="279" y="820" type="curve"/>
      <point x="272" y="788"/>
      <point x="292" y="765"/>
    </contour>
    <contour>
      <point x="65" y="0" type="line" name="n24"/>
      <point x="165" y="0" type="line"/>
      <point x="288" y="700" type="line" name="n26"/>
      <point x="188" y="700" type="line"/>
    </contour>
  </outline>
</glyph>
<glyph name="Eth" format="2">
  <advance width="585"/>
  <unicode hex="00D0"/>
  <outline>
    <contour>
      <point x="65" y="0" type="line"/>
      <point x="215" y="0" type="line" smooth="yes" name="n01"/>
      <point x="405" y="0"/>
      <point x="521" y="99"/>
      <point x="566" y="350" type="curve"/>
      <point x="609" y="601"/>
      <point x="529" y="700"/>
      <point x="338" y="700" type="curve" smooth="yes" name="n07"/>
      <point x="188" y="700" type="line"/>
      <point x="135" y="400" type="line"/>
      <point x="80" y="400" type="line" name="n10"/>
      <point x="66" y="320" type="line" name="n11"/>
      <point x="121" y="320" type="line"/>
    </contour>
    <contour>
      <point x="177" y="70" type="line" name="n13"/>
      <point x="221" y="320" type="line"/>
      <point x="336" y="320" type="line"/>
      <point x="350" y="400" type="line"/>
      <point x="235" y="400" type="line"/>
      <point x="276" y="630" type="line"/>
      <point x="326" y="630" type="line" smooth="yes" name="n19"/>
      <point x="445" y="630"/>
      <point x="503" y="561"/>
      <point x="466" y="350" type="curve" smooth="yes"/>
      <point x="429" y="139"/>
      <point x="348" y="70"/>
      <point x="227" y="70" type="curve" smooth="yes"/>
    </contour>
  </outline>
</glyph>
<glyph name="Ograve" format="2">
  <advance width="600"/>
  <unicode hex="00D2"/>
  <outline>
    <contour>
      <point x="388" y="750" type="line"/>
      <point x="453" y="750" type="line" name="n01"/>
      <point x="435" y="900" type="line" name="n02"/>
      <point x="325" y="900" type="line"/>
    </contour>
    <contour>
      <point x="273" y="-10" type="curve" smooth="yes" name="n04"/>
      <point x="417" y="-10"/>
      <point x="536" y="90"/>
      <point x="581" y="350" type="curve" smooth="yes"/>
      <point x="626" y="610"/>
      <point x="545" y="710"/>
      <point x="400" y="710" type="curve" smooth="yes" name="n10"/>
      <point x="255" y="710"/>
      <point x="136" y="610"/>
      <point x="91" y="350" type="curve" smooth="yes"/>
      <point x="46" y="90"/>
      <point x="128" y="-10"/>
    </contour>
    <contour>
      <point x="285" y="60" type="curve" smooth="yes" name="n16"/>
      <point x="210" y="60"/>
      <point x="151" y="130"/>
      <point x="191" y="350" type="curve" smooth="yes"/>
      <point x="231" y="570"/>
      <point x="311" y="640"/>
      <point x="387" y="640" type="curve" smooth="yes" name="n22"/>
      <point x="460" y="640"/>
      <point x="521" y="570"/>
      <point x="481" y="350" type="curve" smooth="yes"/>
      <point x="441" y="130"/>
      <point x="360" y="60"/>
    </contour>
  </outline>
</glyph>
<glyph name="Oacute" format="2">
  <advance width="600"/>
  <unicode hex="00D3"/>
  <outline>
    <contour>
      <point x="358" y="750" type="line"/>
      <point x="423" y="750" type="line" name="n01"/>
      <point x="540" y="900" type="line"/>
      <point x="430" y="900" type="line" name="n03"/>
    </contour>
    <contour>
      <point x="273" y="-10" type="curve" smooth="yes" name="n04"/>
      <point x="417" y="-10"/>
      <point x="536" y="90"/>
      <point x="581" y="350" type="curve" smooth="yes"/>
      <point x="626" y="610"/>
      <point x="545" y="710"/>
      <point x="400" y="710" type="curve" smooth="yes" name="n10"/>
      <point x="255" y="710"/>
      <point x="136" y="610"/>
      <point x="91" y="350" type="curve" smooth="yes"/>
      <point x="46" y="90"/>
      <point x="128" y="-10"/>
    </contour>
    <contour>
      <point x="285" y="60" type="curve" smooth="yes" name="n16"/>
      <point x="210" y="60"/>
      <point x="151" y="130"/>
      <point x="191" y="350" type="curve" smooth="yes"/>
      <point x="231" y="570"/>
      <point x="311" y="640"/>
      <point x="387" y="640" type="curve" smooth="yes" name="n22"/>
      <point x="460" y="640"/>
      <point x="521" y="570"/>
      <point x="481" y="350" type="curve" smooth="yes"/>
      <point x="441" y="130"/>
      <point x="360" y="60"/>
    </contour>
  </outline>
</glyph>
<glyph name="Ocircumflex" format="2">
  <advance width="600"/>
  <unicode hex="00D4"/>
  <outline>
    <contour>
      <point x="268" y="760" type="line"/>
      <point x="333" y="760" type="line"/>
      <point x="420" y="825" type="line"/>
      <point x="483" y="760" type="line" name="n03"/>
      <point x="548" y="760" type="line"/>
      <point x="466" y="890" type="line" name="n05"/>
      <point x="396" y="890" type="line"/>
    </contour>
    <contour>
      <point x="273" y="-10" type="curve" smooth="yes" name="n07"/>
      <point x="417" y="-10"/>
      <point x="536" y="90"/>
      <point x="581" y="350" type="curve" smooth="yes"/>
      <point x="626" y="610"/>
      <point x="545" y="710"/>
      <point x="400" y="710" type="curve" smooth="yes" name="n13"/>
      <point x="255" y="710"/>
      <point x="136" y="610"/>
      <point x="91" y="350" type="curve" smooth="yes"/>
      <point x="46" y="90"/>
      <point x="128" y="-10"/>
    </contour>
    <contour>
      <point x="285" y="60" type="curve" smooth="yes" name="n19"/>
      <point x="210" y="60"/>
      <point x="151" y="130"/>
      <point x="191" y="350" type="curve" smooth="yes"/>
      <point x="231" y="570"/>
      <point x="311" y="640"/>
      <point x="387" y="640" type="curve" smooth="yes" name="n25"/>
      <point x="460" y="640"/>
      <point x="521" y="570"/>
      <point x="481" y="350" type="curve" smooth="yes"/>
      <point x="441" y="130"/>
      <point x="360" y="60"/>
    </contour>
  </outline>
</glyph>
<glyph name="Otilde" format="2">
  <advance width="600"/>
  <unicode hex="00D5"/>
  <outline>
    <contour>
      <point x="449" y="760" type="curve" smooth="yes"/>
      <point x="500" y="760"/>
      <point x="531" y="800"/>
      <point x="554" y="845" type="curve" name="n03"/>
      <point x="548.936" y="848.517"/>
      <point x="526.103" y="864.373"/>
      <point x="518" y="870" type="curve" name="n06"/>
      <point x="516.63" y="870"/>
      <point x="510.472" y="870"/>
      <point x="509" y="870" type="curve"/>
      <point x="509" y="869"/>
      <point x="486" y="829"/>
      <point x="456" y="830" type="curve"/>
      <point x="425" y="830"/>
      <point x="425" y="875"/>
      <point x="374" y="875" type="curve" smooth="yes"/>
      <point x="323" y="875"/>
      <point x="292" y="835"/>
      <point x="269" y="790" type="curve" name="n18"/>
      <point x="274.055" y="786.489"/>
      <point x="297.056" y="770.517"/>
      <point x="305" y="765" type="curve" name="n21"/>
      <point x="306.424" y="765"/>
      <point x="312.531" y="765"/>
      <point x="314" y="765" type="curve"/>
      <point x="314" y="764"/>
      <point x="337" y="804"/>
      <point x="367" y="805" type="curve"/>
      <point x="398" y="805"/>
      <point x="398" y="760"/>
    </contour>
    <contour>
      <point x="273" y="-10" type="curve" smooth="yes" name="n30"/>
      <point x="417" y="-10"/>
      <point x="536" y="90"/>
      <point x="581" y="350" type="curve" smooth="yes"/>
      <point x="626" y="610"/>
      <point x="545" y="710"/>
      <point x="400" y="710" type="curve" smooth="yes" name="n36"/>
      <point x="255" y="710"/>
      <point x="136" y="610"/>
      <point x="91" y="350" type="curve" smooth="yes"/>
      <point x="46" y="90"/>
      <point x="128" y="-10"/>
    </contour>
    <contour>
      <point x="285" y="60" type="curve" smooth="yes" name="hr04"/>
      <point x="210" y="60"/>
      <point x="151" y="130"/>
      <point x="191" y="350" type="curve" smooth="yes" name="n45"/>
      <point x="231" y="570"/>
      <point x="311" y="640"/>
      <point x="387" y="640" type="curve" smooth="yes"/>
      <point x="460" y="640"/>
      <point x="521" y="570"/>
      <point x="481" y="350" type="curve" smooth="yes" name="n51"/>
      <point x="441" y="130"/>
      <point x="360" y="60"/>
    </contour>
  </outline>
</glyph>
<glyph name="Odieresis" format="2">
  <advance width="600"/>
  <unicode hex="00D6"/>
  <outline>
    <contour>
      <point x="319" y="765" type="curve" smooth="yes" name="n00"/>
      <point x="351" y="765"/>
      <point x="377" y="788"/>
      <point x="384" y="820" type="curve"/>
      <point x="389" y="852"/>
      <point x="371" y="875"/>
      <point x="339" y="875" type="curve" smooth="yes" name="n06"/>
      <point x="307" y="875"/>
      <point x="279" y="852"/>
      <point x="274" y="820" type="curve"/>
      <point x="267" y="788"/>
      <point x="287" y="765"/>
    </contour>
    <contour>
      <point x="494" y="765" type="curve" smooth="yes"/>
      <point x="526" y="765"/>
      <point x="552" y="788"/>
      <point x="559" y="820" type="curve"/>
      <point x="564" y="852"/>
      <point x="546" y="875"/>
      <point x="514" y="875" type="curve" smooth="yes"/>
      <point x="482" y="875"/>
      <point x="454" y="852"/>
      <point x="449" y="820" type="curve"/>
      <point x="442" y="788"/>
      <point x="462" y="765"/>
    </contour>
    <contour>
      <point x="273" y="-10" type="curve" smooth="yes" name="n24"/>
      <point x="417" y="-10"/>
      <point x="536" y="90"/>
      <point x="581" y="350" type="curve" smooth="yes"/>
      <point x="626" y="610"/>
      <point x="545" y="710"/>
      <point x="400" y="710" type="curve" smooth="yes" name="n30"/>
      <point x="255" y="710"/>
      <point x="136" y="610"/>
      <point x="91" y="350" type="curve" smooth="yes"/>
      <point x="46" y="90"/>
      <point x="128" y="-10"/>
    </contour>
    <contour>
      <point x="285" y="60" type="curve" smooth="yes" name="n36"/>
      <point x="210" y="60"/>
      <point x="151" y="130"/>
      <point x="191" y="350" type="curve" smooth="yes"/>
      <point x="231" y="570"/>
      <point x="311" y="640"/>
      <point x="387" y="640" type="curve" smooth="yes" name="n42"/>
      <point x="460" y="640"/>
      <point x="521" y="570"/>
      <point x="481" y="350" type="curve" smooth="yes"/>
      <point x="441" y="130"/>
      <point x="360" y="60"/>
    </contour>
  </outline>
</glyph>
<glyph name="multiply" format="2">
  <advance width="437"/>
  <unicode hex="00D7"/>
  <outline>
    <contour>
      <point x="104" y="157" type="line" name="n00"/>
      <point x="242" y="273" type="line"/>
      <point x="337" y="157" type="line"/>
      <point x="404" y="213" type="line"/>
      <point x="308" y="330" type="line"/>
      <point x="445" y="447" type="line" name="n05"/>
      <point x="398" y="503" type="line"/>
      <point x="262" y="387" type="line"/>
      <point x="165" y="503" type="line" name="n08"/>
      <point x="98" y="447" type="line"/>
      <point x="195" y="330" type="line"/>
      <point x="57" y="213" type="line" name="n11"/>
    </contour>
  </outline>
</glyph>
<glyph name="Oslash" format="2">
  <advance width="600"/>
  <unicode hex="00D8"/>
  <outline>
    <contour>
      <point x="273" y="-10" type="curve" smooth="yes" name="n00"/>
      <point x="417" y="-10"/>
      <point x="536" y="90"/>
      <point x="581" y="350" type="curve" smooth="yes"/>
      <point x="602" y="467"/>
      <point x="598" y="553"/>
      <point x="571" y="610" type="curve" name="n06"/>
      <point x="638" y="700" type="line"/>
      <point x="558" y="700" type="line" name="n08"/>
      <point x="532" y="665" type="line"/>
      <point x="499" y="695"/>
      <point x="455" y="710" name="hr01"/>
      <point x="400" y="710" type="curve" smooth="yes" name="n12"/>
      <point x="255" y="710"/>
      <point x="136" y="610" name="hr02"/>
      <point x="91" y="350" type="curve" smooth="yes"/>
      <point x="70" y="231"/>
      <point x="74" y="148"/>
      <point x="101" y="89" type="curve" name="n18"/>
      <point x="35" y="0" type="line"/>
      <point x="115" y="0" type="line" name="n20"/>
      <point x="141" y="35" type="line"/>
      <point x="173" y="4"/>
      <point x="218" y="-10" name="hr03"/>
    </contour>
    <contour>
      <point x="180" y="194" type="line"/>
      <point x="177" y="235"/>
      <point x="180" y="286"/>
      <point x="191" y="350" type="curve" smooth="yes"/>
      <point x="231" y="570"/>
      <point x="311" y="640"/>
      <point x="387" y="640" type="curve" smooth="yes" name="n30"/>
      <point x="422" y="640"/>
      <point x="454" y="625"/>
      <point x="473" y="586" type="curve"/>
    </contour>
    <contour>
      <point x="285" y="60" type="curve" smooth="yes" name="n34"/>
      <point x="250" y="60"/>
      <point x="219" y="74"/>
      <point x="199" y="113" type="curve"/>
      <point x="493" y="505" type="line"/>
      <point x="496" y="465"/>
      <point x="492" y="414"/>
      <point x="481" y="350" type="curve" smooth="yes"/>
      <point x="441" y="130"/>
      <point x="360" y="60"/>
    </contour>
  </outline>
</glyph>
<glyph name="Ugrave" format="2">
  <advance width="620"/>
  <unicode hex="00D9"/>
  <outline>
    <contour>
      <point x="394" y="730" type="line"/>
      <point x="459" y="730" type="line" name="n01"/>
      <point x="441" y="880" type="line" name="n02"/>
      <point x="331" y="880" type="line"/>
    </contour>
    <contour>
      <point x="283" y="-10" type="curve" smooth="yes" name="n04"/>
      <point x="428" y="-10"/>
      <point x="521" y="69"/>
      <point x="548" y="220" type="curve" smooth="yes"/>
      <point x="633" y="700" type="line" name="n08"/>
      <point x="533" y="700" type="line"/>
      <point x="448" y="220" type="line" smooth="yes"/>
      <point x="429" y="109"/>
      <point x="371" y="60"/>
      <point x="295" y="60" type="curve" smooth="yes" name="n13"/>
      <point x="219" y="60"/>
      <point x="179" y="109"/>
      <point x="198" y="220" type="curve" smooth="yes"/>
      <point x="283" y="700" type="line"/>
      <point x="183" y="700" type="line"/>
      <point x="98" y="220" type="line" smooth="yes"/>
      <point x="71" y="69"/>
      <point x="138" y="-10"/>
    </contour>
  </outline>
</glyph>
<glyph name="Uacute" format="2">
  <advance width="620"/>
  <unicode hex="00DA"/>
  <outline>
    <contour>
      <point x="374" y="730" type="line"/>
      <point x="439" y="730" type="line" name="n01"/>
      <point x="556" y="880" type="line"/>
      <point x="446" y="880" type="line" name="n03"/>
    </contour>
    <contour>
      <point x="283" y="-10" type="curve" smooth="yes" name="n04"/>
      <point x="428" y="-10"/>
      <point x="521" y="69"/>
      <point x="548" y="220" type="curve" smooth="yes"/>
      <point x="633" y="700" type="line" name="n08"/>
      <point x="533" y="700" type="line"/>
      <point x="448" y="220" type="line" smooth="yes"/>
      <point x="429" y="109"/>
      <point x="371" y="60"/>
      <point x="295" y="60" type="curve" smooth="yes" name="n13"/>
      <point x="219" y="60"/>
      <point x="179" y="109"/>
      <point x="198" y="220" type="curve" smooth="yes"/>
      <point x="283" y="700" type="line"/>
      <point x="183" y="700" type="line"/>
      <point x="98" y="220" type="line" smooth="yes"/>
      <point x="71" y="69"/>
      <point x="138" y="-10"/>
    </contour>
  </outline>
</glyph>
<glyph name="Ucircumflex" format="2">
  <advance width="620"/>
  <unicode hex="00DB"/>
  <outline>
    <contour>
      <point x="278" y="760" type="line"/>
      <point x="343" y="760" type="line"/>
      <point x="430" y="825" type="line"/>
      <point x="493" y="760" type="line" name="n03"/>
      <point x="558" y="760" type="line"/>
      <point x="476" y="890" type="line" name="n05"/>
      <point x="406" y="890" type="line"/>
    </contour>
    <contour>
      <point x="283" y="-10" type="curve" smooth="yes" name="n07"/>
      <point x="428" y="-10"/>
      <point x="521" y="69"/>
      <point x="548" y="220" type="curve" smooth="yes"/>
      <point x="633" y="700" type="line" name="n11"/>
      <point x="533" y="700" type="line"/>
      <point x="448" y="220" type="line" smooth="yes"/>
      <point x="429" y="109"/>
      <point x="371" y="60"/>
      <point x="295" y="60" type="curve" smooth="yes" name="n16"/>
      <point x="219" y="60"/>
      <point x="179" y="109"/>
      <point x="198" y="220" type="curve" smooth="yes"/>
      <point x="283" y="700" type="line"/>
      <point x="183" y="700" type="line"/>
      <point x="98" y="220" type="line" smooth="yes"/>
      <point x="71" y="69"/>
      <point x="138" y="-10"/>
    </contour>
  </outline>
</glyph>
<glyph name="Udieresis" format="2">
  <advance width="620"/>
  <unicode hex="00DC"/>
  <outline>
    <contour>
      <point x="329" y="765" type="curve" smooth="yes" name="n00"/>
      <point x="361" y="765"/>
      <point x="387" y="788"/>
      <point x="394" y="820" type="curve"/>
      <point x="399" y="852"/>
      <point x="381" y="875"/>
      <point x="349" y="875" type="curve" smooth="yes" name="n06"/>
      <point x="317" y="875"/>
      <point x="289" y="852"/>
      <point x="284" y="820" type="curve"/>
      <point x="277" y="788"/>
      <point x="297" y="765"/>
    </contour>
    <contour>
      <point x="504" y="765" type="curve" smooth="yes"/>
      <point x="536" y="765"/>
      <point x="562" y="788"/>
      <point x="569" y="820" type="curve"/>
      <point x="574" y="852"/>
      <point x="556" y="875"/>
      <point x="524" y="875" type="curve" smooth="yes"/>
      <point x="492" y="875"/>
      <point x="464" y="852"/>
      <point x="459" y="820" type="curve"/>
      <point x="452" y="788"/>
      <point x="472" y="765"/>
    </contour>
    <contour>
      <point x="283" y="-10" type="curve" smooth="yes" name="n24"/>
      <point x="428" y="-10"/>
      <point x="521" y="69"/>
      <point x="548" y="220" type="curve" smooth="yes"/>
      <point x="633" y="700" type="line" name="n28"/>
      <point x="533" y="700" type="line"/>
      <point x="448" y="220" type="line" smooth="yes"/>
      <point x="429" y="109"/>
      <point x="371" y="60"/>
      <point x="295" y="60" type="curve" smooth="yes" name="n33"/>
      <point x="219" y="60"/>
      <point x="179" y="109"/>
      <point x="198" y="220" type="curve" smooth="yes"/>
      <point x="283" y="700" type="line"/>
      <point x="183" y="700" type="line"/>
      <point x="98" y="220" type="line" smooth="yes"/>
      <point x="71" y="69"/>
      <point x="138" y="-10"/>
    </contour>
  </outline>
</glyph>
<glyph name="Yacute" format="2">
  <advance width="530"/>
  <unicode hex="00DD"/>
  <outline>
    <contour>
      <point x="329" y="730" type="line"/>
      <point x="394" y="730" type="line" name="n01"/>
      <point x="511" y="880" type="line"/>
      <point x="401" y="880" type="line" name="n03"/>
    </contour>
    <contour>
      <point x="190" y="0" type="line" name="n04"/>
      <point x="290" y="0" type="line"/>
      <point x="330" y="230" type="line"/>
      <point x="628" y="700" type="line" name="n07"/>
      <point x="523" y="700" type="line"/>
      <point x="329" y="395" type="line" smooth="yes"/>
      <point x="321" y="382"/>
      <point x="314" y="369"/>
      <point x="309" y="356" type="curve" smooth="yes"/>
      <point x="307.563" y="352.229"/>
      <point x="302.256" y="338.298"/>
      <point x="301" y="335" type="curve"/>
      <point x="297" y="335" type="line"/>
      <point x="297" y="342"/>
      <point x="297" y="349"/>
      <point x="296" y="356" type="curve"/>
      <point x="295" y="368"/>
      <point x="292" y="382"/>
      <point x="289" y="395" type="curve"/>
      <point x="203" y="700" type="line"/>
      <point x="98" y="700" type="line" name="n24"/>
      <point x="230" y="230" type="line"/>
    </contour>
  </outline>
</glyph>
<glyph name="Thorn" format="2">
  <advance width="615"/>
  <unicode hex="00DE"/>
  <outline>
    <contour>
      <point x="61" y="-20" type="line"/>
      <point x="161" y="-20" type="line"/>
      <point x="175" y="60" type="line" name="n02"/>
      <point x="265" y="60" type="line" smooth="yes"/>
      <point x="452" y="60"/>
      <point x="574" y="163"/>
      <point x="606" y="350" type="curve" smooth="yes"/>
      <point x="639" y="537"/>
      <point x="554" y="640"/>
      <point x="367" y="640" type="curve" smooth="yes"/>
      <point x="277" y="640" type="line" name="n10"/>
      <point x="291" y="720" type="line"/>
      <point x="191" y="720" type="line"/>
    </contour>
    <contour>
      <point x="187" y="130" type="line" name="n13"/>
      <point x="265" y="570" type="line" name="n14"/>
      <point x="355" y="570" type="line" smooth="yes"/>
      <point x="469" y="570"/>
      <point x="533" y="495"/>
      <point x="506" y="350" type="curve"/>
      <point x="481" y="205"/>
      <point x="393" y="130"/>
      <point x="277" y="130" type="curve" smooth="yes"/>
    </contour>
  </outline>
</glyph>
<glyph name="germandbls" format="2">
  <advance width="620"/>
  <unicode hex="00DF"/>
  <outline>
    <contour>
      <point x="363" y="-10" type="curve" smooth="yes" name="n00"/>
      <point x="484" y="-10"/>
      <point x="570" y="65"/>
      <point x="591" y="180" type="curve" smooth="yes"/>
      <point x="619" y="330"/>
      <point x="434" y="345"/>
      <point x="454" y="450" type="curve"/>
      <point x="462" y="501"/>
      <point x="504" y="509"/>
      <point x="515" y="570" type="curve"/>
      <point x="528" y="650"/>
      <point x="480" y="710"/>
      <point x="365" y="710" type="curve" smooth="yes" name="n12"/>
      <point x="265" y="710"/>
      <point x="187" y="646"/>
      <point x="171" y="550" type="curve" smooth="yes"/>
      <point x="161" y="490" type="line"/>
      <point x="96" y="490" type="line" name="n17"/>
      <point x="84" y="420" type="line" name="n18"/>
      <point x="149" y="420" type="line"/>
      <point x="75" y="0" type="line" name="hr01"/>
      <point x="175" y="0" type="line" name="n21"/>
      <point x="271" y="550" type="line" smooth="yes"/>
      <point x="282" y="610"/>
      <point x="317" y="640"/>
      <point x="362" y="640" type="curve" smooth="yes" name="n25"/>
      <point x="397" y="640"/>
      <point x="422" y="610"/>
      <point x="415" y="570" type="curve" smooth="yes"/>
      <point x="407" y="519"/>
      <point x="372" y="501"/>
      <point x="364" y="450" type="curve"/>
      <point x="336" y="300"/>
      <point x="509" y="286"/>
      <point x="489" y="170" type="curve" smooth="yes"/>
      <point x="477" y="99"/>
      <point x="430" y="60" name="hr02"/>
      <point x="365" y="60" type="curve" smooth="yes" name="n37"/>
      <point x="345" y="60"/>
      <point x="330" y="65"/>
      <point x="319" y="72" type="curve"/>
      <point x="313" y="75"/>
      <point x="308" y="80"/>
      <point x="304" y="85" type="curve"/>
      <point x="294" y="85" type="line"/>
      <point x="258" y="20" type="line" name="n45"/>
      <point x="265" y="14"/>
      <point x="273" y="9"/>
      <point x="284" y="5" type="curve"/>
      <point x="301" y="-3"/>
      <point x="328" y="-10" name="hr04"/>
    </contour>
  </outline>
</glyph>
<glyph name="atilde" format="2">
  <advance width="510"/>
  <unicode hex="00E3"/>
  <outline>
    <contour>
      <point x="369" y="561" type="curve" smooth="yes"/>
      <point x="420" y="561"/>
      <point x="451" y="601"/>
      <point x="474" y="646" type="curve" name="n03"/>
      <point x="468.936" y="649.517"/>
      <point x="446.103" y="665.373"/>
      <point x="438" y="671" type="curve" name="n06"/>
      <point x="436.63" y="671"/>
      <point x="430.472" y="671"/>
      <point x="429" y="671" type="curve"/>
      <point x="429" y="670"/>
      <point x="406" y="630"/>
      <point x="376" y="631" type="curve"/>
      <point x="345" y="631"/>
      <point x="345" y="676"/>
      <point x="294" y="676" type="curve" smooth="yes"/>
      <point x="243" y="676"/>
      <point x="212" y="636"/>
      <point x="189" y="591" type="curve" name="n18"/>
      <point x="194.055" y="587.489"/>
      <point x="217.056" y="571.517"/>
      <point x="225" y="566" type="curve" name="n21"/>
      <point x="226.424" y="566"/>
      <point x="232.531" y="566"/>
      <point x="234" y="566" type="curve"/>
      <point x="234" y="565"/>
      <point x="257" y="605"/>
      <point x="287" y="606" type="curve"/>
      <point x="318" y="606"/>
      <point x="318" y="561"/>
    </contour>
    <contour>
      <point x="183" y="-10" type="curve" smooth="yes" name="n30"/>
      <point x="234" y="-10"/>
      <point x="272" y="6"/>
      <point x="299" y="25" type="curve"/>
      <point x="315" y="35"/>
      <point x="329" y="47"/>
      <point x="340" y="60" type="curve"/>
      <point x="345" y="60" type="line"/>
      <point x="345" y="0" type="line"/>
      <point x="355.558" y="0"/>
      <point x="402.576" y="0"/>
      <point x="415" y="0" type="curve"/>
      <point x="422.666" y="43.8034"/>
      <point x="459.917" y="256.671"/>
      <point x="471" y="320" type="curve" smooth="yes" name="n44"/>
      <point x="490" y="430"/>
      <point x="424" y="510"/>
      <point x="309" y="510" type="curve" smooth="yes"/>
      <point x="258" y="510"/>
      <point x="215" y="497"/>
      <point x="184" y="482" type="curve"/>
      <point x="166" y="474"/>
      <point x="150" y="465"/>
      <point x="135" y="455" type="curve" name="n53"/>
      <point x="140.812" y="440.47" name="hr03"/>
      <point x="155.442" y="403.894"/>
      <point x="159" y="395" type="curve"/>
      <point x="160.786" y="395" name="hr04"/>
      <point x="166.681" y="395"/>
      <point x="169" y="395" type="curve" name="n59"/>
      <point x="180" y="403"/>
      <point x="192" y="410"/>
      <point x="205" y="417" type="curve"/>
      <point x="228" y="428"/>
      <point x="256" y="440"/>
      <point x="287" y="440" type="curve" smooth="yes"/>
      <point x="352" y="440"/>
      <point x="386" y="400"/>
      <point x="371" y="320" type="curve"/>
      <point x="367" y="295" type="line" name="n69"/>
      <point x="287" y="295" type="line" smooth="yes" name="hr06"/>
      <point x="132" y="295"/>
      <point x="61" y="235"/>
      <point x="45" y="145" type="curve" smooth="yes"/>
      <point x="28" y="49"/>
      <point x="78" y="-10"/>
    </contour>
    <contour>
      <point x="221" y="65" type="curve" smooth="yes" name="hr07"/>
      <point x="161" y="65"/>
      <point x="136" y="94"/>
      <point x="145" y="145" type="curve" smooth="yes"/>
      <point x="153" y="190"/>
      <point x="194" y="225"/>
      <point x="274" y="225" type="curve" smooth="yes" name="n82"/>
      <point x="292.229" y="225" name="hr08"/>
      <point x="339.541" y="225"/>
      <point x="354" y="225" type="curve"/>
      <point x="351.053" y="207.662"/>
      <point x="340.869" y="147.761"/>
      <point x="337" y="125" type="curve" name="n88"/>
      <point x="325" y="114"/>
      <point x="313" y="104" name="hr09"/>
      <point x="301" y="95" type="curve"/>
      <point x="278" y="80"/>
      <point x="252" y="65"/>
    </contour>
  </outline>
</glyph>
<glyph name="aring" format="2">
  <advance width="510"/>
  <unicode hex="00E5"/>
  <outline>
    <contour>
      <point x="328" y="560" type="curve" smooth="yes" name="n00"/>
      <point x="388" y="560"/>
      <point x="435" y="599"/>
      <point x="444" y="655" type="curve"/>
      <point x="455" y="711"/>
      <point x="421" y="750"/>
      <point x="361" y="750" type="curve" smooth="yes" name="n06"/>
      <point x="301" y="750"/>
      <point x="255" y="711"/>
      <point x="244" y="655" type="curve"/>
      <point x="235" y="599"/>
      <point x="268" y="560"/>
    </contour>
    <contour>
      <point x="337" y="610" type="curve" smooth="yes" name="n12"/>
      <point x="317" y="610"/>
      <point x="299" y="624"/>
      <point x="304" y="655" type="curve"/>
      <point x="311" y="686"/>
      <point x="332" y="700"/>
      <point x="352" y="700" type="curve" smooth="yes" name="n18"/>
      <point x="372" y="700"/>
      <point x="391" y="686"/>
      <point x="384" y="655" type="curve"/>
      <point x="379" y="624"/>
      <point x="357" y="610"/>
    </contour>
    <contour>
      <point x="183" y="-10" type="curve" smooth="yes" name="n24"/>
      <point x="234" y="-10"/>
      <point x="272" y="6"/>
      <point x="299" y="25" type="curve"/>
      <point x="315" y="35"/>
      <point x="329" y="47"/>
      <point x="340" y="60" type="curve"/>
      <point x="345" y="60" type="line"/>
      <point x="345" y="0" type="line" name="n32"/>
      <point x="415" y="0" type="line"/>
      <point x="471" y="320" type="line" smooth="yes" name="hr01"/>
      <point x="490" y="430"/>
      <point x="424" y="510"/>
      <point x="309" y="510" type="curve" smooth="yes" name="n37"/>
      <point x="258" y="510"/>
      <point x="215" y="497"/>
      <point x="184" y="482" type="curve"/>
      <point x="166" y="474"/>
      <point x="150" y="465"/>
      <point x="135" y="455" type="curve"/>
      <point x="159" y="395" type="line"/>
      <point x="169" y="395" type="line"/>
      <point x="180" y="403"/>
      <point x="192" y="410"/>
      <point x="205" y="417" type="curve"/>
      <point x="228" y="428"/>
      <point x="256" y="440"/>
      <point x="287" y="440" type="curve" smooth="yes" name="n51"/>
      <point x="352" y="440"/>
      <point x="386" y="400"/>
      <point x="371" y="320" type="curve"/>
      <point x="367" y="295" type="line"/>
      <point x="287" y="295" type="line" smooth="yes" name="n56"/>
      <point x="132" y="295"/>
      <point x="61" y="235"/>
      <point x="45" y="145" type="curve" smooth="yes"/>
      <point x="28" y="49"/>
      <point x="78" y="-10"/>
    </contour>
    <contour>
      <point x="221" y="65" type="curve" smooth="yes" name="n62"/>
      <point x="161" y="65" name="hr02"/>
      <point x="136" y="94"/>
      <point x="145" y="145" type="curve" smooth="yes"/>
      <point x="153" y="190"/>
      <point x="194" y="225"/>
      <point x="274" y="225" type="curve" smooth="yes" name="n68"/>
      <point x="354" y="225" type="line"/>
      <point x="337" y="125" type="line"/>
      <point x="325" y="114"/>
      <point x="313" y="104"/>
      <point x="301" y="95" type="curve"/>
      <point x="278" y="80"/>
      <point x="252" y="65"/>
    </contour>
  </outline>
</glyph>
<glyph name="ae" format="2">
  <advance width="785"/>
  <unicode hex="00E6"/>
  <outline>
    <contour>
      <point x="177.687" y="-10" type="curve" smooth="yes" name="n00"/>
      <point x="251.734" y="-10"/>
      <point x="323.94" y="23.0689"/>
      <point x="374" y="70" type="curve"/>
      <point x="402" y="15"/>
      <point x="458" y="-10"/>
      <point x="524.756" y="-10" type="curve" smooth="yes" name="n06"/>
      <point x="583.08" y="-10"/>
      <point x="648.022" y="9.08292"/>
      <point x="697" y="45" type="curve"/>
      <point x="673" y="105" type="line"/>
      <point x="663" y="105" type="line"/>
      <point x="630.466" y="80.5994"/>
      <point x="585.821" y="60"/>
      <point x="543.035" y="60" type="curve" smooth="yes" name="n14"/>
      <point x="487.09" y="60"/>
      <point x="447.494" y="95.2191"/>
      <point x="447.494" y="168.613" type="curve" smooth="yes" name="n17"/>
      <point x="447.494" y="182.668"/>
      <point x="448.946" y="198.124"/>
      <point x="452" y="215" type="curve" name="n20"/>
      <point x="732" y="215" type="line"/>
      <point x="756" y="235" type="line"/>
      <point x="761.953" y="264.767"/>
      <point x="765.676" y="294.768" name="hr01"/>
      <point x="765.676" y="325.172" type="curve" smooth="yes" name="n25"/>
      <point x="765.676" y="449.394"/>
      <point x="701.95" y="510"/>
      <point x="609.233" y="510" type="curve" smooth="yes" name="n28"/>
      <point x="544" y="510"/>
      <point x="489" y="480"/>
      <point x="446" y="435" type="curve"/>
      <point x="429" y="480"/>
      <point x="385" y="510"/>
      <point x="309" y="510" type="curve" smooth="yes"/>
      <point x="246.546" y="510"/>
      <point x="186.652" y="489.435"/>
      <point x="135" y="455" type="curve"/>
      <point x="159" y="395" type="line"/>
      <point x="169" y="395" type="line"/>
      <point x="201.184" y="418.407"/>
      <point x="247.273" y="440"/>
      <point x="291.289" y="440" type="curve" smooth="yes"/>
      <point x="341.754" y="440"/>
      <point x="374.511" y="411.616"/>
      <point x="374.511" y="353.751" type="curve" smooth="yes" name="n45"/>
      <point x="374.511" y="334.806"/>
      <point x="371" y="314.67"/>
      <point x="367" y="295" type="curve"/>
      <point x="287" y="295" type="line" smooth="yes" name="n49"/>
      <point x="162.364" y="295"/>
      <point x="41.74" y="251.802"/>
      <point x="41.74" y="119.672" type="curve" smooth="yes"/>
      <point x="41.74" y="34.8276"/>
      <point x="91.4758" y="-10"/>
    </contour>
    <contour>
      <point x="465" y="285" type="line" name="n55"/>
      <point x="484" y="394" name="hr02"/>
      <point x="537" y="440"/>
      <point x="592" y="440" type="curve" smooth="yes" name="n58"/>
      <point x="637.728" y="440"/>
      <point x="670.12" y="409.995"/>
      <point x="670.12" y="339.095" type="curve" smooth="yes" name="n61"/>
      <point x="670.12" y="323.168"/>
      <point x="668.485" y="305.178"/>
      <point x="665" y="285" type="curve"/>
    </contour>
    <contour>
      <point x="214.355" y="65" type="curve" smooth="yes" name="n65"/>
      <point x="168.926" y="65"/>
      <point x="143.216" y="86.8444"/>
      <point x="143.216" y="130.039" type="curve" smooth="yes"/>
      <point x="143.216" y="199.328"/>
      <point x="209.374" y="225"/>
      <point x="274" y="225" type="curve" smooth="yes" name="n71"/>
      <point x="354" y="225" type="line"/>
      <point x="337" y="125" type="line"/>
      <point x="301.994" y="92.911"/>
      <point x="264.541" y="65"/>
    </contour>
  </outline>
</glyph>
<glyph name="ccedilla" format="2">
  <advance width="455"/>
  <unicode hex="00E7"/>
  <outline>
    <contour>
      <point x="439" y="482" type="curve" smooth="yes" name="n00"/>
      <point x="412" y="497"/>
      <point x="375" y="510"/>
      <point x="324" y="510" type="curve" smooth="yes"/>
      <point x="199" y="510"/>
      <point x="100" y="426"/>
      <point x="69" y="250" type="curve" smooth="yes"/>
      <point x="42" y="98"/>
      <point x="90" y="15"/>
      <point x="190" y="-5" type="curve"/>
      <point x="178" y="-75" type="line"/>
      <point x="184.234" y="-75"/>
      <point x="210.751" y="-75"/>
      <point x="218" y="-75" type="curve" smooth="yes"/>
      <point x="249" y="-75"/>
      <point x="261" y="-90"/>
      <point x="257" y="-110" type="curve" name="n16"/>
      <point x="254" y="-130"/>
      <point x="236" y="-145"/>
      <point x="211" y="-145" type="curve" smooth="yes"/>
      <point x="186" y="-145"/>
      <point x="168" y="-130"/>
      <point x="169" y="-130" type="curve" name="n22"/>
      <point x="160" y="-130" type="line"/>
      <point x="138" y="-170" type="line" name="n24"/>
      <point x="143" y="-174"/>
      <point x="150" y="-177"/>
      <point x="157" y="-180" type="curve" smooth="yes" name="n27"/>
      <point x="169" y="-185"/>
      <point x="188" y="-190" name="hr02"/>
      <point x="213" y="-190" type="curve" smooth="yes" name="n30"/>
      <point x="273" y="-190"/>
      <point x="314" y="-155"/>
      <point x="322" y="-110" type="curve" smooth="yes" name="hr03"/>
      <point x="330" y="-65"/>
      <point x="302" y="-30"/>
      <point x="246" y="-30" type="curve"/>
      <point x="250" y="-10" type="line"/>
      <point x="298" y="-9"/>
      <point x="337" y="3"/>
      <point x="367" y="17" type="curve" smooth="yes"/>
      <point x="385" y="25"/>
      <point x="402" y="34"/>
      <point x="417" y="45" type="curve" name="n43"/>
      <point x="411.818" y="57.9552"/>
      <point x="396.336" y="96.6602"/>
      <point x="393" y="105" type="curve" name="n46"/>
      <point x="391.305" y="105"/>
      <point x="385.077" y="105"/>
      <point x="383" y="105" type="curve" name="n49"/>
      <point x="371" y="96"/>
      <point x="359" y="89"/>
      <point x="346" y="82" type="curve" name="n52"/>
      <point x="323" y="71"/>
      <point x="296" y="60"/>
      <point x="265" y="60" type="curve" smooth="yes"/>
      <point x="184" y="60"/>
      <point x="145" y="110"/>
      <point x="169" y="250" type="curve" smooth="yes"/>
      <point x="193" y="390"/>
      <point x="252" y="440"/>
      <point x="322" y="440" type="curve" smooth="yes"/>
      <point x="353" y="440"/>
      <point x="376" y="428"/>
      <point x="395" y="417" type="curve"/>
      <point x="406" y="410"/>
      <point x="415" y="403"/>
      <point x="424" y="395" type="curve"/>
      <point x="425.369" y="395"/>
      <point x="432.08" y="395"/>
      <point x="434" y="395" type="curve" name="n70"/>
      <point x="441.574" y="404.88"/>
      <point x="466.469" y="437.351"/>
      <point x="480" y="455" type="curve"/>
      <point x="468" y="465"/>
      <point x="454" y="474"/>
    </contour>
  </outline>
</glyph>
<glyph name="egrave" format="2">
  <advance width="505"/>
  <unicode hex="00E8"/>
  <outline>
    <contour>
      <point x="296" y="550" type="line"/>
      <point x="361" y="550" type="line" name="n01"/>
      <point x="343" y="700" type="line" name="n02"/>
      <point x="233" y="700" type="line"/>
    </contour>
    <contour>
      <point x="243" y="-10" type="curve" smooth="yes" name="n04"/>
      <point x="294" y="-10"/>
      <point x="336" y="2"/>
      <point x="367" y="17" type="curve"/>
      <point x="385" y="25"/>
      <point x="402" y="34"/>
      <point x="417" y="45" type="curve"/>
      <point x="393" y="105" type="line"/>
      <point x="383" y="105" type="line"/>
      <point x="371" y="96"/>
      <point x="359" y="89"/>
      <point x="346" y="82" type="curve"/>
      <point x="323" y="71"/>
      <point x="296" y="60"/>
      <point x="265" y="60" type="curve" smooth="yes" name="n18"/>
      <point x="185" y="60"/>
      <point x="143" y="110"/>
      <point x="162" y="215" type="curve" name="n21"/>
      <point x="452" y="215" type="line"/>
      <point x="476" y="235" type="line"/>
      <point x="479" y="250" type="line"/>
      <point x="508" y="425"/>
      <point x="440" y="510"/>
      <point x="319" y="510" type="curve" smooth="yes" name="n27"/>
      <point x="199" y="510"/>
      <point x="98" y="425"/>
      <point x="69" y="250" type="curve"/>
      <point x="38" y="74"/>
      <point x="107" y="-10"/>
    </contour>
    <contour>
      <point x="175" y="285" type="line" name="n33"/>
      <point x="194" y="394"/>
      <point x="247" y="440"/>
      <point x="307" y="440" type="curve" smooth="yes" name="n36"/>
      <point x="367" y="440"/>
      <point x="404" y="396"/>
      <point x="385" y="285" type="curve"/>
    </contour>
  </outline>
</glyph>
